%TF.GenerationSoftware,KiCad,Pcbnew,(6.0.5)*%
%TF.CreationDate,2022-06-14T13:50:17+08:00*%
%TF.ProjectId,V4.0,56342e30-2e6b-4696-9361-645f70636258,rev?*%
%TF.SameCoordinates,Original*%
%TF.FileFunction,Paste,Top*%
%TF.FilePolarity,Positive*%
%FSLAX46Y46*%
G04 Gerber Fmt 4.6, Leading zero omitted, Abs format (unit mm)*
G04 Created by KiCad (PCBNEW (6.0.5)) date 2022-06-14 13:50:17*
%MOMM*%
%LPD*%
G01*
G04 APERTURE LIST*
G04 Aperture macros list*
%AMRoundRect*
0 Rectangle with rounded corners*
0 $1 Rounding radius*
0 $2 $3 $4 $5 $6 $7 $8 $9 X,Y pos of 4 corners*
0 Add a 4 corners polygon primitive as box body*
4,1,4,$2,$3,$4,$5,$6,$7,$8,$9,$2,$3,0*
0 Add four circle primitives for the rounded corners*
1,1,$1+$1,$2,$3*
1,1,$1+$1,$4,$5*
1,1,$1+$1,$6,$7*
1,1,$1+$1,$8,$9*
0 Add four rect primitives between the rounded corners*
20,1,$1+$1,$2,$3,$4,$5,0*
20,1,$1+$1,$4,$5,$6,$7,0*
20,1,$1+$1,$6,$7,$8,$9,0*
20,1,$1+$1,$8,$9,$2,$3,0*%
G04 Aperture macros list end*
%ADD10RoundRect,0.250000X-0.450000X0.262500X-0.450000X-0.262500X0.450000X-0.262500X0.450000X0.262500X0*%
%ADD11RoundRect,0.250000X0.262500X0.450000X-0.262500X0.450000X-0.262500X-0.450000X0.262500X-0.450000X0*%
%ADD12RoundRect,0.250000X-0.325000X-0.650000X0.325000X-0.650000X0.325000X0.650000X-0.325000X0.650000X0*%
%ADD13RoundRect,0.250000X-0.250000X-0.475000X0.250000X-0.475000X0.250000X0.475000X-0.250000X0.475000X0*%
%ADD14RoundRect,0.250000X0.650000X-0.325000X0.650000X0.325000X-0.650000X0.325000X-0.650000X-0.325000X0*%
%ADD15RoundRect,0.250000X0.250000X0.475000X-0.250000X0.475000X-0.250000X-0.475000X0.250000X-0.475000X0*%
%ADD16RoundRect,0.250000X-0.787500X-1.025000X0.787500X-1.025000X0.787500X1.025000X-0.787500X1.025000X0*%
%ADD17R,0.900000X1.000000*%
%ADD18RoundRect,0.250000X0.253488X0.253488X-0.253488X0.253488X-0.253488X-0.253488X0.253488X-0.253488X0*%
%ADD19RoundRect,0.050000X0.350000X0.050000X-0.350000X0.050000X-0.350000X-0.050000X0.350000X-0.050000X0*%
%ADD20RoundRect,0.050000X0.050000X0.350000X-0.050000X0.350000X-0.050000X-0.350000X0.050000X-0.350000X0*%
%ADD21R,1.100000X1.100000*%
%ADD22RoundRect,0.250000X0.475000X-0.250000X0.475000X0.250000X-0.475000X0.250000X-0.475000X-0.250000X0*%
%ADD23R,0.600000X1.450000*%
%ADD24R,0.300000X1.450000*%
%ADD25RoundRect,0.250000X-0.475000X0.250000X-0.475000X-0.250000X0.475000X-0.250000X0.475000X0.250000X0*%
G04 APERTURE END LIST*
D10*
%TO.C,RNTC1*%
X120954800Y-104270800D03*
X120954800Y-106095800D03*
%TD*%
D11*
%TO.C,RPMAX1*%
X122070500Y-102412800D03*
X120245500Y-102412800D03*
%TD*%
%TO.C,R18*%
X113790100Y-95834200D03*
X111965100Y-95834200D03*
%TD*%
D12*
%TO.C,C5*%
X147800800Y-96647000D03*
X150750800Y-96647000D03*
%TD*%
%TO.C,C7*%
X147826200Y-106934000D03*
X150776200Y-106934000D03*
%TD*%
D11*
%TO.C,R8*%
X123950100Y-88239600D03*
X122125100Y-88239600D03*
%TD*%
%TO.C,R12*%
X117676300Y-90703400D03*
X115851300Y-90703400D03*
%TD*%
D13*
%TO.C,D2*%
X108295400Y-87630000D03*
X110195400Y-87630000D03*
%TD*%
D11*
%TO.C,R16*%
X113815500Y-100838000D03*
X111990500Y-100838000D03*
%TD*%
D14*
%TO.C,C18*%
X113309400Y-80900800D03*
X113309400Y-77950800D03*
%TD*%
D11*
%TO.C,R11*%
X117676300Y-93192600D03*
X115851300Y-93192600D03*
%TD*%
D15*
%TO.C,C12*%
X126273600Y-85191600D03*
X124373600Y-85191600D03*
%TD*%
D13*
%TO.C,C11*%
X131028400Y-85191600D03*
X132928400Y-85191600D03*
%TD*%
D16*
%TO.C,C4*%
X128637500Y-111000000D03*
X134862500Y-111000000D03*
%TD*%
D17*
%TO.C,SW1*%
X118305800Y-84442400D03*
X114205800Y-84442400D03*
X114205800Y-86042400D03*
X118305800Y-86042400D03*
%TD*%
D18*
%TO.C,U1*%
X127832000Y-98228000D03*
X126632000Y-97028000D03*
X131432000Y-94628000D03*
X127832000Y-99428000D03*
X126632000Y-95828000D03*
X126632000Y-94628000D03*
X127832000Y-95828000D03*
X129032000Y-98228000D03*
X131432000Y-98228000D03*
X131432000Y-99428000D03*
X130232000Y-99428000D03*
X129032000Y-95828000D03*
X126632000Y-98228000D03*
X131432000Y-97028000D03*
X130232000Y-94628000D03*
X127832000Y-94628000D03*
X131432000Y-95828000D03*
X130232000Y-98228000D03*
X127832000Y-97028000D03*
X130232000Y-97028000D03*
X129032000Y-99428000D03*
X129032000Y-97028000D03*
X130232000Y-95828000D03*
X129032000Y-94628000D03*
X126632000Y-99428000D03*
D19*
X132982000Y-100028000D03*
X132982000Y-99628000D03*
X132982000Y-99228000D03*
X132982000Y-98828000D03*
X132982000Y-98428000D03*
X132982000Y-98028000D03*
X132982000Y-97628000D03*
X132982000Y-97228000D03*
X132982000Y-96828000D03*
X132982000Y-96428000D03*
X132982000Y-96028000D03*
X132982000Y-95628000D03*
X132982000Y-95228000D03*
X132982000Y-94828000D03*
X132982000Y-94428000D03*
X132982000Y-94028000D03*
D20*
X132032000Y-93078000D03*
X131632000Y-93078000D03*
X131232000Y-93078000D03*
X130832000Y-93078000D03*
X130432000Y-93078000D03*
X130032000Y-93078000D03*
X129632000Y-93078000D03*
X129232000Y-93078000D03*
X128832000Y-93078000D03*
X128432000Y-93078000D03*
X128032000Y-93078000D03*
X127632000Y-93078000D03*
X127232000Y-93078000D03*
X126832000Y-93078000D03*
X126432000Y-93078000D03*
X126032000Y-93078000D03*
D19*
X125082000Y-94028000D03*
X125082000Y-94428000D03*
X125082000Y-94828000D03*
X125082000Y-95228000D03*
X125082000Y-95628000D03*
X125082000Y-96028000D03*
X125082000Y-96428000D03*
X125082000Y-96828000D03*
X125082000Y-97228000D03*
X125082000Y-97628000D03*
X125082000Y-98028000D03*
X125082000Y-98428000D03*
X125082000Y-98828000D03*
X125082000Y-99228000D03*
X125082000Y-99628000D03*
X125082000Y-100028000D03*
D20*
X126032000Y-100978000D03*
X126432000Y-100978000D03*
X126832000Y-100978000D03*
X127232000Y-100978000D03*
X127632000Y-100978000D03*
X128032000Y-100978000D03*
X128432000Y-100978000D03*
X128832000Y-100978000D03*
X129232000Y-100978000D03*
X129632000Y-100978000D03*
X130032000Y-100978000D03*
X130432000Y-100978000D03*
X130832000Y-100978000D03*
X131232000Y-100978000D03*
X131632000Y-100978000D03*
X132032000Y-100978000D03*
%TD*%
D12*
%TO.C,C6*%
X147877000Y-104394000D03*
X150827000Y-104394000D03*
%TD*%
D11*
%TO.C,R19*%
X113815500Y-93218000D03*
X111990500Y-93218000D03*
%TD*%
D16*
%TO.C,C8*%
X144461500Y-100584000D03*
X150686500Y-100584000D03*
%TD*%
D21*
%TO.C,D3*%
X127130000Y-82321400D03*
X124330000Y-82321400D03*
%TD*%
D11*
%TO.C,R17*%
X113815500Y-98298000D03*
X111990500Y-98298000D03*
%TD*%
D16*
%TO.C,C16*%
X119569500Y-77851000D03*
X125794500Y-77851000D03*
%TD*%
%TO.C,C2*%
X138687500Y-110900000D03*
X144912500Y-110900000D03*
%TD*%
D15*
%TO.C,C14*%
X123555800Y-92938600D03*
X121655800Y-92938600D03*
%TD*%
%TO.C,C10*%
X135316000Y-90957400D03*
X133416000Y-90957400D03*
%TD*%
D11*
%TO.C,R10*%
X117930300Y-96316800D03*
X116105300Y-96316800D03*
%TD*%
%TO.C,R20*%
X113815500Y-90678000D03*
X111990500Y-90678000D03*
%TD*%
D22*
%TO.C,C15*%
X124053600Y-105420200D03*
X124053600Y-103520200D03*
%TD*%
D14*
%TO.C,C17*%
X116027200Y-80875400D03*
X116027200Y-77925400D03*
%TD*%
D13*
%TO.C,C13*%
X122087600Y-90424000D03*
X123987600Y-90424000D03*
%TD*%
D23*
%TO.C,J2*%
X140361600Y-117955000D03*
X141161600Y-117955000D03*
D24*
X142361600Y-117955000D03*
X143361600Y-117955000D03*
X143861600Y-117955000D03*
X144861600Y-117955000D03*
D23*
X146061600Y-117955000D03*
X146861600Y-117955000D03*
X146861600Y-117955000D03*
X146061600Y-117955000D03*
D24*
X145361600Y-117955000D03*
X144361600Y-117955000D03*
X142861600Y-117955000D03*
X141861600Y-117955000D03*
D23*
X141161600Y-117955000D03*
X140361600Y-117955000D03*
%TD*%
D11*
%TO.C,R3*%
X135253100Y-88823800D03*
X133428100Y-88823800D03*
%TD*%
D23*
%TO.C,J3*%
X127750000Y-117955000D03*
X128550000Y-117955000D03*
D24*
X129750000Y-117955000D03*
X130750000Y-117955000D03*
X131250000Y-117955000D03*
X132250000Y-117955000D03*
D23*
X133450000Y-117955000D03*
X134250000Y-117955000D03*
X134250000Y-117955000D03*
X133450000Y-117955000D03*
D24*
X132750000Y-117955000D03*
X131750000Y-117955000D03*
X130250000Y-117955000D03*
X129250000Y-117955000D03*
D23*
X128550000Y-117955000D03*
X127750000Y-117955000D03*
%TD*%
D25*
%TO.C,C22*%
X119811800Y-91810800D03*
X119811800Y-93710800D03*
%TD*%
D21*
%TO.C,D1*%
X131010200Y-82372200D03*
X133810200Y-82372200D03*
%TD*%
D11*
%TO.C,R15*%
X113815500Y-103505000D03*
X111990500Y-103505000D03*
%TD*%
M02*
