%TF.GenerationSoftware,KiCad,Pcbnew,(6.0.5)*%
%TF.CreationDate,2022-06-14T13:50:17+08:00*%
%TF.ProjectId,V4.0,56342e30-2e6b-4696-9361-645f70636258,rev?*%
%TF.SameCoordinates,Original*%
%TF.FileFunction,Copper,L1,Top*%
%TF.FilePolarity,Positive*%
%FSLAX46Y46*%
G04 Gerber Fmt 4.6, Leading zero omitted, Abs format (unit mm)*
G04 Created by KiCad (PCBNEW (6.0.5)) date 2022-06-14 13:50:17*
%MOMM*%
%LPD*%
G01*
G04 APERTURE LIST*
G04 Aperture macros list*
%AMRoundRect*
0 Rectangle with rounded corners*
0 $1 Rounding radius*
0 $2 $3 $4 $5 $6 $7 $8 $9 X,Y pos of 4 corners*
0 Add a 4 corners polygon primitive as box body*
4,1,4,$2,$3,$4,$5,$6,$7,$8,$9,$2,$3,0*
0 Add four circle primitives for the rounded corners*
1,1,$1+$1,$2,$3*
1,1,$1+$1,$4,$5*
1,1,$1+$1,$6,$7*
1,1,$1+$1,$8,$9*
0 Add four rect primitives between the rounded corners*
20,1,$1+$1,$2,$3,$4,$5,0*
20,1,$1+$1,$4,$5,$6,$7,0*
20,1,$1+$1,$6,$7,$8,$9,0*
20,1,$1+$1,$8,$9,$2,$3,0*%
G04 Aperture macros list end*
%TA.AperFunction,SMDPad,CuDef*%
%ADD10RoundRect,0.250000X-0.450000X0.262500X-0.450000X-0.262500X0.450000X-0.262500X0.450000X0.262500X0*%
%TD*%
%TA.AperFunction,SMDPad,CuDef*%
%ADD11RoundRect,0.250000X0.262500X0.450000X-0.262500X0.450000X-0.262500X-0.450000X0.262500X-0.450000X0*%
%TD*%
%TA.AperFunction,SMDPad,CuDef*%
%ADD12RoundRect,0.250000X-0.325000X-0.650000X0.325000X-0.650000X0.325000X0.650000X-0.325000X0.650000X0*%
%TD*%
%TA.AperFunction,SMDPad,CuDef*%
%ADD13RoundRect,0.250000X-0.250000X-0.475000X0.250000X-0.475000X0.250000X0.475000X-0.250000X0.475000X0*%
%TD*%
%TA.AperFunction,SMDPad,CuDef*%
%ADD14RoundRect,0.250000X0.650000X-0.325000X0.650000X0.325000X-0.650000X0.325000X-0.650000X-0.325000X0*%
%TD*%
%TA.AperFunction,SMDPad,CuDef*%
%ADD15RoundRect,0.250000X0.250000X0.475000X-0.250000X0.475000X-0.250000X-0.475000X0.250000X-0.475000X0*%
%TD*%
%TA.AperFunction,SMDPad,CuDef*%
%ADD16RoundRect,0.250000X-0.787500X-1.025000X0.787500X-1.025000X0.787500X1.025000X-0.787500X1.025000X0*%
%TD*%
%TA.AperFunction,SMDPad,CuDef*%
%ADD17R,0.900000X1.000000*%
%TD*%
%TA.AperFunction,SMDPad,CuDef*%
%ADD18RoundRect,0.050000X0.350000X0.050000X-0.350000X0.050000X-0.350000X-0.050000X0.350000X-0.050000X0*%
%TD*%
%TA.AperFunction,SMDPad,CuDef*%
%ADD19RoundRect,0.050000X0.050000X0.350000X-0.050000X0.350000X-0.050000X-0.350000X0.050000X-0.350000X0*%
%TD*%
%TA.AperFunction,ComponentPad*%
%ADD20C,0.500000*%
%TD*%
%TA.AperFunction,SMDPad,CuDef*%
%ADD21R,6.500000X6.500000*%
%TD*%
%TA.AperFunction,SMDPad,CuDef*%
%ADD22R,1.100000X1.100000*%
%TD*%
%TA.AperFunction,ComponentPad*%
%ADD23R,3.800000X3.800000*%
%TD*%
%TA.AperFunction,ComponentPad*%
%ADD24C,3.800000*%
%TD*%
%TA.AperFunction,SMDPad,CuDef*%
%ADD25RoundRect,0.250000X0.475000X-0.250000X0.475000X0.250000X-0.475000X0.250000X-0.475000X-0.250000X0*%
%TD*%
%TA.AperFunction,ComponentPad*%
%ADD26R,1.600000X1.600000*%
%TD*%
%TA.AperFunction,ComponentPad*%
%ADD27O,1.600000X1.600000*%
%TD*%
%TA.AperFunction,SMDPad,CuDef*%
%ADD28R,0.600000X1.450000*%
%TD*%
%TA.AperFunction,SMDPad,CuDef*%
%ADD29R,0.300000X1.450000*%
%TD*%
%TA.AperFunction,ComponentPad*%
%ADD30O,1.000000X2.100000*%
%TD*%
%TA.AperFunction,ComponentPad*%
%ADD31O,1.000000X1.600000*%
%TD*%
%TA.AperFunction,ComponentPad*%
%ADD32R,1.700000X1.700000*%
%TD*%
%TA.AperFunction,ComponentPad*%
%ADD33O,1.700000X1.700000*%
%TD*%
%TA.AperFunction,ComponentPad*%
%ADD34R,1.500000X1.500000*%
%TD*%
%TA.AperFunction,ComponentPad*%
%ADD35C,1.500000*%
%TD*%
%TA.AperFunction,ComponentPad*%
%ADD36C,3.000000*%
%TD*%
%TA.AperFunction,SMDPad,CuDef*%
%ADD37RoundRect,0.250000X-0.475000X0.250000X-0.475000X-0.250000X0.475000X-0.250000X0.475000X0.250000X0*%
%TD*%
%TA.AperFunction,ViaPad*%
%ADD38C,0.500000*%
%TD*%
%TA.AperFunction,ViaPad*%
%ADD39C,0.800000*%
%TD*%
%TA.AperFunction,ViaPad*%
%ADD40C,0.600000*%
%TD*%
%TA.AperFunction,Conductor*%
%ADD41C,0.200000*%
%TD*%
%TA.AperFunction,Conductor*%
%ADD42C,0.400000*%
%TD*%
%TA.AperFunction,Conductor*%
%ADD43C,0.250000*%
%TD*%
G04 APERTURE END LIST*
D10*
%TO.P,RNTC1,1*%
%TO.N,Net-(C15-Pad2)*%
X120954800Y-104270800D03*
%TO.P,RNTC1,2*%
%TO.N,-BATT*%
X120954800Y-106095800D03*
%TD*%
D11*
%TO.P,RPMAX1,1*%
%TO.N,Net-(RPMAX1-Pad1)*%
X122070500Y-102412800D03*
%TO.P,RPMAX1,2*%
%TO.N,-BATT*%
X120245500Y-102412800D03*
%TD*%
%TO.P,R18,1*%
%TO.N,/LED4*%
X113790100Y-95834200D03*
%TO.P,R18,2*%
%TO.N,Net-(J5-Pad4)*%
X111965100Y-95834200D03*
%TD*%
D12*
%TO.P,C5,1*%
%TO.N,/VSYS-OUT*%
X147800800Y-96647000D03*
%TO.P,C5,2*%
%TO.N,-BATT*%
X150750800Y-96647000D03*
%TD*%
%TO.P,C7,1*%
%TO.N,/VSYS-OUT*%
X147826200Y-106934000D03*
%TO.P,C7,2*%
%TO.N,-BATT*%
X150776200Y-106934000D03*
%TD*%
D11*
%TO.P,R8,1*%
%TO.N,Net-(C13-Pad2)*%
X123950100Y-88239600D03*
%TO.P,R8,2*%
%TO.N,/SYSOUTBAT*%
X122125100Y-88239600D03*
%TD*%
%TO.P,R12,1*%
%TO.N,Net-(R12-Pad1)*%
X117676300Y-90703400D03*
%TO.P,R12,2*%
%TO.N,-BATT*%
X115851300Y-90703400D03*
%TD*%
D13*
%TO.P,D2,1,K*%
%TO.N,Net-(D2-Pad1)*%
X108295400Y-87630000D03*
%TO.P,D2,2,A*%
%TO.N,Net-(D2-Pad2)*%
X110195400Y-87630000D03*
%TD*%
D11*
%TO.P,R16,1*%
%TO.N,/LED2*%
X113815500Y-100838000D03*
%TO.P,R16,2*%
%TO.N,Net-(J5-Pad2)*%
X111990500Y-100838000D03*
%TD*%
D14*
%TO.P,C18,1*%
%TO.N,+BATT*%
X113309400Y-80900800D03*
%TO.P,C18,2*%
%TO.N,-BATT*%
X113309400Y-77950800D03*
%TD*%
D11*
%TO.P,R11,1*%
%TO.N,Net-(R11-Pad1)*%
X117676300Y-93192600D03*
%TO.P,R11,2*%
%TO.N,-BATT*%
X115851300Y-93192600D03*
%TD*%
D15*
%TO.P,C12,1*%
%TO.N,Net-(C12-Pad1)*%
X126273600Y-85191600D03*
%TO.P,C12,2*%
%TO.N,/HbridgeL*%
X124373600Y-85191600D03*
%TD*%
D13*
%TO.P,C11,1*%
%TO.N,Net-(C11-Pad1)*%
X131028400Y-85191600D03*
%TO.P,C11,2*%
%TO.N,/HbridgeR*%
X132928400Y-85191600D03*
%TD*%
D16*
%TO.P,C4,1*%
%TO.N,-BATT*%
X128637500Y-111000000D03*
%TO.P,C4,2*%
%TO.N,/CCOUT*%
X134862500Y-111000000D03*
%TD*%
D17*
%TO.P,SW1,1,1*%
%TO.N,Net-(R5-Pad1)*%
X118305800Y-84442400D03*
X114205800Y-84442400D03*
%TO.P,SW1,2,2*%
%TO.N,Net-(D2-Pad2)*%
X114205800Y-86042400D03*
X118305800Y-86042400D03*
%TD*%
D18*
%TO.P,U1,1,Lt*%
%TO.N,unconnected-(U1-Pad1)*%
X132982000Y-100028000D03*
%TO.P,U1,2,CC3*%
%TO.N,/CIO2_CC1*%
X132982000Y-99628000D03*
%TO.P,U1,3,DPB*%
%TO.N,/DPB*%
X132982000Y-99228000D03*
%TO.P,U1,4,DMB*%
%TO.N,/DMB*%
X132982000Y-98828000D03*
%TO.P,U1,5,CC4*%
%TO.N,/CIO2_CC2*%
X132982000Y-98428000D03*
%TO.P,U1,6,GPIO9*%
%TO.N,/EMK_CRTL1*%
X132982000Y-98028000D03*
%TO.P,U1,7,GPIO10*%
%TO.N,/EMK_CRTL2*%
X132982000Y-97628000D03*
%TO.P,U1,8,BAT_S1*%
%TO.N,Net-(SW2-Pad1)*%
X132982000Y-97228000D03*
%TO.P,U1,9,BAT_S2*%
%TO.N,Net-(SW2-Pad2)*%
X132982000Y-96828000D03*
%TO.P,U1,10,VIN*%
%TO.N,/CMOut*%
X132982000Y-96428000D03*
%TO.P,U1,11,VIN_Gate*%
%TO.N,Net-(Q1-Pad2)*%
X132982000Y-96028000D03*
%TO.P,U1,12,VIN_I*%
%TO.N,/VSYS-OUT*%
X132982000Y-95628000D03*
%TO.P,U1,13,VBUS*%
%TO.N,/CCOUT*%
X132982000Y-95228000D03*
%TO.P,U1,14,VBUS_Gate*%
%TO.N,Net-(Q1-Pad4)*%
X132982000Y-94828000D03*
%TO.P,U1,15,VBUS_I*%
%TO.N,/VSYS-OUT*%
X132982000Y-94428000D03*
%TO.P,U1,16,AGND*%
%TO.N,-BATT*%
X132982000Y-94028000D03*
D19*
%TO.P,U1,17,VIO*%
%TO.N,/VSYS-OUT*%
X132032000Y-93078000D03*
%TO.P,U1,18,CSP1*%
X131632000Y-93078000D03*
%TO.P,U1,19,CSN1*%
%TO.N,Net-(C10-Pad2)*%
X131232000Y-93078000D03*
%TO.P,U1,20,PCIN*%
%TO.N,/SYSOUT*%
X130832000Y-93078000D03*
%TO.P,U1,21,HG1*%
%TO.N,Net-(Q2-Pad2)*%
X130432000Y-93078000D03*
%TO.P,U1,22,BST1*%
%TO.N,Net-(C11-Pad1)*%
X130032000Y-93078000D03*
%TO.P,U1,23,LX1*%
%TO.N,/HbridgeR*%
X129632000Y-93078000D03*
%TO.P,U1,24,LG1*%
%TO.N,Net-(Q2-Pad4)*%
X129232000Y-93078000D03*
%TO.P,U1,25,LG2*%
%TO.N,Net-(Q4-Pad2)*%
X128832000Y-93078000D03*
%TO.P,U1,26,LX2*%
%TO.N,/HbridgeL*%
X128432000Y-93078000D03*
%TO.P,U1,27,BST2*%
%TO.N,Net-(C12-Pad1)*%
X128032000Y-93078000D03*
%TO.P,U1,28,HG2*%
%TO.N,Net-(Q4-Pad4)*%
X127632000Y-93078000D03*
%TO.P,U1,29,PCON*%
%TO.N,/SYSOUTBAT*%
X127232000Y-93078000D03*
%TO.P,U1,30,CSN2*%
%TO.N,Net-(C13-Pad2)*%
X126832000Y-93078000D03*
%TO.P,U1,31,CSP2*%
%TO.N,+BATT*%
X126432000Y-93078000D03*
%TO.P,U1,32,BAT*%
X126032000Y-93078000D03*
D18*
%TO.P,U1,33,LX*%
%TO.N,unconnected-(U1-Pad33)*%
X125082000Y-94028000D03*
%TO.P,U1,34,VCC5V*%
%TO.N,Net-(C14-Pad1)*%
X125082000Y-94428000D03*
%TO.P,U1,35,AGND*%
%TO.N,-BATT*%
X125082000Y-94828000D03*
%TO.P,U1,36,KEY*%
%TO.N,Net-(D2-Pad2)*%
X125082000Y-95228000D03*
%TO.P,U1,37,VCCIO*%
%TO.N,Net-(C22-Pad2)*%
X125082000Y-95628000D03*
%TO.P,U1,38,LED6*%
%TO.N,/LED6*%
X125082000Y-96028000D03*
%TO.P,U1,39,NTC_MODE*%
%TO.N,Net-(R12-Pad1)*%
X125082000Y-96428000D03*
%TO.P,U1,40,FCAP*%
%TO.N,Net-(R11-Pad1)*%
X125082000Y-96828000D03*
%TO.P,U1,41,VSET*%
%TO.N,Net-(R10-Pad1)*%
X125082000Y-97228000D03*
%TO.P,U1,42,IGND*%
%TO.N,unconnected-(U1-Pad42)*%
X125082000Y-97628000D03*
%TO.P,U1,43,ISENSE*%
%TO.N,unconnected-(U1-Pad43)*%
X125082000Y-98028000D03*
%TO.P,U1,44,LED5*%
%TO.N,/LED5*%
X125082000Y-98428000D03*
%TO.P,U1,45,LED4*%
%TO.N,/LED4*%
X125082000Y-98828000D03*
%TO.P,U1,46,LED3*%
%TO.N,/LED3*%
X125082000Y-99228000D03*
%TO.P,U1,47,LED2*%
%TO.N,/LED2*%
X125082000Y-99628000D03*
%TO.P,U1,48,LED1*%
%TO.N,/LED1*%
X125082000Y-100028000D03*
D19*
%TO.P,U1,49,PMAX*%
%TO.N,Net-(RPMAX1-Pad1)*%
X126032000Y-100978000D03*
%TO.P,U1,50,NTC*%
%TO.N,Net-(C15-Pad2)*%
X126432000Y-100978000D03*
%TO.P,U1,51,CC2*%
%TO.N,/CIO1_CC2*%
X126832000Y-100978000D03*
%TO.P,U1,52,DPC*%
%TO.N,/DPC*%
X127232000Y-100978000D03*
%TO.P,U1,53,DMC*%
%TO.N,/DMC*%
X127632000Y-100978000D03*
%TO.P,U1,54,CC1*%
%TO.N,/CIO1_CC1*%
X128032000Y-100978000D03*
%TO.P,U1,55,DPA1*%
%TO.N,Net-(J1-Pad3)*%
X128432000Y-100978000D03*
%TO.P,U1,56,DMA1*%
%TO.N,Net-(J1-Pad2)*%
X128832000Y-100978000D03*
%TO.P,U1,57,VOUT1*%
%TO.N,/AOUT1*%
X129232000Y-100978000D03*
%TO.P,U1,58,VOUT1_G*%
%TO.N,Net-(Q3-Pad2)*%
X129632000Y-100978000D03*
%TO.P,U1,59,VOUT1_I*%
%TO.N,/VSYS-OUT*%
X130032000Y-100978000D03*
%TO.P,U1,60,DPA2*%
%TO.N,Net-(J1-Pad7)*%
X130432000Y-100978000D03*
%TO.P,U1,61,DMA2*%
%TO.N,Net-(J1-Pad6)*%
X130832000Y-100978000D03*
%TO.P,U1,62,VOUT2*%
%TO.N,/AOUT2*%
X131232000Y-100978000D03*
%TO.P,U1,63,VOUT2_G*%
%TO.N,Net-(Q3-Pad4)*%
X131632000Y-100978000D03*
%TO.P,U1,64,VOUT2_I*%
%TO.N,/VSYS-OUT*%
X132032000Y-100978000D03*
D20*
%TO.P,U1,65,GND_EPAD*%
%TO.N,-BATT*%
X128432000Y-97628000D03*
X127232000Y-96428000D03*
X126032000Y-100028000D03*
X127232000Y-95228000D03*
X130832000Y-94028000D03*
X128432000Y-96428000D03*
X128432000Y-95228000D03*
X128432000Y-100028000D03*
X132032000Y-95228000D03*
X130832000Y-100028000D03*
X132032000Y-94028000D03*
X126032000Y-94028000D03*
X132032000Y-98828000D03*
X129632000Y-97628000D03*
X130832000Y-97628000D03*
X127232000Y-97628000D03*
X127232000Y-100028000D03*
X127232000Y-94028000D03*
X129632000Y-94028000D03*
X129632000Y-95228000D03*
X132032000Y-96428000D03*
X126032000Y-97628000D03*
X128432000Y-94028000D03*
X127232000Y-98828000D03*
X129632000Y-96428000D03*
X132032000Y-97628000D03*
X130832000Y-95228000D03*
D21*
X129032000Y-97028000D03*
D20*
X129632000Y-98828000D03*
X126032000Y-96428000D03*
X126032000Y-98828000D03*
X130832000Y-96428000D03*
X128432000Y-98828000D03*
X130832000Y-98828000D03*
X132032000Y-100028000D03*
X129632000Y-100028000D03*
X126032000Y-95228000D03*
%TD*%
D12*
%TO.P,C6,1*%
%TO.N,/VSYS-OUT*%
X147877000Y-104394000D03*
%TO.P,C6,2*%
%TO.N,-BATT*%
X150827000Y-104394000D03*
%TD*%
D11*
%TO.P,R19,1*%
%TO.N,/LED5*%
X113815500Y-93218000D03*
%TO.P,R19,2*%
%TO.N,Net-(J5-Pad5)*%
X111990500Y-93218000D03*
%TD*%
D16*
%TO.P,C8,1*%
%TO.N,/VSYS-OUT*%
X144461500Y-100584000D03*
%TO.P,C8,2*%
%TO.N,-BATT*%
X150686500Y-100584000D03*
%TD*%
D22*
%TO.P,D3,1,K*%
%TO.N,Net-(C12-Pad1)*%
X127130000Y-82321400D03*
%TO.P,D3,2,A*%
%TO.N,-BATT*%
X124330000Y-82321400D03*
%TD*%
D11*
%TO.P,R17,1*%
%TO.N,/LED3*%
X113815500Y-98298000D03*
%TO.P,R17,2*%
%TO.N,Net-(J5-Pad3)*%
X111990500Y-98298000D03*
%TD*%
D23*
%TO.P,J4,1,GND*%
%TO.N,-BATT*%
X108534200Y-77992600D03*
D24*
%TO.P,J4,2,P*%
%TO.N,+BATT*%
X108534200Y-82992600D03*
%TD*%
D16*
%TO.P,C16,1*%
%TO.N,+BATT*%
X119569500Y-77851000D03*
%TO.P,C16,2*%
%TO.N,-BATT*%
X125794500Y-77851000D03*
%TD*%
%TO.P,C2,1*%
%TO.N,-BATT*%
X138687500Y-110900000D03*
%TO.P,C2,2*%
%TO.N,/CMOut*%
X144912500Y-110900000D03*
%TD*%
D15*
%TO.P,C14,1*%
%TO.N,Net-(C14-Pad1)*%
X123555800Y-92938600D03*
%TO.P,C14,2*%
%TO.N,-BATT*%
X121655800Y-92938600D03*
%TD*%
%TO.P,C10,1*%
%TO.N,/VSYS-OUT*%
X135316000Y-90957400D03*
%TO.P,C10,2*%
%TO.N,Net-(C10-Pad2)*%
X133416000Y-90957400D03*
%TD*%
D11*
%TO.P,R10,1*%
%TO.N,Net-(R10-Pad1)*%
X117930300Y-96316800D03*
%TO.P,R10,2*%
%TO.N,-BATT*%
X116105300Y-96316800D03*
%TD*%
%TO.P,R20,1*%
%TO.N,/LED6*%
X113815500Y-90678000D03*
%TO.P,R20,2*%
%TO.N,Net-(J5-Pad6)*%
X111990500Y-90678000D03*
%TD*%
D25*
%TO.P,C15,1*%
%TO.N,-BATT*%
X124053600Y-105420200D03*
%TO.P,C15,2*%
%TO.N,Net-(C15-Pad2)*%
X124053600Y-103520200D03*
%TD*%
D14*
%TO.P,C17,1*%
%TO.N,+BATT*%
X116027200Y-80875400D03*
%TO.P,C17,2*%
%TO.N,-BATT*%
X116027200Y-77925400D03*
%TD*%
D13*
%TO.P,C13,1*%
%TO.N,+BATT*%
X122087600Y-90424000D03*
%TO.P,C13,2*%
%TO.N,Net-(C13-Pad2)*%
X123987600Y-90424000D03*
%TD*%
D26*
%TO.P,SW2,1*%
%TO.N,Net-(SW2-Pad1)*%
X143103600Y-88366600D03*
D27*
%TO.P,SW2,2*%
%TO.N,Net-(SW2-Pad2)*%
X143103600Y-90906600D03*
%TO.P,SW2,3*%
%TO.N,-BATT*%
X150723600Y-90906600D03*
%TO.P,SW2,4*%
X150723600Y-88366600D03*
%TD*%
D28*
%TO.P,J2,A1,GND*%
%TO.N,-BATT*%
X140361600Y-117955000D03*
%TO.P,J2,A4,VBUS*%
%TO.N,/CMOut*%
X141161600Y-117955000D03*
D29*
%TO.P,J2,A5,CC1*%
%TO.N,/CIO2_CC1*%
X142361600Y-117955000D03*
%TO.P,J2,A6,DP*%
%TO.N,/DPB*%
X143361600Y-117955000D03*
%TO.P,J2,A7,DM*%
%TO.N,/DMB*%
X143861600Y-117955000D03*
%TO.P,J2,A8*%
%TO.N,N/C*%
X144861600Y-117955000D03*
D28*
%TO.P,J2,A9,VBUS*%
%TO.N,/CMOut*%
X146061600Y-117955000D03*
%TO.P,J2,A12,GND*%
%TO.N,-BATT*%
X146861600Y-117955000D03*
%TO.P,J2,B1,GND*%
X146861600Y-117955000D03*
%TO.P,J2,B4,VBUS*%
%TO.N,/CMOut*%
X146061600Y-117955000D03*
D29*
%TO.P,J2,B5,CC2*%
%TO.N,/CIO2_CC2*%
X145361600Y-117955000D03*
%TO.P,J2,B6,DP2*%
%TO.N,/DPB*%
X144361600Y-117955000D03*
%TO.P,J2,B7,DM2*%
%TO.N,/DMB*%
X142861600Y-117955000D03*
%TO.P,J2,B8*%
%TO.N,N/C*%
X141861600Y-117955000D03*
D28*
%TO.P,J2,B9,VBUS*%
%TO.N,/CMOut*%
X141161600Y-117955000D03*
%TO.P,J2,B12,GND*%
%TO.N,-BATT*%
X140361600Y-117955000D03*
D30*
%TO.P,J2,S1,SHELL*%
X147931600Y-118870000D03*
D31*
X147931600Y-123050000D03*
D30*
X139291600Y-118870000D03*
D31*
X139291600Y-123050000D03*
%TD*%
D11*
%TO.P,R3,1*%
%TO.N,/SYSOUT*%
X135253100Y-88823800D03*
%TO.P,R3,2*%
%TO.N,Net-(C10-Pad2)*%
X133428100Y-88823800D03*
%TD*%
D32*
%TO.P,J5,1,Pin_1*%
%TO.N,Net-(J5-Pad1)*%
X109220000Y-103378000D03*
D33*
%TO.P,J5,2,Pin_2*%
%TO.N,Net-(J5-Pad2)*%
X109220000Y-100838000D03*
%TO.P,J5,3,Pin_3*%
%TO.N,Net-(J5-Pad3)*%
X109220000Y-98298000D03*
%TO.P,J5,4,Pin_4*%
%TO.N,Net-(J5-Pad4)*%
X109220000Y-95758000D03*
%TO.P,J5,5,Pin_5*%
%TO.N,Net-(J5-Pad5)*%
X109220000Y-93218000D03*
%TO.P,J5,6,Pin_6*%
%TO.N,Net-(J5-Pad6)*%
X109220000Y-90678000D03*
%TD*%
D34*
%TO.P,J1,1,VBUS1*%
%TO.N,/AOUT1*%
X112832000Y-109325000D03*
D35*
%TO.P,J1,2,D1-*%
%TO.N,Net-(J1-Pad2)*%
X115332000Y-109325000D03*
%TO.P,J1,3,D1+*%
%TO.N,Net-(J1-Pad3)*%
X117332000Y-109325000D03*
%TO.P,J1,4,GND1*%
%TO.N,-BATT*%
X119832000Y-109325000D03*
%TO.P,J1,5,VBUS2*%
%TO.N,/AOUT2*%
X112832000Y-111945000D03*
%TO.P,J1,6,D2-*%
%TO.N,Net-(J1-Pad6)*%
X115332000Y-111945000D03*
%TO.P,J1,7,D2+*%
%TO.N,Net-(J1-Pad7)*%
X117332000Y-111945000D03*
%TO.P,J1,8,GND2*%
%TO.N,-BATT*%
X119832000Y-111945000D03*
D36*
%TO.P,J1,9,Shield*%
X122902000Y-108975000D03*
X109762000Y-114655000D03*
X122902000Y-114655000D03*
X109762000Y-108975000D03*
%TD*%
D28*
%TO.P,J3,A1,GND*%
%TO.N,-BATT*%
X127750000Y-117955000D03*
%TO.P,J3,A4,VBUS*%
%TO.N,/CCOUT*%
X128550000Y-117955000D03*
D29*
%TO.P,J3,A5,CC1*%
%TO.N,/CIO1_CC1*%
X129750000Y-117955000D03*
%TO.P,J3,A6,DP*%
%TO.N,/DPC*%
X130750000Y-117955000D03*
%TO.P,J3,A7,DM*%
%TO.N,/DMC*%
X131250000Y-117955000D03*
%TO.P,J3,A8*%
%TO.N,N/C*%
X132250000Y-117955000D03*
D28*
%TO.P,J3,A9,VBUS*%
%TO.N,/CCOUT*%
X133450000Y-117955000D03*
%TO.P,J3,A12,GND*%
%TO.N,-BATT*%
X134250000Y-117955000D03*
%TO.P,J3,B1,GND*%
X134250000Y-117955000D03*
%TO.P,J3,B4,VBUS*%
%TO.N,/CCOUT*%
X133450000Y-117955000D03*
D29*
%TO.P,J3,B5,CC2*%
%TO.N,/CIO1_CC2*%
X132750000Y-117955000D03*
%TO.P,J3,B6,DP2*%
%TO.N,/DPC*%
X131750000Y-117955000D03*
%TO.P,J3,B7,DM2*%
%TO.N,/DMC*%
X130250000Y-117955000D03*
%TO.P,J3,B8*%
%TO.N,N/C*%
X129250000Y-117955000D03*
D28*
%TO.P,J3,B9,VBUS*%
%TO.N,/CCOUT*%
X128550000Y-117955000D03*
%TO.P,J3,B12,GND*%
%TO.N,-BATT*%
X127750000Y-117955000D03*
D30*
%TO.P,J3,S1,SHELL*%
X126680000Y-118870000D03*
X135320000Y-118870000D03*
D31*
X135320000Y-123050000D03*
X126680000Y-123050000D03*
%TD*%
D37*
%TO.P,C22,1*%
%TO.N,-BATT*%
X119811800Y-91810800D03*
%TO.P,C22,2*%
%TO.N,Net-(C22-Pad2)*%
X119811800Y-93710800D03*
%TD*%
D22*
%TO.P,D1,1,K*%
%TO.N,Net-(C11-Pad1)*%
X131010200Y-82372200D03*
%TO.P,D1,2,A*%
%TO.N,-BATT*%
X133810200Y-82372200D03*
%TD*%
D11*
%TO.P,R15,1*%
%TO.N,/LED1*%
X113815500Y-103505000D03*
%TO.P,R15,2*%
%TO.N,Net-(J5-Pad1)*%
X111990500Y-103505000D03*
%TD*%
D38*
%TO.N,-BATT*%
X148259800Y-80721200D03*
X138074400Y-92100400D03*
X119811800Y-92735400D03*
X149021800Y-80721200D03*
X147472400Y-80746600D03*
X137769600Y-85877400D03*
X120269000Y-85928200D03*
D39*
X107365800Y-90551000D03*
D38*
X111531400Y-85877400D03*
X150749000Y-95250000D03*
X150114000Y-95250000D03*
X116103400Y-95173800D03*
%TO.N,/AOUT1*%
X132969000Y-108077000D03*
%TO.N,/CMOut*%
X137287000Y-100457000D03*
X136140400Y-95942600D03*
%TO.N,/AOUT2*%
X135458200Y-106172000D03*
D40*
X125577600Y-106095800D03*
D39*
X118491000Y-119126000D03*
D38*
%TO.N,/CCOUT*%
X135444015Y-94289345D03*
X133731000Y-115697000D03*
%TO.N,/VSYS-OUT*%
X146812000Y-107315000D03*
X134061200Y-101904800D03*
X146050000Y-101346000D03*
X146812000Y-106426000D03*
X145567400Y-80899000D03*
X140843000Y-97367500D03*
X146812000Y-96647000D03*
X146812000Y-102997000D03*
X146812000Y-97409000D03*
X146050000Y-99949000D03*
X132080000Y-104013000D03*
X146812000Y-103759000D03*
X141334900Y-108027000D03*
%TO.N,/HbridgeR*%
X129235200Y-86106000D03*
X133705600Y-85318600D03*
%TO.N,/HbridgeL*%
X128524000Y-86131400D03*
X123342400Y-85344000D03*
%TO.N,+BATT*%
X111734600Y-88874600D03*
%TO.N,Net-(D2-Pad1)*%
X107238800Y-87020400D03*
%TO.N,Net-(D2-Pad2)*%
X122682000Y-94615000D03*
X120624600Y-89103200D03*
%TO.N,Net-(J1-Pad2)*%
X119761000Y-104165400D03*
X130556000Y-105791000D03*
%TO.N,Net-(J1-Pad3)*%
X119761000Y-105156000D03*
X129429873Y-105596327D03*
%TO.N,Net-(J1-Pad6)*%
X131131011Y-102616984D03*
%TO.N,Net-(J1-Pad7)*%
X130581500Y-103200200D03*
%TO.N,/DPB*%
X143450000Y-119800000D03*
X144600000Y-119400000D03*
%TO.N,/CIO1_CC1*%
X130095650Y-115104350D03*
X132617500Y-110896400D03*
%TO.N,/DPC*%
X130400000Y-116780498D03*
X131800000Y-119400000D03*
%TO.N,/CIO1_CC2*%
X132617500Y-116560600D03*
X131018500Y-111887000D03*
%TO.N,Net-(Q1-Pad2)*%
X136789900Y-95393100D03*
%TO.N,Net-(Q1-Pad4)*%
X135331200Y-93599000D03*
%TO.N,Net-(Q2-Pad2)*%
X130819219Y-88232072D03*
%TO.N,Net-(Q2-Pad4)*%
X129260600Y-86969600D03*
%TO.N,/SYSOUT*%
X139904000Y-81788000D03*
%TO.N,Net-(Q3-Pad2)*%
X135509000Y-107416600D03*
%TO.N,Net-(Q3-Pad4)*%
X134747000Y-104267000D03*
%TO.N,Net-(Q4-Pad2)*%
X128535837Y-86972874D03*
%TO.N,Net-(Q4-Pad4)*%
X126873000Y-88341200D03*
%TO.N,/SYSOUTBAT*%
X117779800Y-81584800D03*
%TO.N,/EMK_CRTL1*%
X148767800Y-114427000D03*
%TO.N,/EMK_CRTL2*%
X148666200Y-110490000D03*
D39*
%TO.N,Net-(R5-Pad1)*%
X113156298Y-85902800D03*
D38*
%TO.N,/LED6*%
X120142000Y-94869000D03*
X113741200Y-90678000D03*
%TD*%
D41*
%TO.N,-BATT*%
X132982000Y-94028000D02*
X132032000Y-94028000D01*
X125082000Y-94828000D02*
X126832000Y-94828000D01*
X137769600Y-85877400D02*
X138049000Y-86156800D01*
D42*
X119811800Y-91810800D02*
X119811800Y-92735400D01*
D41*
X138049000Y-86156800D02*
X138049000Y-92075000D01*
X138049000Y-92075000D02*
X138074400Y-92100400D01*
X126832000Y-94828000D02*
X129032000Y-97028000D01*
%TO.N,/AOUT1*%
X129232000Y-104007741D02*
X129232000Y-100978000D01*
X132969000Y-107315000D02*
X130566234Y-104912234D01*
X130566234Y-104912234D02*
X130136493Y-104912234D01*
X132969000Y-108077000D02*
X132969000Y-107315000D01*
X130136493Y-104912234D02*
X129232000Y-104007741D01*
D42*
%TO.N,/CMOut*%
X142000000Y-120350000D02*
X142550000Y-120900000D01*
X144246600Y-106863240D02*
X144246600Y-109169200D01*
D41*
X136140400Y-95942600D02*
X135655000Y-96428000D01*
D42*
X144912500Y-109835100D02*
X144912500Y-110900000D01*
X144912500Y-112591000D02*
X145987000Y-113665500D01*
X137840360Y-100457000D02*
X144246600Y-106863240D01*
X145250000Y-120250000D02*
X145250000Y-119730209D01*
D41*
X135655000Y-96428000D02*
X132982000Y-96428000D01*
D42*
X141161600Y-117955000D02*
X141161600Y-118918609D01*
X142550000Y-120900000D02*
X144600000Y-120900000D01*
X137287000Y-100457000D02*
X137840360Y-100457000D01*
X144912500Y-110900000D02*
X144912500Y-112591000D01*
X145250000Y-119730209D02*
X146061600Y-118918609D01*
X145987000Y-113665500D02*
X145987000Y-118108000D01*
X144246600Y-109169200D02*
X144912500Y-109835100D01*
X146061600Y-118918609D02*
X146061600Y-117955000D01*
X144600000Y-120900000D02*
X145250000Y-120250000D01*
X142000000Y-119757009D02*
X142000000Y-120350000D01*
X141161600Y-118918609D02*
X142000000Y-119757009D01*
%TO.N,/AOUT2*%
X124180600Y-111556800D02*
X124358400Y-111556800D01*
X119456200Y-114249200D02*
X119837200Y-114249200D01*
X114452400Y-114249200D02*
X119456200Y-114249200D01*
D41*
X135458200Y-106121200D02*
X131232000Y-101895000D01*
D42*
X113538000Y-113334800D02*
X114452400Y-114249200D01*
X119837200Y-114249200D02*
X120827800Y-113258600D01*
X122529600Y-111556800D02*
X124180600Y-111556800D01*
X124358400Y-111556800D02*
X125374400Y-110540800D01*
X119456200Y-118160800D02*
X119456200Y-114249200D01*
X120827800Y-113258600D02*
X122529600Y-111556800D01*
X112832000Y-111945000D02*
X112832000Y-112628800D01*
X125577600Y-110337600D02*
X125577600Y-106095800D01*
X118491000Y-119126000D02*
X119456200Y-118160800D01*
D41*
X131232000Y-101895000D02*
X131232000Y-100978000D01*
X135458200Y-106172000D02*
X135458200Y-106121200D01*
D42*
X112832000Y-112628800D02*
X113538000Y-113334800D01*
X125374400Y-110540800D02*
X125577600Y-110337600D01*
%TO.N,/CCOUT*%
X134747000Y-111115500D02*
X134862500Y-111000000D01*
X131968609Y-120400000D02*
X130200489Y-120400000D01*
X133731000Y-115697000D02*
X133450000Y-115978000D01*
X133731000Y-115697000D02*
X134747000Y-114681000D01*
D41*
X134505360Y-95228000D02*
X132982000Y-95228000D01*
D42*
X128550000Y-118749511D02*
X128550000Y-117955000D01*
X133450000Y-117955000D02*
X133450000Y-118918609D01*
D41*
X135444015Y-94289345D02*
X134505360Y-95228000D01*
D42*
X134747000Y-114681000D02*
X134747000Y-111115500D01*
X130200489Y-120400000D02*
X128550000Y-118749511D01*
X133450000Y-115978000D02*
X133450000Y-117955000D01*
X133450000Y-118918609D02*
X131968609Y-120400000D01*
D41*
%TO.N,/VSYS-OUT*%
X136144000Y-86261503D02*
X136144000Y-90437000D01*
X134670366Y-95628000D02*
X132982000Y-95628000D01*
X140158000Y-108027000D02*
X141334900Y-108027000D01*
X133638600Y-94428000D02*
X133908800Y-94157800D01*
X136144000Y-90437000D02*
X134125000Y-92456000D01*
X133134400Y-100978000D02*
X132032000Y-100978000D01*
X132334000Y-92456000D02*
X132032000Y-92758000D01*
X134125000Y-92456000D02*
X132334000Y-92456000D01*
X133908800Y-94157800D02*
X133908800Y-93497400D01*
X145567400Y-80899000D02*
X143000889Y-83465511D01*
X138319100Y-94843600D02*
X135454766Y-94843600D01*
X133489400Y-93078000D02*
X132032000Y-93078000D01*
X135454766Y-94843600D02*
X134670366Y-95628000D01*
X132032000Y-92758000D02*
X132032000Y-93078000D01*
X134061200Y-101904800D02*
X134061200Y-101930200D01*
X131632000Y-93078000D02*
X132032000Y-93078000D01*
X134061200Y-101904800D02*
X133134400Y-100978000D01*
X140843000Y-97367500D02*
X138319100Y-94843600D01*
X143000889Y-83465511D02*
X138939992Y-83465511D01*
X132982000Y-94428000D02*
X133638600Y-94428000D01*
X130617173Y-104013000D02*
X130032000Y-103427827D01*
X130032000Y-103427827D02*
X130032000Y-100978000D01*
X133908800Y-93497400D02*
X133489400Y-93078000D01*
X132080000Y-104013000D02*
X130617173Y-104013000D01*
X134061200Y-101930200D02*
X140158000Y-108027000D01*
X138939992Y-83465511D02*
X136144000Y-86261503D01*
%TO.N,Net-(C10-Pad2)*%
X132858305Y-90957400D02*
X131232000Y-92583705D01*
X131232000Y-92583705D02*
X131232000Y-93078000D01*
X133416000Y-90957400D02*
X132858305Y-90957400D01*
D43*
X133428100Y-90945300D02*
X133416000Y-90957400D01*
X133428100Y-88823800D02*
X133428100Y-90945300D01*
D41*
%TO.N,Net-(C11-Pad1)*%
X130031520Y-89100486D02*
X130031520Y-93078480D01*
D42*
X131010200Y-82372200D02*
X131028400Y-82390400D01*
D41*
X131028400Y-85191600D02*
X130269719Y-85950281D01*
X130031520Y-93078480D02*
X130032000Y-93078000D01*
X130269719Y-88862287D02*
X130031520Y-89100486D01*
X130269719Y-85950281D02*
X130269719Y-88862287D01*
D42*
X131028400Y-82390400D02*
X131028400Y-85191600D01*
D41*
%TO.N,/HbridgeR*%
X129632000Y-88935000D02*
X129632000Y-93078000D01*
X129235200Y-86106000D02*
X129870200Y-86741000D01*
X129870200Y-88696800D02*
X129632000Y-88935000D01*
D42*
X133055400Y-85318600D02*
X132928400Y-85191600D01*
X133705600Y-85318600D02*
X133055400Y-85318600D01*
D41*
X129870200Y-86741000D02*
X129870200Y-88696800D01*
%TO.N,Net-(C12-Pad1)*%
X128032480Y-93077520D02*
X128032000Y-93078000D01*
X127430000Y-85824800D02*
X127430000Y-88770000D01*
X126949200Y-85344000D02*
X127430000Y-85824800D01*
X128032480Y-89372480D02*
X128032480Y-93077520D01*
D42*
X126273600Y-83177800D02*
X126273600Y-85191600D01*
D41*
X126124000Y-85344000D02*
X126949200Y-85344000D01*
X127430000Y-88770000D02*
X128032480Y-89372480D01*
D42*
X127130000Y-82321400D02*
X126273600Y-83177800D01*
D41*
%TO.N,/HbridgeL*%
X128432480Y-89270920D02*
X128432000Y-89271400D01*
X127983063Y-86672337D02*
X127983063Y-88510986D01*
X127983063Y-88510986D02*
X128432480Y-88960403D01*
D42*
X124221200Y-85344000D02*
X124373600Y-85191600D01*
X123342400Y-85344000D02*
X124221200Y-85344000D01*
D41*
X128524000Y-86131400D02*
X127983063Y-86672337D01*
X128432000Y-89271400D02*
X128432000Y-93078000D01*
X128432480Y-88960403D02*
X128432480Y-89270920D01*
%TO.N,+BATT*%
X111734600Y-88874600D02*
X112064800Y-89204800D01*
X126032000Y-92453200D02*
X125298200Y-91719400D01*
X121168273Y-90424000D02*
X122087600Y-90424000D01*
X112064800Y-89204800D02*
X119949073Y-89204800D01*
X119949073Y-89204800D02*
X121168273Y-90424000D01*
X126432000Y-93078000D02*
X126032000Y-93078000D01*
X126032000Y-93078000D02*
X126032000Y-92453200D01*
X122656600Y-91719400D02*
X122087600Y-91150400D01*
X125298200Y-91719400D02*
X122656600Y-91719400D01*
X122087600Y-91150400D02*
X122087600Y-90424000D01*
D43*
%TO.N,Net-(C13-Pad2)*%
X123950100Y-90386500D02*
X123950100Y-88239600D01*
X123987600Y-90424000D02*
X126060200Y-90424000D01*
X126060200Y-90424000D02*
X126807480Y-91171280D01*
D41*
X126832000Y-91195800D02*
X126832000Y-93078000D01*
D43*
X123987600Y-90424000D02*
X123950100Y-90386500D01*
X126807480Y-91171280D02*
X126807480Y-91195800D01*
D41*
%TO.N,Net-(C14-Pad1)*%
X125082000Y-94428000D02*
X123866600Y-94428000D01*
X123866600Y-94428000D02*
X123555800Y-94117200D01*
X123555800Y-94117200D02*
X123555800Y-92938600D01*
%TO.N,Net-(C15-Pad2)*%
X124476406Y-103520200D02*
X126431999Y-101564607D01*
X124053600Y-103520200D02*
X124476406Y-103520200D01*
X126431999Y-101564607D02*
X126432000Y-100978000D01*
X124053600Y-103520200D02*
X123303000Y-104270800D01*
X123303000Y-104270800D02*
X120954800Y-104270800D01*
%TO.N,Net-(C22-Pad2)*%
X125082000Y-95628000D02*
X122618000Y-95628000D01*
X122618000Y-95628000D02*
X120700800Y-93710800D01*
X120700800Y-93710800D02*
X119811800Y-93710800D01*
D43*
%TO.N,Net-(D2-Pad1)*%
X107543600Y-87630000D02*
X108295400Y-87630000D01*
X107238800Y-87020400D02*
X107238800Y-87325200D01*
X107238800Y-87325200D02*
X107543600Y-87630000D01*
D41*
%TO.N,Net-(D2-Pad2)*%
X120523000Y-88990600D02*
X120523000Y-89001600D01*
X110195400Y-87630000D02*
X110417400Y-87852000D01*
X122682000Y-94615000D02*
X123295000Y-95228000D01*
X120624600Y-89103200D02*
X118305800Y-86784400D01*
X110417400Y-87852000D02*
X119384400Y-87852000D01*
D43*
X114205800Y-86042400D02*
X118305800Y-86042400D01*
D41*
X118305800Y-86784400D02*
X118305800Y-86042400D01*
X120523000Y-89001600D02*
X120624600Y-89103200D01*
X123295000Y-95228000D02*
X125082000Y-95228000D01*
X119384400Y-87852000D02*
X120523000Y-88990600D01*
D42*
%TO.N,Net-(J1-Pad2)*%
X119608600Y-104013000D02*
X118110000Y-104013000D01*
X118110000Y-104013000D02*
X115332000Y-106791000D01*
X119761000Y-104165400D02*
X119608600Y-104013000D01*
D41*
X130556000Y-105791000D02*
X130401657Y-105791000D01*
X128832000Y-104221343D02*
X128832000Y-100978000D01*
D42*
X115332000Y-106791000D02*
X115332000Y-109325000D01*
D41*
X130401657Y-105791000D02*
X128832000Y-104221343D01*
%TO.N,Net-(J1-Pad3)*%
X129429873Y-105596327D02*
X128432000Y-104598454D01*
D42*
X118592600Y-105054400D02*
X117332000Y-106315000D01*
X117332000Y-106315000D02*
X117332000Y-109325000D01*
X119761000Y-105156000D02*
X119659400Y-105054400D01*
X119659400Y-105054400D02*
X118592600Y-105054400D01*
D41*
X128432000Y-104598454D02*
X128432000Y-100978000D01*
%TO.N,Net-(J1-Pad6)*%
X130832000Y-102317973D02*
X131131011Y-102616984D01*
X130832000Y-100978000D02*
X130832000Y-102317973D01*
%TO.N,Net-(J1-Pad7)*%
X130581500Y-103200200D02*
X130432000Y-103050700D01*
X130432000Y-103050700D02*
X130432000Y-100978000D01*
%TO.N,/CIO2_CC1*%
X141884400Y-107772200D02*
X133740200Y-99628000D01*
X141884400Y-116434400D02*
X142361600Y-116911600D01*
X133740200Y-99628000D02*
X132982000Y-99628000D01*
X141884400Y-107772200D02*
X141884400Y-116434400D01*
X142361600Y-116911600D02*
X142361600Y-117955000D01*
%TO.N,/DPB*%
X133905206Y-99228000D02*
X132982000Y-99228000D01*
X143361600Y-119711600D02*
X143361600Y-117955000D01*
X144361600Y-119161600D02*
X144600000Y-119400000D01*
X143361600Y-117955000D02*
X143361600Y-116561600D01*
X142400000Y-107722794D02*
X133905206Y-99228000D01*
X144361600Y-117955000D02*
X144361600Y-119161600D01*
X142400000Y-115600000D02*
X142400000Y-107722794D01*
X143450000Y-119800000D02*
X143361600Y-119711600D01*
X143361600Y-116561600D02*
X142400000Y-115600000D01*
%TO.N,/DMB*%
X144050000Y-120000000D02*
X143700489Y-120349511D01*
X143700489Y-120349511D02*
X143222384Y-120349511D01*
X142868120Y-115268120D02*
X143861600Y-116261600D01*
X143861600Y-117955000D02*
X143861600Y-119434473D01*
X142850000Y-119977127D02*
X142850000Y-117966600D01*
X144050000Y-119622873D02*
X144050000Y-120000000D01*
X142850000Y-117966600D02*
X142861600Y-117955000D01*
X143861600Y-116261600D02*
X143861600Y-117955000D01*
X142868120Y-107520917D02*
X142868120Y-115268120D01*
X143861600Y-119434473D02*
X144050000Y-119622873D01*
X143222384Y-120349511D02*
X142850000Y-119977127D01*
X134175203Y-98828000D02*
X142868120Y-107520917D01*
X132982000Y-98828000D02*
X134175203Y-98828000D01*
%TO.N,/CIO2_CC2*%
X143267640Y-107355431D02*
X143267640Y-115022840D01*
X143267640Y-115022840D02*
X145361600Y-117116800D01*
X132982000Y-98428000D02*
X134340210Y-98428001D01*
X134340210Y-98428001D02*
X143267640Y-107355431D01*
X145361600Y-117116800D02*
X145361600Y-117955000D01*
%TO.N,/CIO1_CC1*%
X129750000Y-117955000D02*
X129750000Y-115450000D01*
X128032000Y-104975582D02*
X128032000Y-100978000D01*
X129750000Y-115450000D02*
X130095650Y-115104350D01*
X132617500Y-110896400D02*
X132617500Y-109561082D01*
X132617500Y-109561082D02*
X128032000Y-104975582D01*
%TO.N,/DPC*%
X131800000Y-119400000D02*
X131800000Y-118005000D01*
X130750000Y-116650000D02*
X130619502Y-116780498D01*
X131800000Y-118005000D02*
X131750000Y-117955000D01*
X130750000Y-116550000D02*
X131568000Y-115732000D01*
X127232000Y-105305594D02*
X127232000Y-100978000D01*
X130750000Y-117955000D02*
X130750000Y-116650000D01*
X130750000Y-116650000D02*
X130750000Y-116550000D01*
X131568000Y-109641594D02*
X127232000Y-105305594D01*
X131568000Y-115732000D02*
X131568000Y-109641594D01*
X130619502Y-116780498D02*
X130400000Y-116780498D01*
%TO.N,/DMC*%
X131250000Y-117955000D02*
X131250000Y-118950000D01*
X131250000Y-118950000D02*
X131000000Y-119200000D01*
X127632000Y-105140588D02*
X132068000Y-109576588D01*
X132068000Y-115832000D02*
X131250000Y-116650000D01*
X127632000Y-100978000D02*
X127632000Y-105140588D01*
X130250000Y-118850000D02*
X130250000Y-117955000D01*
X130600000Y-119200000D02*
X130250000Y-118850000D01*
X131250000Y-116650000D02*
X131250000Y-117955000D01*
X131000000Y-119200000D02*
X130600000Y-119200000D01*
X132068000Y-109576588D02*
X132068000Y-115832000D01*
%TO.N,/CIO1_CC2*%
X132617500Y-116560600D02*
X132750000Y-116693100D01*
X132750000Y-116693100D02*
X132750000Y-117955000D01*
X131018500Y-111887000D02*
X131018500Y-109657100D01*
X126832000Y-105470600D02*
X126832000Y-100978000D01*
X131018500Y-109657100D02*
X126832000Y-105470600D01*
D42*
%TO.N,Net-(J5-Pad1)*%
X109220000Y-103378000D02*
X111951000Y-103378000D01*
X111951000Y-103378000D02*
X112078000Y-103505000D01*
%TO.N,Net-(J5-Pad2)*%
X109220000Y-100838000D02*
X112078000Y-100838000D01*
%TO.N,Net-(J5-Pad3)*%
X109220000Y-98298000D02*
X112078000Y-98298000D01*
%TO.N,Net-(J5-Pad4)*%
X111888900Y-95758000D02*
X111965100Y-95834200D01*
X109220000Y-95758000D02*
X111888900Y-95758000D01*
%TO.N,Net-(J5-Pad5)*%
X112078000Y-93218000D02*
X109220000Y-93218000D01*
%TO.N,Net-(J5-Pad6)*%
X109220000Y-90678000D02*
X112078000Y-90678000D01*
D41*
%TO.N,Net-(Q1-Pad2)*%
X135543700Y-95393100D02*
X134908800Y-96028000D01*
X136789900Y-95393100D02*
X135543700Y-95393100D01*
X134908800Y-96028000D02*
X132982000Y-96028000D01*
%TO.N,Net-(Q1-Pad4)*%
X135331200Y-93599000D02*
X134102200Y-94828000D01*
X134102200Y-94828000D02*
X132982000Y-94828000D01*
%TO.N,Net-(Q2-Pad2)*%
X130819219Y-88232072D02*
X130819219Y-88877793D01*
X130819219Y-88877793D02*
X130432000Y-89265012D01*
X130432000Y-89265012D02*
X130432000Y-93078000D01*
%TO.N,Net-(Q2-Pad4)*%
X129260600Y-86969600D02*
X129232000Y-86998200D01*
X129232000Y-86998200D02*
X129232000Y-93078000D01*
%TO.N,/SYSOUT*%
X130832000Y-89868600D02*
X131927600Y-88773000D01*
X138776000Y-82916000D02*
X137733800Y-82916000D01*
X135255000Y-88821900D02*
X135253100Y-88823800D01*
X139904000Y-81788000D02*
X138776000Y-82916000D01*
X135253100Y-86664800D02*
X135253100Y-88823800D01*
X137733800Y-82916000D02*
X135255000Y-85394800D01*
X135255000Y-85394800D02*
X135255000Y-88821900D01*
X130832000Y-93078000D02*
X130832000Y-89868600D01*
X133959600Y-86664800D02*
X135253100Y-86664800D01*
X131927600Y-88773000D02*
X131927600Y-88696800D01*
X131927600Y-88696800D02*
X133959600Y-86664800D01*
%TO.N,Net-(Q3-Pad2)*%
X135509000Y-107416600D02*
X133832600Y-107416600D01*
X130301980Y-104512715D02*
X129632000Y-103842735D01*
X133832600Y-107416600D02*
X130928715Y-104512715D01*
X130928715Y-104512715D02*
X130301980Y-104512715D01*
X129632000Y-103842735D02*
X129632000Y-100978000D01*
%TO.N,Net-(Q3-Pad4)*%
X134747000Y-104267000D02*
X134366000Y-104267000D01*
X131632000Y-101533000D02*
X131632000Y-100978000D01*
X134366000Y-104267000D02*
X131632000Y-101533000D01*
%TO.N,Net-(Q4-Pad2)*%
X128832000Y-88578827D02*
X128832000Y-93078000D01*
X128535837Y-86972874D02*
X128535837Y-88282664D01*
X128535837Y-88282664D02*
X128832000Y-88578827D01*
%TO.N,Net-(Q4-Pad4)*%
X127632480Y-89537486D02*
X127632480Y-92659200D01*
X126873000Y-88778006D02*
X127632480Y-89537486D01*
X126873000Y-88341200D02*
X126873000Y-88778006D01*
%TO.N,/SYSOUTBAT*%
X123547500Y-86817200D02*
X124347188Y-86817200D01*
X121921900Y-88036400D02*
X122125100Y-88239600D01*
X118237000Y-82042000D02*
X120319800Y-82042000D01*
X121921900Y-83644100D02*
X121921900Y-88036400D01*
X117779800Y-81584800D02*
X118237000Y-82042000D01*
X120319800Y-82042000D02*
X121921900Y-83644100D01*
X127232000Y-89702012D02*
X127232000Y-93078000D01*
X122125100Y-88239600D02*
X123547500Y-86817200D01*
X124347188Y-86817200D02*
X127232000Y-89702012D01*
%TO.N,/EMK_CRTL1*%
X148767800Y-111887000D02*
X148767800Y-114427000D01*
X145542000Y-107010200D02*
X145542000Y-108661200D01*
X145542000Y-108661200D02*
X148767800Y-111887000D01*
X132982000Y-98028000D02*
X136559800Y-98028000D01*
X136559800Y-98028000D02*
X145542000Y-107010200D01*
%TO.N,/EMK_CRTL2*%
X145973800Y-106832400D02*
X145973800Y-107797600D01*
X132982000Y-97628000D02*
X136769400Y-97628000D01*
X145973800Y-107797600D02*
X148666200Y-110490000D01*
X136769400Y-97628000D02*
X145973800Y-106832400D01*
D43*
%TO.N,Net-(R5-Pad1)*%
X114205800Y-84442400D02*
X118305800Y-84442400D01*
X113156298Y-85491902D02*
X113156298Y-85902800D01*
X114205800Y-84442400D02*
X113156298Y-85491902D01*
D41*
%TO.N,Net-(R10-Pad1)*%
X117930300Y-96316800D02*
X119276500Y-97663000D01*
X119276500Y-97663000D02*
X124152705Y-97663000D01*
X124587705Y-97228000D02*
X125082000Y-97228000D01*
X124152705Y-97663000D02*
X124587705Y-97228000D01*
%TO.N,Net-(R11-Pad1)*%
X117676300Y-94562300D02*
X119942000Y-96828000D01*
X117676300Y-93192600D02*
X117676300Y-94562300D01*
X119942000Y-96828000D02*
X125082000Y-96828000D01*
%TO.N,/LED1*%
X115887000Y-101346000D02*
X123764000Y-101346000D01*
X123764000Y-101346000D02*
X125082000Y-100028000D01*
X113728000Y-103505000D02*
X115887000Y-101346000D01*
%TO.N,/LED2*%
X125082000Y-99628000D02*
X124587705Y-99628000D01*
X124587705Y-99628000D02*
X123408745Y-100806960D01*
X113846540Y-100806960D02*
X113815500Y-100838000D01*
X123408745Y-100806960D02*
X113846540Y-100806960D01*
%TO.N,/LED3*%
X113815500Y-98298000D02*
X115924940Y-100407440D01*
X124422699Y-99228000D02*
X125082000Y-99228000D01*
X123243259Y-100407440D02*
X124422699Y-99228000D01*
X115924940Y-100407440D02*
X123243259Y-100407440D01*
%TO.N,/LED4*%
X123077773Y-100007920D02*
X116949720Y-100007920D01*
X114706400Y-97764600D02*
X114706400Y-97092000D01*
X116949720Y-100007920D02*
X114706400Y-97764600D01*
X125082000Y-98828000D02*
X124257693Y-98828000D01*
X124257693Y-98828000D02*
X123077773Y-100007920D01*
X114706400Y-97092000D02*
X113778800Y-96164400D01*
%TO.N,/LED5*%
X115105920Y-97325920D02*
X115105920Y-95598720D01*
X122952687Y-99568000D02*
X117348000Y-99568000D01*
X113728000Y-94220800D02*
X113728000Y-93218000D01*
X124092687Y-98428000D02*
X122952687Y-99568000D01*
X115105920Y-95598720D02*
X113728000Y-94220800D01*
X117348000Y-99568000D02*
X115105920Y-97325920D01*
X125082000Y-98428000D02*
X124092687Y-98428000D01*
%TO.N,/LED6*%
X120142000Y-95021400D02*
X121148600Y-96028000D01*
X121148600Y-96028000D02*
X125082000Y-96028000D01*
X120142000Y-94869000D02*
X120142000Y-95021400D01*
%TO.N,Net-(R12-Pad1)*%
X118640720Y-91667820D02*
X117676300Y-90703400D01*
X125082000Y-96428000D02*
X120405600Y-96428000D01*
X118640720Y-94663120D02*
X118640720Y-91667820D01*
X120405600Y-96428000D02*
X118640720Y-94663120D01*
%TO.N,Net-(RPMAX1-Pad1)*%
X126032480Y-100978480D02*
X126032000Y-100978000D01*
X122070500Y-102412800D02*
X122222900Y-102565200D01*
X124866400Y-102565200D02*
X126032480Y-101399120D01*
X126032480Y-101399120D02*
X126032480Y-100978480D01*
X122222900Y-102565200D02*
X124866400Y-102565200D01*
%TO.N,Net-(SW2-Pad1)*%
X132982000Y-97228000D02*
X139087200Y-97228000D01*
X140385800Y-98526600D02*
X141757400Y-98526600D01*
X144942400Y-95341600D02*
X144942400Y-90205400D01*
X141757400Y-98526600D02*
X144942400Y-95341600D01*
X144942400Y-90205400D02*
X143103600Y-88366600D01*
X139087200Y-97228000D02*
X140385800Y-98526600D01*
%TO.N,Net-(SW2-Pad2)*%
X139319973Y-96621600D02*
X140615384Y-97917011D01*
X141624183Y-97917011D02*
X143941800Y-95599394D01*
X143941800Y-95599394D02*
X143941800Y-91744800D01*
X132982000Y-96828000D02*
X135820006Y-96828000D01*
X135820006Y-96828000D02*
X136026406Y-96621600D01*
X143941800Y-91744800D02*
X143103600Y-90906600D01*
X136026406Y-96621600D02*
X139319973Y-96621600D01*
X140615384Y-97917011D02*
X141624183Y-97917011D01*
%TD*%
%TA.AperFunction,Conductor*%
%TO.N,-BATT*%
G36*
X116047421Y-90469402D02*
G01*
X116093914Y-90523058D01*
X116105300Y-90575400D01*
X116105300Y-91893284D01*
X116109343Y-91907053D01*
X116111568Y-91969334D01*
X116105300Y-91998148D01*
X116105300Y-94382484D01*
X116109775Y-94397723D01*
X116111165Y-94398928D01*
X116118848Y-94400599D01*
X116160895Y-94400599D01*
X116167414Y-94400262D01*
X116263006Y-94390343D01*
X116276400Y-94387451D01*
X116430584Y-94336012D01*
X116443762Y-94329839D01*
X116581607Y-94244537D01*
X116587818Y-94239615D01*
X116769546Y-95223973D01*
X116696562Y-95178986D01*
X116683376Y-95172837D01*
X116529090Y-95121662D01*
X116515714Y-95118795D01*
X116421362Y-95109128D01*
X116414945Y-95108800D01*
X116377415Y-95108800D01*
X116362176Y-95113275D01*
X116360971Y-95114665D01*
X116359300Y-95122348D01*
X116359300Y-96444800D01*
X116339298Y-96512921D01*
X116285642Y-96559414D01*
X116233300Y-96570800D01*
X115977300Y-96570800D01*
X115909179Y-96550798D01*
X115862686Y-96497142D01*
X115851300Y-96444800D01*
X115851300Y-95126916D01*
X115846825Y-95111677D01*
X115845435Y-95110472D01*
X115837752Y-95108801D01*
X115795705Y-95108801D01*
X115789186Y-95109138D01*
X115693594Y-95119057D01*
X115680200Y-95121949D01*
X115526016Y-95173388D01*
X115512838Y-95179561D01*
X115430224Y-95230685D01*
X115154399Y-94265297D01*
X115260043Y-94330416D01*
X115273224Y-94336563D01*
X115427510Y-94387738D01*
X115440886Y-94390605D01*
X115535238Y-94400272D01*
X115541654Y-94400600D01*
X115579185Y-94400600D01*
X115594424Y-94396125D01*
X115595629Y-94394735D01*
X115597300Y-94387052D01*
X115597300Y-92002716D01*
X115593257Y-91988947D01*
X115591032Y-91926666D01*
X115597300Y-91897852D01*
X115597300Y-90575400D01*
X115617302Y-90507279D01*
X115670958Y-90460786D01*
X115723300Y-90449400D01*
X115979300Y-90449400D01*
X116047421Y-90469402D01*
G37*
%TD.AperFunction*%
%TD*%
%TA.AperFunction,Conductor*%
%TO.N,/VSYS-OUT*%
G36*
X147389121Y-95778002D02*
G01*
X147435614Y-95831658D01*
X147447000Y-95884000D01*
X147447000Y-107832159D01*
X147426998Y-107900280D01*
X147373342Y-107946773D01*
X147303068Y-107956877D01*
X147247765Y-107934690D01*
X146610763Y-107479688D01*
X146566958Y-107423819D01*
X146558000Y-107377159D01*
X146558000Y-101981000D01*
X145287000Y-101981000D01*
X145218879Y-101960998D01*
X145172386Y-101907342D01*
X145161000Y-101855000D01*
X145161000Y-99567000D01*
X145181002Y-99498879D01*
X145234658Y-99452386D01*
X145287000Y-99441000D01*
X146558000Y-99441000D01*
X146558000Y-95884000D01*
X146578002Y-95815879D01*
X146631658Y-95769386D01*
X146684000Y-95758000D01*
X147321000Y-95758000D01*
X147389121Y-95778002D01*
G37*
%TD.AperFunction*%
%TD*%
%TA.AperFunction,Conductor*%
%TO.N,-BATT*%
G36*
X151290291Y-76161007D02*
G01*
X151326255Y-76210507D01*
X151331100Y-76241100D01*
X151331100Y-124780500D01*
X151312193Y-124838691D01*
X151262693Y-124874655D01*
X151232100Y-124879500D01*
X106774500Y-124879500D01*
X106716309Y-124860593D01*
X106680345Y-124811093D01*
X106675500Y-124780500D01*
X106675500Y-88026920D01*
X106694407Y-87968729D01*
X106743907Y-87932765D01*
X106805093Y-87932765D01*
X106844504Y-87956916D01*
X106986389Y-88098801D01*
X106996121Y-88110126D01*
X107009391Y-88128158D01*
X107013773Y-88131881D01*
X107013775Y-88131883D01*
X107048565Y-88161439D01*
X107054471Y-88166883D01*
X107060549Y-88172961D01*
X107062798Y-88174740D01*
X107062801Y-88174743D01*
X107082144Y-88190046D01*
X107084815Y-88192235D01*
X107138320Y-88237692D01*
X107143436Y-88240304D01*
X107148227Y-88243500D01*
X107148134Y-88243639D01*
X107150285Y-88245020D01*
X107150374Y-88244876D01*
X107155260Y-88247894D01*
X107159774Y-88251465D01*
X107164985Y-88253900D01*
X107164989Y-88253903D01*
X107168654Y-88255616D01*
X107213365Y-88297384D01*
X107222794Y-88321353D01*
X107241207Y-88395205D01*
X107241209Y-88395211D01*
X107242505Y-88400408D01*
X107324669Y-88565926D01*
X107328028Y-88570103D01*
X107328030Y-88570107D01*
X107426656Y-88692772D01*
X107440460Y-88709940D01*
X107444644Y-88713304D01*
X107580293Y-88822370D01*
X107580297Y-88822372D01*
X107584474Y-88825731D01*
X107669779Y-88868077D01*
X107741459Y-88903659D01*
X107749992Y-88907895D01*
X107755199Y-88909193D01*
X107755201Y-88909194D01*
X107879124Y-88940091D01*
X107929293Y-88952600D01*
X107933641Y-88952896D01*
X107933645Y-88952897D01*
X107951551Y-88954117D01*
X107971834Y-88955500D01*
X108618966Y-88955500D01*
X108639249Y-88954117D01*
X108657155Y-88952897D01*
X108657159Y-88952896D01*
X108661507Y-88952600D01*
X108711676Y-88940091D01*
X108835599Y-88909194D01*
X108835601Y-88909193D01*
X108840808Y-88907895D01*
X108849342Y-88903659D01*
X108921021Y-88868077D01*
X109006326Y-88825731D01*
X109010503Y-88822372D01*
X109010507Y-88822370D01*
X109146156Y-88713304D01*
X109150340Y-88709940D01*
X109168247Y-88687668D01*
X109219444Y-88654167D01*
X109280557Y-88657157D01*
X109322553Y-88687668D01*
X109340460Y-88709940D01*
X109344644Y-88713304D01*
X109480293Y-88822370D01*
X109480297Y-88822372D01*
X109484474Y-88825731D01*
X109569779Y-88868077D01*
X109641459Y-88903659D01*
X109649992Y-88907895D01*
X109655199Y-88909193D01*
X109655201Y-88909194D01*
X109779124Y-88940091D01*
X109829293Y-88952600D01*
X109833641Y-88952896D01*
X109833645Y-88952897D01*
X109851551Y-88954117D01*
X109871834Y-88955500D01*
X110518966Y-88955500D01*
X110539249Y-88954117D01*
X110557155Y-88952897D01*
X110557159Y-88952896D01*
X110561507Y-88952600D01*
X110611676Y-88940091D01*
X110735599Y-88909194D01*
X110735601Y-88909193D01*
X110740808Y-88907895D01*
X110748282Y-88904185D01*
X110749837Y-88903955D01*
X110750642Y-88903659D01*
X110750704Y-88903827D01*
X110808811Y-88895248D01*
X110863033Y-88923595D01*
X110890757Y-88982512D01*
X110898103Y-89052403D01*
X110899704Y-89057330D01*
X110899705Y-89057335D01*
X110947997Y-89205960D01*
X110953350Y-89222435D01*
X110955941Y-89226923D01*
X110955942Y-89226925D01*
X111007905Y-89316927D01*
X111042741Y-89377265D01*
X111046213Y-89381121D01*
X111134796Y-89479502D01*
X111159683Y-89535397D01*
X111146962Y-89595246D01*
X111130072Y-89614952D01*
X111131030Y-89615910D01*
X111127244Y-89619696D01*
X111123060Y-89623060D01*
X111119696Y-89627244D01*
X111010630Y-89762893D01*
X111010628Y-89762897D01*
X111007269Y-89767074D01*
X110979745Y-89822521D01*
X110936937Y-89866234D01*
X110891071Y-89877500D01*
X110483657Y-89877500D01*
X110425466Y-89858593D01*
X110400535Y-89832274D01*
X110390211Y-89816315D01*
X110373155Y-89789951D01*
X110352339Y-89767074D01*
X110279645Y-89687185D01*
X110212629Y-89613536D01*
X110209443Y-89611020D01*
X110209440Y-89611017D01*
X110028633Y-89468224D01*
X110028627Y-89468220D01*
X110025445Y-89465707D01*
X109859895Y-89374319D01*
X109820189Y-89352400D01*
X109820188Y-89352400D01*
X109816631Y-89350436D01*
X109812808Y-89349082D01*
X109812803Y-89349080D01*
X109595620Y-89272172D01*
X109595622Y-89272172D01*
X109591794Y-89270817D01*
X109356972Y-89228988D01*
X109352913Y-89228938D01*
X109352909Y-89228938D01*
X109239652Y-89227555D01*
X109118471Y-89226074D01*
X108882698Y-89262153D01*
X108783610Y-89294540D01*
X108659839Y-89334994D01*
X108659835Y-89334996D01*
X108655982Y-89336255D01*
X108652382Y-89338129D01*
X108448019Y-89444513D01*
X108448016Y-89444515D01*
X108444414Y-89446390D01*
X108253675Y-89589602D01*
X108088887Y-89762042D01*
X108086600Y-89765394D01*
X108086598Y-89765397D01*
X107967067Y-89940623D01*
X107954475Y-89959082D01*
X107952767Y-89962762D01*
X107952764Y-89962767D01*
X107923283Y-90026279D01*
X107854051Y-90175428D01*
X107790309Y-90405272D01*
X107789876Y-90409320D01*
X107789876Y-90409322D01*
X107788172Y-90425270D01*
X107764963Y-90642440D01*
X107778694Y-90880562D01*
X107831131Y-91113245D01*
X107832660Y-91117009D01*
X107832661Y-91117014D01*
X107884268Y-91244107D01*
X107920867Y-91334239D01*
X108045493Y-91537609D01*
X108048152Y-91540679D01*
X108048153Y-91540680D01*
X108198998Y-91714821D01*
X108201660Y-91717894D01*
X108385176Y-91870252D01*
X108385124Y-91870314D01*
X108421144Y-91918111D01*
X108422213Y-91979287D01*
X108386980Y-92029513D01*
X108253675Y-92129602D01*
X108088887Y-92302042D01*
X108086600Y-92305394D01*
X108086598Y-92305397D01*
X107980651Y-92460709D01*
X107954475Y-92499082D01*
X107952767Y-92502762D01*
X107952764Y-92502767D01*
X107934603Y-92541893D01*
X107854051Y-92715428D01*
X107852965Y-92719344D01*
X107792704Y-92936637D01*
X107790309Y-92945272D01*
X107789876Y-92949320D01*
X107789876Y-92949322D01*
X107784474Y-92999874D01*
X107764963Y-93182440D01*
X107778694Y-93420562D01*
X107831131Y-93653245D01*
X107832660Y-93657009D01*
X107832661Y-93657014D01*
X107889997Y-93798216D01*
X107920867Y-93874239D01*
X108045493Y-94077609D01*
X108048152Y-94080679D01*
X108048153Y-94080680D01*
X108182897Y-94236233D01*
X108201660Y-94257894D01*
X108385176Y-94410252D01*
X108385124Y-94410314D01*
X108421144Y-94458111D01*
X108422213Y-94519287D01*
X108386980Y-94569513D01*
X108253675Y-94669602D01*
X108088887Y-94842042D01*
X108086600Y-94845394D01*
X108086598Y-94845397D01*
X107961386Y-95028951D01*
X107954475Y-95039082D01*
X107952767Y-95042762D01*
X107952764Y-95042767D01*
X107914443Y-95125323D01*
X107854051Y-95255428D01*
X107852965Y-95259344D01*
X107803884Y-95436324D01*
X107790309Y-95485272D01*
X107789876Y-95489320D01*
X107789876Y-95489322D01*
X107787420Y-95512306D01*
X107764963Y-95722440D01*
X107778694Y-95960562D01*
X107831131Y-96193245D01*
X107832660Y-96197009D01*
X107832661Y-96197014D01*
X107862533Y-96270579D01*
X107920867Y-96414239D01*
X108045493Y-96617609D01*
X108048152Y-96620679D01*
X108048153Y-96620680D01*
X108147899Y-96735830D01*
X108201660Y-96797894D01*
X108385176Y-96950252D01*
X108385124Y-96950314D01*
X108421144Y-96998111D01*
X108422213Y-97059287D01*
X108386980Y-97109513D01*
X108253675Y-97209602D01*
X108088887Y-97382042D01*
X108086600Y-97385394D01*
X108086598Y-97385397D01*
X107960878Y-97569695D01*
X107954475Y-97579082D01*
X107952767Y-97582762D01*
X107952764Y-97582767D01*
X107923275Y-97646296D01*
X107854051Y-97795428D01*
X107852965Y-97799344D01*
X107802156Y-97982555D01*
X107790309Y-98025272D01*
X107764963Y-98262440D01*
X107778694Y-98500562D01*
X107831131Y-98733245D01*
X107832660Y-98737009D01*
X107832661Y-98737014D01*
X107873872Y-98838504D01*
X107920867Y-98954239D01*
X108045493Y-99157609D01*
X108048152Y-99160679D01*
X108048153Y-99160680D01*
X108118005Y-99241320D01*
X108201660Y-99337894D01*
X108385176Y-99490252D01*
X108385124Y-99490314D01*
X108421144Y-99538111D01*
X108422213Y-99599287D01*
X108386980Y-99649513D01*
X108297912Y-99716388D01*
X108253675Y-99749602D01*
X108088887Y-99922042D01*
X108086600Y-99925394D01*
X108086598Y-99925397D01*
X107956762Y-100115729D01*
X107954475Y-100119082D01*
X107854051Y-100335428D01*
X107790309Y-100565272D01*
X107764963Y-100802440D01*
X107778694Y-101040562D01*
X107831131Y-101273245D01*
X107920867Y-101494239D01*
X108045493Y-101697609D01*
X108048152Y-101700679D01*
X108048153Y-101700680D01*
X108156320Y-101825552D01*
X108180128Y-101881915D01*
X108166260Y-101941508D01*
X108119376Y-101981835D01*
X108067159Y-102003464D01*
X107941718Y-102099718D01*
X107845464Y-102225159D01*
X107784956Y-102371238D01*
X107769500Y-102488639D01*
X107769501Y-104267360D01*
X107784956Y-104384762D01*
X107787438Y-104390754D01*
X107787439Y-104390758D01*
X107799596Y-104420107D01*
X107845464Y-104530841D01*
X107941718Y-104656282D01*
X108067159Y-104752536D01*
X108213238Y-104813044D01*
X108330639Y-104828500D01*
X109219862Y-104828500D01*
X110109360Y-104828499D01*
X110112571Y-104828076D01*
X110112576Y-104828076D01*
X110194329Y-104817314D01*
X110226762Y-104813044D01*
X110232754Y-104810562D01*
X110232758Y-104810561D01*
X110359903Y-104757895D01*
X110372841Y-104752536D01*
X110498282Y-104656282D01*
X110594536Y-104530841D01*
X110655044Y-104384762D01*
X110670500Y-104267361D01*
X110671462Y-104267488D01*
X110692710Y-104214207D01*
X110744452Y-104181550D01*
X110768835Y-104178500D01*
X110830202Y-104178500D01*
X110888393Y-104197407D01*
X110923113Y-104243315D01*
X110923806Y-104245199D01*
X110925105Y-104250408D01*
X111007269Y-104415926D01*
X111010628Y-104420103D01*
X111010630Y-104420107D01*
X111098021Y-104528798D01*
X111123060Y-104559940D01*
X111127244Y-104563304D01*
X111262893Y-104672370D01*
X111262897Y-104672372D01*
X111267074Y-104675731D01*
X111271879Y-104678116D01*
X111417820Y-104750562D01*
X111432592Y-104757895D01*
X111437799Y-104759193D01*
X111437801Y-104759194D01*
X111495264Y-104773521D01*
X111611893Y-104802600D01*
X111616241Y-104802896D01*
X111616245Y-104802897D01*
X111634151Y-104804117D01*
X111654434Y-104805500D01*
X112326566Y-104805500D01*
X112346849Y-104804117D01*
X112364755Y-104802897D01*
X112364759Y-104802896D01*
X112369107Y-104802600D01*
X112485736Y-104773521D01*
X112543199Y-104759194D01*
X112543201Y-104759193D01*
X112548408Y-104757895D01*
X112563181Y-104750562D01*
X112709121Y-104678116D01*
X112713926Y-104675731D01*
X112718103Y-104672372D01*
X112718107Y-104672370D01*
X112840966Y-104573588D01*
X112898164Y-104551860D01*
X112957209Y-104567902D01*
X112965034Y-104573588D01*
X113087893Y-104672370D01*
X113087897Y-104672372D01*
X113092074Y-104675731D01*
X113096879Y-104678116D01*
X113242820Y-104750562D01*
X113257592Y-104757895D01*
X113262799Y-104759193D01*
X113262801Y-104759194D01*
X113320264Y-104773521D01*
X113436893Y-104802600D01*
X113441241Y-104802896D01*
X113441245Y-104802897D01*
X113459151Y-104804117D01*
X113479434Y-104805500D01*
X114151566Y-104805500D01*
X114171849Y-104804117D01*
X114189755Y-104802897D01*
X114189759Y-104802896D01*
X114194107Y-104802600D01*
X114310736Y-104773521D01*
X114368199Y-104759194D01*
X114368201Y-104759193D01*
X114373408Y-104757895D01*
X114388181Y-104750562D01*
X114534121Y-104678116D01*
X114538926Y-104675731D01*
X114543103Y-104672372D01*
X114543107Y-104672370D01*
X114678756Y-104563304D01*
X114682940Y-104559940D01*
X114707979Y-104528798D01*
X114795370Y-104420107D01*
X114795372Y-104420103D01*
X114798731Y-104415926D01*
X114841077Y-104330621D01*
X114878508Y-104255217D01*
X114878509Y-104255215D01*
X114880895Y-104250408D01*
X114882664Y-104243315D01*
X114924544Y-104075342D01*
X114925600Y-104071107D01*
X114928500Y-104028566D01*
X114928500Y-103336164D01*
X114947407Y-103277973D01*
X114957496Y-103266160D01*
X116148161Y-102075496D01*
X116202678Y-102047719D01*
X116218165Y-102046500D01*
X120858500Y-102046500D01*
X120916691Y-102065407D01*
X120952655Y-102114907D01*
X120957500Y-102145500D01*
X120957500Y-102936366D01*
X120960400Y-102978907D01*
X120961456Y-102983142D01*
X120974348Y-103034850D01*
X120970080Y-103095886D01*
X120930751Y-103142757D01*
X120878289Y-103157800D01*
X120431234Y-103157800D01*
X120410951Y-103159183D01*
X120393045Y-103160403D01*
X120393041Y-103160404D01*
X120388693Y-103160700D01*
X120384457Y-103161756D01*
X120384458Y-103161756D01*
X120214601Y-103204106D01*
X120214599Y-103204107D01*
X120209392Y-103205405D01*
X120044748Y-103287135D01*
X119984220Y-103296074D01*
X119967131Y-103290494D01*
X119966784Y-103291447D01*
X119966783Y-103291446D01*
X119925204Y-103276312D01*
X119915997Y-103272422D01*
X119881166Y-103255584D01*
X119881164Y-103255583D01*
X119876178Y-103253173D01*
X119842287Y-103245349D01*
X119830702Y-103241916D01*
X119803231Y-103231917D01*
X119803224Y-103231915D01*
X119798022Y-103230022D01*
X119765159Y-103225870D01*
X119754146Y-103224479D01*
X119744285Y-103222723D01*
X119726978Y-103218728D01*
X119701189Y-103212774D01*
X119661108Y-103212634D01*
X119660119Y-103212601D01*
X119659317Y-103212500D01*
X119622768Y-103212500D01*
X119622422Y-103212499D01*
X119621109Y-103212494D01*
X119521600Y-103212147D01*
X119520441Y-103212406D01*
X119518706Y-103212500D01*
X118118991Y-103212500D01*
X118117954Y-103212495D01*
X118111587Y-103212428D01*
X118028593Y-103211559D01*
X117985359Y-103220907D01*
X117975484Y-103222523D01*
X117963987Y-103223813D01*
X117937025Y-103226837D01*
X117937021Y-103226838D01*
X117931528Y-103227454D01*
X117926308Y-103229272D01*
X117926303Y-103229273D01*
X117898683Y-103238892D01*
X117887043Y-103242163D01*
X117853058Y-103249511D01*
X117812968Y-103268205D01*
X117803700Y-103271968D01*
X117796131Y-103274604D01*
X117761927Y-103286515D01*
X117757236Y-103289446D01*
X117757228Y-103289450D01*
X117732430Y-103304946D01*
X117721819Y-103310708D01*
X117690292Y-103325410D01*
X117655338Y-103352523D01*
X117647135Y-103358245D01*
X117614324Y-103378747D01*
X117614319Y-103378751D01*
X117609625Y-103381684D01*
X117581172Y-103409939D01*
X117580463Y-103410602D01*
X117579823Y-103411099D01*
X117553963Y-103436959D01*
X117553718Y-103437202D01*
X117484601Y-103505838D01*
X117484595Y-103505845D01*
X117482193Y-103508230D01*
X117481558Y-103509231D01*
X117480398Y-103510524D01*
X114772288Y-106218634D01*
X114771551Y-106219363D01*
X114707732Y-106281859D01*
X114704734Y-106286511D01*
X114683775Y-106319033D01*
X114677929Y-106327168D01*
X114655923Y-106354735D01*
X114650336Y-106361734D01*
X114647930Y-106366711D01*
X114647925Y-106366719D01*
X114635197Y-106393048D01*
X114629282Y-106403589D01*
X114610446Y-106432817D01*
X114595312Y-106474396D01*
X114591423Y-106483601D01*
X114572173Y-106523422D01*
X114570928Y-106528815D01*
X114564350Y-106557308D01*
X114560916Y-106568898D01*
X114550917Y-106596369D01*
X114550915Y-106596376D01*
X114549022Y-106601578D01*
X114548328Y-106607074D01*
X114543479Y-106645454D01*
X114541723Y-106655315D01*
X114531774Y-106698411D01*
X114531686Y-106723578D01*
X114531634Y-106738481D01*
X114531601Y-106739481D01*
X114531500Y-106740283D01*
X114531500Y-106776892D01*
X114531147Y-106878000D01*
X114531406Y-106879159D01*
X114531500Y-106880894D01*
X114531500Y-108185324D01*
X114512593Y-108243515D01*
X114489285Y-108266419D01*
X114460599Y-108286505D01*
X114319209Y-108427895D01*
X114264692Y-108455672D01*
X114204260Y-108446101D01*
X114160995Y-108402836D01*
X114157741Y-108395777D01*
X114109019Y-108278154D01*
X114106536Y-108272159D01*
X114010282Y-108146718D01*
X113884841Y-108050464D01*
X113738762Y-107989956D01*
X113621361Y-107974500D01*
X112832122Y-107974500D01*
X112042640Y-107974501D01*
X112039429Y-107974924D01*
X112039424Y-107974924D01*
X111957671Y-107985686D01*
X111925238Y-107989956D01*
X111919246Y-107992438D01*
X111919242Y-107992439D01*
X111819247Y-108033859D01*
X111779159Y-108050464D01*
X111653718Y-108146718D01*
X111557464Y-108272159D01*
X111496956Y-108418238D01*
X111481500Y-108535639D01*
X111481501Y-110114360D01*
X111496956Y-110231762D01*
X111499438Y-110237754D01*
X111499439Y-110237758D01*
X111527251Y-110304900D01*
X111557464Y-110377841D01*
X111653718Y-110503282D01*
X111779159Y-110599536D01*
X111925238Y-110660044D01*
X111998880Y-110669739D01*
X112054105Y-110696080D01*
X112083300Y-110749850D01*
X112075314Y-110810512D01*
X112042742Y-110848988D01*
X111960599Y-110906505D01*
X111793505Y-111073599D01*
X111657965Y-111267171D01*
X111558097Y-111481337D01*
X111496937Y-111709592D01*
X111476341Y-111945000D01*
X111496937Y-112180408D01*
X111558097Y-112408663D01*
X111657965Y-112622829D01*
X111660446Y-112626372D01*
X111660447Y-112626374D01*
X111667372Y-112636264D01*
X111793505Y-112816401D01*
X111960599Y-112983495D01*
X112154170Y-113119035D01*
X112158080Y-113120858D01*
X112158083Y-113120860D01*
X112205779Y-113143101D01*
X112233943Y-113162821D01*
X112255959Y-113184837D01*
X112256202Y-113185082D01*
X112324838Y-113254199D01*
X112324845Y-113254205D01*
X112327230Y-113256607D01*
X112328231Y-113257242D01*
X112329524Y-113258402D01*
X112936099Y-113864977D01*
X113879989Y-114808866D01*
X113880718Y-114809603D01*
X113943259Y-114873468D01*
X113947902Y-114876460D01*
X113947909Y-114876466D01*
X113980438Y-114897429D01*
X113988573Y-114903274D01*
X114023134Y-114930864D01*
X114028113Y-114933271D01*
X114028121Y-114933276D01*
X114054448Y-114946003D01*
X114064989Y-114951918D01*
X114089566Y-114967757D01*
X114089568Y-114967758D01*
X114094217Y-114970754D01*
X114135796Y-114985888D01*
X114145003Y-114989778D01*
X114179834Y-115006616D01*
X114179836Y-115006617D01*
X114184822Y-115009027D01*
X114218713Y-115016851D01*
X114230298Y-115020284D01*
X114257769Y-115030283D01*
X114257776Y-115030285D01*
X114262978Y-115032178D01*
X114295841Y-115036330D01*
X114306854Y-115037721D01*
X114316715Y-115039477D01*
X114334022Y-115043472D01*
X114359811Y-115049426D01*
X114399892Y-115049566D01*
X114400881Y-115049599D01*
X114401683Y-115049700D01*
X114438232Y-115049700D01*
X114438580Y-115049701D01*
X114539400Y-115050053D01*
X114540559Y-115049794D01*
X114542294Y-115049700D01*
X118556700Y-115049700D01*
X118614891Y-115068607D01*
X118650855Y-115118107D01*
X118655700Y-115148700D01*
X118655700Y-117788214D01*
X118636793Y-117846405D01*
X118626704Y-117858218D01*
X118376186Y-118108736D01*
X118321669Y-118136513D01*
X118315155Y-118137325D01*
X118307438Y-118138027D01*
X118307435Y-118138028D01*
X118302618Y-118138466D01*
X118297976Y-118139832D01*
X118297972Y-118139833D01*
X118119040Y-118192496D01*
X118119037Y-118192497D01*
X118114393Y-118193864D01*
X117940512Y-118284767D01*
X117787600Y-118407711D01*
X117766073Y-118433366D01*
X117664589Y-118554310D01*
X117664586Y-118554314D01*
X117661480Y-118558016D01*
X117566956Y-118729954D01*
X117507628Y-118916978D01*
X117485757Y-119111963D01*
X117486162Y-119116783D01*
X117498814Y-119267452D01*
X117502175Y-119307483D01*
X117503508Y-119312131D01*
X117503508Y-119312132D01*
X117515320Y-119353323D01*
X117556258Y-119496091D01*
X117558473Y-119500401D01*
X117643731Y-119666296D01*
X117643734Y-119666300D01*
X117645944Y-119670601D01*
X117767818Y-119824369D01*
X117771505Y-119827507D01*
X117771507Y-119827509D01*
X117913550Y-119948397D01*
X117913555Y-119948400D01*
X117917238Y-119951535D01*
X117921460Y-119953895D01*
X117921465Y-119953898D01*
X117962838Y-119977020D01*
X118088513Y-120047257D01*
X118173989Y-120075030D01*
X118270513Y-120106393D01*
X118270516Y-120106394D01*
X118275118Y-120107889D01*
X118469946Y-120131121D01*
X118474768Y-120130750D01*
X118474771Y-120130750D01*
X118660748Y-120116440D01*
X118660753Y-120116439D01*
X118665576Y-120116068D01*
X118854556Y-120063303D01*
X118858869Y-120061124D01*
X118858875Y-120061122D01*
X119025368Y-119977020D01*
X119025370Y-119977018D01*
X119029689Y-119974837D01*
X119056490Y-119953898D01*
X119180487Y-119857022D01*
X119180491Y-119857018D01*
X119184303Y-119854040D01*
X119209915Y-119824369D01*
X119309345Y-119709177D01*
X119309347Y-119709175D01*
X119312509Y-119705511D01*
X119320009Y-119692309D01*
X119407036Y-119539115D01*
X119407037Y-119539112D01*
X119409425Y-119534909D01*
X119420905Y-119500401D01*
X119469831Y-119353323D01*
X119469831Y-119353321D01*
X119471358Y-119348732D01*
X119476515Y-119307915D01*
X119477378Y-119301080D01*
X119505593Y-119243485D01*
X120015912Y-118733166D01*
X120016649Y-118732437D01*
X120076515Y-118673812D01*
X120080468Y-118669941D01*
X120096841Y-118644535D01*
X120104425Y-118632767D01*
X120110271Y-118624632D01*
X120134410Y-118594393D01*
X120134411Y-118594392D01*
X120137864Y-118590066D01*
X120140270Y-118585089D01*
X120140275Y-118585081D01*
X120153003Y-118558752D01*
X120158918Y-118548211D01*
X120174757Y-118523634D01*
X120174758Y-118523632D01*
X120177754Y-118518983D01*
X120192888Y-118477404D01*
X120196778Y-118468197D01*
X120213616Y-118433366D01*
X120213617Y-118433364D01*
X120216027Y-118428378D01*
X120223851Y-118394487D01*
X120227284Y-118382902D01*
X120237283Y-118355431D01*
X120237285Y-118355424D01*
X120239178Y-118350222D01*
X120244721Y-118306346D01*
X120246477Y-118296485D01*
X120255181Y-118258781D01*
X120256426Y-118253389D01*
X120256566Y-118213308D01*
X120256599Y-118212319D01*
X120256700Y-118211517D01*
X120256700Y-118174908D01*
X120257053Y-118073800D01*
X120256794Y-118072641D01*
X120256700Y-118070906D01*
X120256700Y-114985928D01*
X120275607Y-114927737D01*
X120303239Y-114901971D01*
X120332878Y-114883451D01*
X120337575Y-114880516D01*
X120366028Y-114852261D01*
X120366737Y-114851598D01*
X120367377Y-114851101D01*
X120393237Y-114825241D01*
X120393482Y-114824998D01*
X120462599Y-114756362D01*
X120462605Y-114756355D01*
X120465007Y-114753970D01*
X120465642Y-114752969D01*
X120466802Y-114751676D01*
X122832182Y-112386296D01*
X122886699Y-112358519D01*
X122902186Y-112357300D01*
X124349409Y-112357300D01*
X124350447Y-112357305D01*
X124439807Y-112358241D01*
X124483041Y-112348893D01*
X124492916Y-112347277D01*
X124504413Y-112345987D01*
X124531375Y-112342963D01*
X124531379Y-112342962D01*
X124536872Y-112342346D01*
X124542092Y-112340528D01*
X124542097Y-112340527D01*
X124569717Y-112330908D01*
X124581355Y-112327637D01*
X124609930Y-112321459D01*
X124615342Y-112320289D01*
X124620356Y-112317951D01*
X124620362Y-112317949D01*
X124655424Y-112301599D01*
X124664706Y-112297830D01*
X124701244Y-112285106D01*
X124706473Y-112283285D01*
X124735966Y-112264856D01*
X124746587Y-112259090D01*
X124773093Y-112246730D01*
X124773100Y-112246726D01*
X124778107Y-112244391D01*
X124782473Y-112241004D01*
X124782480Y-112241000D01*
X124813059Y-112217280D01*
X124821275Y-112211548D01*
X124835470Y-112202678D01*
X124858775Y-112188116D01*
X124887228Y-112159861D01*
X124887937Y-112159198D01*
X124888577Y-112158701D01*
X124914437Y-112132841D01*
X124914682Y-112132598D01*
X124983799Y-112063962D01*
X124983805Y-112063955D01*
X124986207Y-112061570D01*
X124986842Y-112060569D01*
X124988002Y-112059276D01*
X126137312Y-110909966D01*
X126138049Y-110909237D01*
X126197915Y-110850612D01*
X126201868Y-110846741D01*
X126205456Y-110841173D01*
X126225825Y-110809567D01*
X126231671Y-110801432D01*
X126255810Y-110771193D01*
X126255811Y-110771192D01*
X126259264Y-110766866D01*
X126261670Y-110761889D01*
X126261675Y-110761881D01*
X126274403Y-110735552D01*
X126280318Y-110725011D01*
X126296157Y-110700434D01*
X126296158Y-110700432D01*
X126299154Y-110695783D01*
X126314288Y-110654204D01*
X126318178Y-110644997D01*
X126335016Y-110610166D01*
X126335017Y-110610164D01*
X126337427Y-110605178D01*
X126345251Y-110571287D01*
X126348684Y-110559702D01*
X126358683Y-110532231D01*
X126358685Y-110532224D01*
X126360578Y-110527022D01*
X126365255Y-110490000D01*
X126366121Y-110483146D01*
X126367877Y-110473285D01*
X126376581Y-110435581D01*
X126377826Y-110430189D01*
X126377966Y-110390108D01*
X126377999Y-110389119D01*
X126378100Y-110388317D01*
X126378100Y-110351593D01*
X126378453Y-110250600D01*
X126378194Y-110249441D01*
X126378100Y-110247706D01*
X126378100Y-106536819D01*
X126391363Y-106487320D01*
X126404779Y-106464084D01*
X126460321Y-106293145D01*
X126496284Y-106243646D01*
X126554475Y-106224739D01*
X126612666Y-106243646D01*
X126624479Y-106253735D01*
X128487843Y-108117100D01*
X130289004Y-109918261D01*
X130316781Y-109972778D01*
X130318000Y-109988265D01*
X130318000Y-111372776D01*
X130304736Y-111422276D01*
X130239844Y-111534671D01*
X130239842Y-111534676D01*
X130237250Y-111539165D01*
X130235648Y-111544096D01*
X130183605Y-111704265D01*
X130183604Y-111704270D01*
X130182003Y-111709197D01*
X130163315Y-111887000D01*
X130182003Y-112064803D01*
X130183604Y-112069730D01*
X130183605Y-112069735D01*
X130232562Y-112220408D01*
X130237250Y-112234835D01*
X130239841Y-112239323D01*
X130239842Y-112239325D01*
X130302168Y-112347276D01*
X130326641Y-112389665D01*
X130446270Y-112522526D01*
X130450468Y-112525576D01*
X130450469Y-112525577D01*
X130456474Y-112529940D01*
X130590907Y-112627612D01*
X130677512Y-112666171D01*
X130749493Y-112698219D01*
X130749496Y-112698220D01*
X130754233Y-112700329D01*
X130759306Y-112701407D01*
X130759305Y-112701407D01*
X130789084Y-112707737D01*
X130842072Y-112738330D01*
X130866958Y-112794226D01*
X130867500Y-112804574D01*
X130867500Y-114432621D01*
X130848593Y-114490812D01*
X130799093Y-114526776D01*
X130737907Y-114526776D01*
X130694929Y-114498865D01*
X130671352Y-114472680D01*
X130671349Y-114472677D01*
X130667880Y-114468824D01*
X130523243Y-114363738D01*
X130441580Y-114327379D01*
X130364655Y-114293130D01*
X130364651Y-114293129D01*
X130359917Y-114291021D01*
X130354847Y-114289943D01*
X130354846Y-114289943D01*
X130320922Y-114282732D01*
X130185041Y-114253850D01*
X130006259Y-114253850D01*
X129870378Y-114282732D01*
X129836454Y-114289943D01*
X129836453Y-114289943D01*
X129831383Y-114291021D01*
X129826649Y-114293129D01*
X129826645Y-114293130D01*
X129672792Y-114361630D01*
X129672790Y-114361631D01*
X129668058Y-114363738D01*
X129523420Y-114468824D01*
X129519954Y-114472674D01*
X129519950Y-114472677D01*
X129413316Y-114591106D01*
X129403791Y-114601685D01*
X129401199Y-114606175D01*
X129401198Y-114606176D01*
X129317194Y-114751676D01*
X129314400Y-114756515D01*
X129312799Y-114761444D01*
X129312798Y-114761445D01*
X129292276Y-114824604D01*
X129259153Y-114926547D01*
X129257771Y-114926098D01*
X129232904Y-114968398D01*
X129234096Y-114969471D01*
X129230101Y-114973908D01*
X129225604Y-114977831D01*
X129222173Y-114982713D01*
X129222172Y-114982714D01*
X129188903Y-115030052D01*
X129185818Y-115034205D01*
X129181685Y-115039477D01*
X129158998Y-115068411D01*
X129146416Y-115084457D01*
X129143958Y-115089900D01*
X129143958Y-115089901D01*
X129142633Y-115092835D01*
X129133398Y-115109028D01*
X129128113Y-115116547D01*
X129125946Y-115122106D01*
X129125944Y-115122109D01*
X129104922Y-115176027D01*
X129102914Y-115180803D01*
X129098698Y-115190141D01*
X129076645Y-115238984D01*
X129075558Y-115244851D01*
X129074969Y-115248026D01*
X129069867Y-115265938D01*
X129066524Y-115274513D01*
X129058778Y-115333359D01*
X129058192Y-115337808D01*
X129057381Y-115342930D01*
X129049362Y-115386195D01*
X129045748Y-115405692D01*
X129046092Y-115411654D01*
X129049336Y-115467924D01*
X129049500Y-115473622D01*
X129049500Y-116537695D01*
X129030593Y-116595886D01*
X128981093Y-116631850D01*
X128937578Y-116635848D01*
X128892574Y-116629923D01*
X128889361Y-116629500D01*
X128550053Y-116629500D01*
X128210640Y-116629501D01*
X128207429Y-116629924D01*
X128207424Y-116629924D01*
X128125671Y-116640686D01*
X128093238Y-116644956D01*
X128087246Y-116647438D01*
X128087242Y-116647439D01*
X127987247Y-116688859D01*
X127947159Y-116705464D01*
X127821718Y-116801718D01*
X127725464Y-116927159D01*
X127664956Y-117073238D01*
X127649500Y-117190639D01*
X127649500Y-117193880D01*
X127649501Y-118540036D01*
X127630594Y-118598227D01*
X127600001Y-118625772D01*
X127563008Y-118647130D01*
X127559152Y-118650602D01*
X127422284Y-118773838D01*
X127422281Y-118773842D01*
X127418431Y-118777308D01*
X127304078Y-118934701D01*
X127224949Y-119112429D01*
X127184500Y-119302726D01*
X127184500Y-119497274D01*
X127224949Y-119687571D01*
X127227057Y-119692305D01*
X127227058Y-119692309D01*
X127276138Y-119802544D01*
X127304078Y-119865299D01*
X127418431Y-120022692D01*
X127422281Y-120026158D01*
X127422284Y-120026162D01*
X127513688Y-120108462D01*
X127563008Y-120152870D01*
X127731492Y-120250144D01*
X127916518Y-120310262D01*
X128061496Y-120325500D01*
X128158504Y-120325500D01*
X128303482Y-120310262D01*
X128488508Y-120250144D01*
X128656992Y-120152870D01*
X128673623Y-120137895D01*
X128729518Y-120113007D01*
X128789367Y-120125728D01*
X128809872Y-120141461D01*
X129628123Y-120959712D01*
X129628852Y-120960449D01*
X129691348Y-121024268D01*
X129696000Y-121027266D01*
X129728522Y-121048225D01*
X129736657Y-121054071D01*
X129766896Y-121078210D01*
X129771223Y-121081664D01*
X129776200Y-121084070D01*
X129776208Y-121084075D01*
X129802537Y-121096803D01*
X129813078Y-121102718D01*
X129837655Y-121118557D01*
X129837657Y-121118558D01*
X129842306Y-121121554D01*
X129883885Y-121136688D01*
X129893090Y-121140577D01*
X129903892Y-121145799D01*
X129927923Y-121157416D01*
X129927925Y-121157417D01*
X129932911Y-121159827D01*
X129966802Y-121167651D01*
X129978387Y-121171084D01*
X130005858Y-121181083D01*
X130005865Y-121181085D01*
X130011067Y-121182978D01*
X130036279Y-121186163D01*
X130054943Y-121188521D01*
X130064804Y-121190277D01*
X130082111Y-121194272D01*
X130107900Y-121200226D01*
X130147981Y-121200366D01*
X130148970Y-121200399D01*
X130149772Y-121200500D01*
X130186321Y-121200500D01*
X130186669Y-121200501D01*
X130287489Y-121200853D01*
X130288648Y-121200594D01*
X130290383Y-121200500D01*
X131959618Y-121200500D01*
X131960656Y-121200505D01*
X132050016Y-121201441D01*
X132093250Y-121192093D01*
X132103125Y-121190477D01*
X132120559Y-121188521D01*
X132141584Y-121186163D01*
X132141588Y-121186162D01*
X132147081Y-121185546D01*
X132152301Y-121183728D01*
X132152306Y-121183727D01*
X132179926Y-121174108D01*
X132191564Y-121170837D01*
X132220139Y-121164659D01*
X132225551Y-121163489D01*
X132230565Y-121161151D01*
X132230571Y-121161149D01*
X132265633Y-121144799D01*
X132274915Y-121141030D01*
X132311453Y-121128306D01*
X132316682Y-121126485D01*
X132346175Y-121108056D01*
X132356796Y-121102290D01*
X132383302Y-121089930D01*
X132383309Y-121089926D01*
X132388316Y-121087591D01*
X132392682Y-121084204D01*
X132392689Y-121084200D01*
X132423268Y-121060480D01*
X132431484Y-121054748D01*
X132468984Y-121031316D01*
X132497437Y-121003061D01*
X132498146Y-121002398D01*
X132498786Y-121001901D01*
X132524646Y-120976041D01*
X132524891Y-120975798D01*
X132594008Y-120907162D01*
X132594014Y-120907155D01*
X132596416Y-120904770D01*
X132597051Y-120903769D01*
X132598211Y-120902476D01*
X133292341Y-120208346D01*
X133346858Y-120180569D01*
X133411846Y-120192613D01*
X133511492Y-120250144D01*
X133696518Y-120310262D01*
X133841496Y-120325500D01*
X133938504Y-120325500D01*
X134083482Y-120310262D01*
X134268508Y-120250144D01*
X134436992Y-120152870D01*
X134486312Y-120108462D01*
X134577716Y-120026162D01*
X134577719Y-120026158D01*
X134581569Y-120022692D01*
X134695922Y-119865299D01*
X134723862Y-119802544D01*
X134772942Y-119692309D01*
X134772943Y-119692305D01*
X134775051Y-119687571D01*
X134815500Y-119497274D01*
X134815500Y-119302726D01*
X134775051Y-119112429D01*
X134695922Y-118934701D01*
X134581569Y-118777308D01*
X134577719Y-118773842D01*
X134577716Y-118773838D01*
X134440848Y-118650602D01*
X134436992Y-118647130D01*
X134432502Y-118644538D01*
X134432497Y-118644534D01*
X134400001Y-118625773D01*
X134359059Y-118580304D01*
X134350500Y-118540036D01*
X134350499Y-117193882D01*
X134350499Y-117190640D01*
X134335044Y-117073238D01*
X134332562Y-117067246D01*
X134332561Y-117067242D01*
X134277018Y-116933152D01*
X134274536Y-116927159D01*
X134270587Y-116922013D01*
X134267341Y-116916390D01*
X134268633Y-116915644D01*
X134250500Y-116862228D01*
X134250500Y-116421279D01*
X134269407Y-116363088D01*
X134291308Y-116341188D01*
X134303230Y-116332526D01*
X134422859Y-116199665D01*
X134501647Y-116063201D01*
X134517375Y-116042703D01*
X135306712Y-115253366D01*
X135307449Y-115252637D01*
X135367315Y-115194012D01*
X135371268Y-115190141D01*
X135385787Y-115167612D01*
X135395225Y-115152967D01*
X135401071Y-115144832D01*
X135425210Y-115114593D01*
X135425211Y-115114592D01*
X135428664Y-115110266D01*
X135431070Y-115105289D01*
X135431075Y-115105281D01*
X135443803Y-115078952D01*
X135449718Y-115068411D01*
X135465557Y-115043834D01*
X135465558Y-115043832D01*
X135468554Y-115039183D01*
X135483688Y-114997604D01*
X135487578Y-114988397D01*
X135504416Y-114953566D01*
X135504417Y-114953564D01*
X135506827Y-114948578D01*
X135514651Y-114914687D01*
X135518084Y-114903102D01*
X135528083Y-114875631D01*
X135528085Y-114875624D01*
X135529978Y-114870422D01*
X135535521Y-114826546D01*
X135537277Y-114816685D01*
X135545981Y-114778981D01*
X135547226Y-114773589D01*
X135547366Y-114733508D01*
X135547399Y-114732519D01*
X135547500Y-114731717D01*
X135547500Y-114695108D01*
X135547853Y-114594000D01*
X135547594Y-114592841D01*
X135547500Y-114591106D01*
X135547500Y-112974500D01*
X135566407Y-112916309D01*
X135615907Y-112880345D01*
X135646500Y-112875500D01*
X135723566Y-112875500D01*
X135743849Y-112874117D01*
X135761755Y-112872897D01*
X135761759Y-112872896D01*
X135766107Y-112872600D01*
X135816276Y-112860091D01*
X135940199Y-112829194D01*
X135940201Y-112829193D01*
X135945408Y-112827895D01*
X135962411Y-112819455D01*
X136077268Y-112762439D01*
X136110926Y-112745731D01*
X136115103Y-112742372D01*
X136115107Y-112742370D01*
X136250756Y-112633304D01*
X136254940Y-112629940D01*
X136344404Y-112518670D01*
X136367370Y-112490107D01*
X136367372Y-112490103D01*
X136370731Y-112485926D01*
X136448671Y-112328917D01*
X136450508Y-112325217D01*
X136450509Y-112325215D01*
X136452895Y-112320408D01*
X136458525Y-112297830D01*
X136496544Y-112145342D01*
X136497600Y-112141107D01*
X136498164Y-112132841D01*
X136500385Y-112100248D01*
X136500500Y-112098566D01*
X136500500Y-109901434D01*
X136497600Y-109858893D01*
X136452895Y-109679592D01*
X136439796Y-109653203D01*
X136373116Y-109518879D01*
X136370731Y-109514074D01*
X136367372Y-109509897D01*
X136367370Y-109509893D01*
X136258304Y-109374244D01*
X136254940Y-109370060D01*
X136241791Y-109359488D01*
X136115107Y-109257630D01*
X136115103Y-109257628D01*
X136110926Y-109254269D01*
X135945408Y-109172105D01*
X135940201Y-109170807D01*
X135940199Y-109170806D01*
X135770342Y-109128456D01*
X135770343Y-109128456D01*
X135766107Y-109127400D01*
X135761759Y-109127104D01*
X135761755Y-109127103D01*
X135743849Y-109125883D01*
X135723566Y-109124500D01*
X134001434Y-109124500D01*
X133981151Y-109125883D01*
X133963245Y-109127103D01*
X133963241Y-109127104D01*
X133958893Y-109127400D01*
X133954659Y-109128456D01*
X133954657Y-109128456D01*
X133904750Y-109140899D01*
X133843713Y-109136631D01*
X133796843Y-109097301D01*
X133781800Y-109044840D01*
X133781800Y-108343417D01*
X133786645Y-108312825D01*
X133803893Y-108259739D01*
X133805497Y-108254803D01*
X133810653Y-108205751D01*
X133835540Y-108149855D01*
X133888529Y-108119263D01*
X133909111Y-108117100D01*
X134994031Y-108117100D01*
X135052221Y-108136007D01*
X135081407Y-108157212D01*
X135144548Y-108185324D01*
X135239995Y-108227820D01*
X135239999Y-108227821D01*
X135244733Y-108229929D01*
X135249803Y-108231007D01*
X135249804Y-108231007D01*
X135277341Y-108236860D01*
X135419609Y-108267100D01*
X135598391Y-108267100D01*
X135740659Y-108236860D01*
X135768196Y-108231007D01*
X135768197Y-108231007D01*
X135773267Y-108229929D01*
X135778001Y-108227821D01*
X135778005Y-108227820D01*
X135873452Y-108185324D01*
X135936593Y-108157212D01*
X136043711Y-108079385D01*
X136077031Y-108055177D01*
X136077032Y-108055176D01*
X136081230Y-108052126D01*
X136200859Y-107919265D01*
X136290250Y-107764435D01*
X136322513Y-107665141D01*
X136343895Y-107599335D01*
X136343896Y-107599330D01*
X136345497Y-107594403D01*
X136364185Y-107416600D01*
X136345497Y-107238797D01*
X136343896Y-107233870D01*
X136343895Y-107233865D01*
X136291852Y-107073695D01*
X136291851Y-107073694D01*
X136290250Y-107068765D01*
X136200859Y-106913935D01*
X136127385Y-106832334D01*
X136102498Y-106776438D01*
X136115219Y-106716590D01*
X136127383Y-106699849D01*
X136150059Y-106674665D01*
X136166924Y-106645454D01*
X136236858Y-106524325D01*
X136236859Y-106524323D01*
X136239450Y-106519835D01*
X136241052Y-106514905D01*
X136293095Y-106354735D01*
X136293096Y-106354730D01*
X136294697Y-106349803D01*
X136313385Y-106172000D01*
X136294697Y-105994197D01*
X136293096Y-105989270D01*
X136293095Y-105989265D01*
X136241052Y-105829095D01*
X136241051Y-105829094D01*
X136239450Y-105824165D01*
X136222368Y-105794577D01*
X136152652Y-105673826D01*
X136152651Y-105673825D01*
X136150059Y-105669335D01*
X136030430Y-105536474D01*
X135885793Y-105431388D01*
X135773062Y-105381197D01*
X135727205Y-105360780D01*
X135727201Y-105360779D01*
X135722467Y-105358671D01*
X135717392Y-105357592D01*
X135717388Y-105357591D01*
X135705257Y-105355012D01*
X135655837Y-105328180D01*
X135343471Y-105015814D01*
X135315694Y-104961297D01*
X135325265Y-104900865D01*
X135339904Y-104879566D01*
X135435387Y-104773521D01*
X135438859Y-104769665D01*
X135441452Y-104765174D01*
X135525658Y-104619325D01*
X135525659Y-104619323D01*
X135528250Y-104614835D01*
X135533641Y-104598244D01*
X135533980Y-104597202D01*
X135569946Y-104547703D01*
X135628137Y-104528798D01*
X135686327Y-104547707D01*
X135698138Y-104557794D01*
X139643071Y-108502727D01*
X139647670Y-108507651D01*
X139685831Y-108551396D01*
X139690710Y-108554825D01*
X139738071Y-108588111D01*
X139742225Y-108591197D01*
X139792457Y-108630583D01*
X139800842Y-108634369D01*
X139817018Y-108643596D01*
X139824547Y-108648887D01*
X139884062Y-108672091D01*
X139888773Y-108674071D01*
X139946984Y-108700355D01*
X139955390Y-108701913D01*
X139956026Y-108702031D01*
X139973938Y-108707133D01*
X139982513Y-108710476D01*
X140045819Y-108718810D01*
X140050914Y-108719616D01*
X140083087Y-108725580D01*
X140107820Y-108730164D01*
X140107823Y-108730164D01*
X140113692Y-108731252D01*
X140175925Y-108727664D01*
X140181622Y-108727500D01*
X140819931Y-108727500D01*
X140878121Y-108746407D01*
X140907307Y-108767612D01*
X140953421Y-108788143D01*
X141065893Y-108838219D01*
X141065896Y-108838220D01*
X141070633Y-108840329D01*
X141075706Y-108841407D01*
X141075705Y-108841407D01*
X141105484Y-108847737D01*
X141158472Y-108878330D01*
X141183358Y-108934226D01*
X141183900Y-108944574D01*
X141183900Y-116406671D01*
X141183671Y-116413405D01*
X141179722Y-116471330D01*
X141180747Y-116477201D01*
X141180747Y-116477206D01*
X141187078Y-116513479D01*
X141178457Y-116574054D01*
X141135877Y-116617993D01*
X141089552Y-116629500D01*
X140832556Y-116629501D01*
X140822240Y-116629501D01*
X140819029Y-116629924D01*
X140819024Y-116629924D01*
X140737271Y-116640686D01*
X140704838Y-116644956D01*
X140698846Y-116647438D01*
X140698842Y-116647439D01*
X140598847Y-116688859D01*
X140558759Y-116705464D01*
X140433318Y-116801718D01*
X140337064Y-116927159D01*
X140276556Y-117073238D01*
X140261100Y-117190639D01*
X140261100Y-117193880D01*
X140261101Y-118540036D01*
X140242194Y-118598227D01*
X140211601Y-118625772D01*
X140174608Y-118647130D01*
X140170752Y-118650602D01*
X140033884Y-118773838D01*
X140033881Y-118773842D01*
X140030031Y-118777308D01*
X139915678Y-118934701D01*
X139836549Y-119112429D01*
X139796100Y-119302726D01*
X139796100Y-119497274D01*
X139836549Y-119687571D01*
X139838657Y-119692305D01*
X139838658Y-119692309D01*
X139887738Y-119802544D01*
X139915678Y-119865299D01*
X140030031Y-120022692D01*
X140033881Y-120026158D01*
X140033884Y-120026162D01*
X140125288Y-120108462D01*
X140174608Y-120152870D01*
X140343092Y-120250144D01*
X140528118Y-120310262D01*
X140673096Y-120325500D01*
X140770104Y-120325500D01*
X140915082Y-120310262D01*
X141069771Y-120260001D01*
X141130955Y-120260001D01*
X141180455Y-120295965D01*
X141199357Y-120355193D01*
X141198715Y-120416548D01*
X141198559Y-120431407D01*
X141200292Y-120439422D01*
X141207905Y-120474632D01*
X141209524Y-120484519D01*
X141212628Y-120512189D01*
X141214454Y-120528472D01*
X141216272Y-120533692D01*
X141216273Y-120533697D01*
X141225892Y-120561317D01*
X141229163Y-120572955D01*
X141236511Y-120606942D01*
X141238849Y-120611956D01*
X141238851Y-120611962D01*
X141255201Y-120647024D01*
X141258970Y-120656306D01*
X141273515Y-120698073D01*
X141276446Y-120702763D01*
X141291944Y-120727566D01*
X141297710Y-120738187D01*
X141310070Y-120764693D01*
X141310074Y-120764700D01*
X141312409Y-120769707D01*
X141315796Y-120774073D01*
X141315800Y-120774080D01*
X141339520Y-120804659D01*
X141345251Y-120812873D01*
X141368684Y-120850375D01*
X141396939Y-120878828D01*
X141397602Y-120879537D01*
X141398099Y-120880177D01*
X141423959Y-120906037D01*
X141424202Y-120906282D01*
X141492838Y-120975399D01*
X141492845Y-120975405D01*
X141495230Y-120977807D01*
X141496231Y-120978442D01*
X141497524Y-120979602D01*
X141977634Y-121459712D01*
X141978363Y-121460449D01*
X142040859Y-121524268D01*
X142045511Y-121527266D01*
X142078036Y-121548227D01*
X142086170Y-121554071D01*
X142120734Y-121581663D01*
X142125718Y-121584072D01*
X142125722Y-121584075D01*
X142152039Y-121596797D01*
X142162577Y-121602710D01*
X142191817Y-121621554D01*
X142233392Y-121636686D01*
X142242598Y-121640576D01*
X142277438Y-121657418D01*
X142277441Y-121657419D01*
X142282422Y-121659827D01*
X142316317Y-121667652D01*
X142327887Y-121671079D01*
X142360578Y-121682978D01*
X142402258Y-121688244D01*
X142404454Y-121688521D01*
X142414314Y-121690277D01*
X142431621Y-121694272D01*
X142457410Y-121700226D01*
X142497492Y-121700366D01*
X142498481Y-121700399D01*
X142499283Y-121700500D01*
X142535831Y-121700500D01*
X142536179Y-121700501D01*
X142637000Y-121700853D01*
X142638159Y-121700594D01*
X142639894Y-121700500D01*
X144591009Y-121700500D01*
X144592047Y-121700505D01*
X144681407Y-121701441D01*
X144724641Y-121692093D01*
X144734516Y-121690477D01*
X144751950Y-121688521D01*
X144772975Y-121686163D01*
X144772979Y-121686162D01*
X144778472Y-121685546D01*
X144783692Y-121683728D01*
X144783697Y-121683727D01*
X144811317Y-121674108D01*
X144822955Y-121670837D01*
X144851530Y-121664659D01*
X144856942Y-121663489D01*
X144861956Y-121661151D01*
X144861962Y-121661149D01*
X144897024Y-121644799D01*
X144906306Y-121641030D01*
X144942844Y-121628306D01*
X144948073Y-121626485D01*
X144977566Y-121608056D01*
X144988187Y-121602290D01*
X145014693Y-121589930D01*
X145014700Y-121589926D01*
X145019707Y-121587591D01*
X145024073Y-121584204D01*
X145024080Y-121584200D01*
X145054659Y-121560480D01*
X145062875Y-121554748D01*
X145063957Y-121554072D01*
X145100375Y-121531316D01*
X145128828Y-121503061D01*
X145129537Y-121502398D01*
X145130177Y-121501901D01*
X145156037Y-121476041D01*
X145156282Y-121475798D01*
X145225399Y-121407162D01*
X145225405Y-121407155D01*
X145227807Y-121404770D01*
X145228442Y-121403769D01*
X145229602Y-121402476D01*
X145809712Y-120822366D01*
X145810449Y-120821637D01*
X145870315Y-120763012D01*
X145874268Y-120759141D01*
X145891307Y-120732701D01*
X145898225Y-120721967D01*
X145904071Y-120713832D01*
X145928210Y-120683593D01*
X145928211Y-120683592D01*
X145931664Y-120679266D01*
X145934070Y-120674289D01*
X145934075Y-120674281D01*
X145946803Y-120647952D01*
X145952718Y-120637411D01*
X145968557Y-120612834D01*
X145968558Y-120612832D01*
X145971554Y-120608183D01*
X145986688Y-120566604D01*
X145990578Y-120557397D01*
X146007418Y-120522561D01*
X146009827Y-120517578D01*
X146017651Y-120483689D01*
X146021084Y-120472099D01*
X146031085Y-120444624D01*
X146031086Y-120444620D01*
X146032978Y-120439422D01*
X146033991Y-120431407D01*
X146038520Y-120395554D01*
X146040276Y-120385694D01*
X146050227Y-120342590D01*
X146052157Y-120343035D01*
X146074139Y-120295010D01*
X146127441Y-120264968D01*
X146177611Y-120267858D01*
X146308118Y-120310262D01*
X146453096Y-120325500D01*
X146550104Y-120325500D01*
X146695082Y-120310262D01*
X146880108Y-120250144D01*
X147048592Y-120152870D01*
X147097912Y-120108462D01*
X147189316Y-120026162D01*
X147189319Y-120026158D01*
X147193169Y-120022692D01*
X147307522Y-119865299D01*
X147335462Y-119802544D01*
X147384542Y-119692309D01*
X147384543Y-119692305D01*
X147386651Y-119687571D01*
X147427100Y-119497274D01*
X147427100Y-119302726D01*
X147386651Y-119112429D01*
X147307522Y-118934701D01*
X147193169Y-118777308D01*
X147189319Y-118773842D01*
X147189316Y-118773838D01*
X147052448Y-118650602D01*
X147048592Y-118647130D01*
X147044102Y-118644538D01*
X147044097Y-118644534D01*
X147011601Y-118625773D01*
X146970659Y-118580304D01*
X146962100Y-118540036D01*
X146962099Y-117193882D01*
X146962099Y-117190640D01*
X146946644Y-117073238D01*
X146944162Y-117067246D01*
X146944161Y-117067242D01*
X146888619Y-116933154D01*
X146888618Y-116933152D01*
X146886136Y-116927159D01*
X146807958Y-116825275D01*
X146787500Y-116765008D01*
X146787500Y-113674491D01*
X146787505Y-113673454D01*
X146788383Y-113589626D01*
X146788441Y-113584093D01*
X146779093Y-113540859D01*
X146777476Y-113530981D01*
X146773163Y-113492525D01*
X146773162Y-113492521D01*
X146772546Y-113487028D01*
X146770728Y-113481808D01*
X146770727Y-113481803D01*
X146761108Y-113454183D01*
X146757837Y-113442545D01*
X146755080Y-113429793D01*
X146750489Y-113408558D01*
X146731795Y-113368468D01*
X146728032Y-113359200D01*
X146715305Y-113322654D01*
X146713485Y-113317427D01*
X146710554Y-113312736D01*
X146710550Y-113312728D01*
X146695054Y-113287930D01*
X146689292Y-113277319D01*
X146674590Y-113245792D01*
X146647477Y-113210838D01*
X146641755Y-113202635D01*
X146621253Y-113169824D01*
X146621249Y-113169819D01*
X146618316Y-113165125D01*
X146590061Y-113136672D01*
X146589398Y-113135963D01*
X146588901Y-113135323D01*
X146563041Y-113109463D01*
X146562798Y-113109218D01*
X146494162Y-113040101D01*
X146494155Y-113040095D01*
X146491770Y-113037693D01*
X146490769Y-113037058D01*
X146489476Y-113035898D01*
X146204791Y-112751213D01*
X146177014Y-112696696D01*
X146186585Y-112636264D01*
X146212761Y-112604055D01*
X146300756Y-112533304D01*
X146304940Y-112529940D01*
X146336967Y-112490107D01*
X146417370Y-112390107D01*
X146417372Y-112390103D01*
X146420731Y-112385926D01*
X146471683Y-112283285D01*
X146500508Y-112225217D01*
X146500509Y-112225215D01*
X146502895Y-112220408D01*
X146504441Y-112214210D01*
X146542498Y-112061570D01*
X146547600Y-112041107D01*
X146550500Y-111998566D01*
X146550500Y-110899364D01*
X146569407Y-110841173D01*
X146618907Y-110805209D01*
X146680093Y-110805209D01*
X146719504Y-110829360D01*
X147413207Y-111523064D01*
X148038304Y-112148161D01*
X148066081Y-112202678D01*
X148067300Y-112218165D01*
X148067300Y-113912776D01*
X148054036Y-113962276D01*
X147989144Y-114074671D01*
X147989142Y-114074676D01*
X147986550Y-114079165D01*
X147984948Y-114084096D01*
X147932905Y-114244265D01*
X147932904Y-114244270D01*
X147931303Y-114249197D01*
X147912615Y-114427000D01*
X147931303Y-114604803D01*
X147932904Y-114609730D01*
X147932905Y-114609735D01*
X147979975Y-114754600D01*
X147986550Y-114774835D01*
X147989141Y-114779323D01*
X147989142Y-114779325D01*
X148059952Y-114901971D01*
X148075941Y-114929665D01*
X148079413Y-114933521D01*
X148174817Y-115039477D01*
X148195570Y-115062526D01*
X148199768Y-115065576D01*
X148199769Y-115065577D01*
X148225755Y-115084457D01*
X148340207Y-115167612D01*
X148421870Y-115203970D01*
X148498795Y-115238220D01*
X148498799Y-115238221D01*
X148503533Y-115240329D01*
X148508603Y-115241407D01*
X148508604Y-115241407D01*
X148524807Y-115244851D01*
X148678409Y-115277500D01*
X148857191Y-115277500D01*
X149010793Y-115244851D01*
X149026996Y-115241407D01*
X149026997Y-115241407D01*
X149032067Y-115240329D01*
X149036801Y-115238221D01*
X149036805Y-115238220D01*
X149113730Y-115203970D01*
X149195393Y-115167612D01*
X149309845Y-115084457D01*
X149335831Y-115065577D01*
X149335832Y-115065576D01*
X149340030Y-115062526D01*
X149360784Y-115039477D01*
X149456187Y-114933521D01*
X149459659Y-114929665D01*
X149475648Y-114901971D01*
X149546458Y-114779325D01*
X149546459Y-114779323D01*
X149549050Y-114774835D01*
X149555625Y-114754600D01*
X149602695Y-114609735D01*
X149602696Y-114609730D01*
X149604297Y-114604803D01*
X149622985Y-114427000D01*
X149604297Y-114249197D01*
X149602696Y-114244270D01*
X149602695Y-114244265D01*
X149550652Y-114084096D01*
X149549050Y-114079165D01*
X149546458Y-114074676D01*
X149546456Y-114074671D01*
X149481564Y-113962276D01*
X149468300Y-113912776D01*
X149468300Y-111914729D01*
X149468529Y-111907995D01*
X149472072Y-111856020D01*
X149472478Y-111850070D01*
X149471453Y-111844199D01*
X149471453Y-111844194D01*
X149461502Y-111787180D01*
X149460745Y-111782053D01*
X149453793Y-111724604D01*
X149453793Y-111724603D01*
X149453076Y-111718680D01*
X149449822Y-111710068D01*
X149444908Y-111692104D01*
X149444353Y-111688924D01*
X149443327Y-111683046D01*
X149417668Y-111624592D01*
X149415710Y-111619794D01*
X149395255Y-111565661D01*
X149393145Y-111560077D01*
X149387936Y-111552498D01*
X149378875Y-111536220D01*
X149375178Y-111527797D01*
X149342730Y-111485510D01*
X149336308Y-111477141D01*
X149333262Y-111472948D01*
X149297112Y-111420349D01*
X149250574Y-111378885D01*
X149246428Y-111374972D01*
X149180549Y-111309093D01*
X149152772Y-111254576D01*
X149162343Y-111194144D01*
X149192362Y-111158997D01*
X149234231Y-111128577D01*
X149234232Y-111128576D01*
X149238430Y-111125526D01*
X149358059Y-110992665D01*
X149360652Y-110988174D01*
X149444858Y-110842325D01*
X149444859Y-110842323D01*
X149447450Y-110837835D01*
X149449052Y-110832905D01*
X149501095Y-110672735D01*
X149501096Y-110672730D01*
X149502697Y-110667803D01*
X149521385Y-110490000D01*
X149502697Y-110312197D01*
X149501096Y-110307270D01*
X149501095Y-110307265D01*
X149449052Y-110147095D01*
X149449051Y-110147094D01*
X149447450Y-110142165D01*
X149431398Y-110114361D01*
X149360652Y-109991826D01*
X149360651Y-109991825D01*
X149358059Y-109987335D01*
X149238430Y-109854474D01*
X149093793Y-109749388D01*
X149012130Y-109713030D01*
X148935205Y-109678780D01*
X148935201Y-109678779D01*
X148930467Y-109676671D01*
X148848744Y-109659300D01*
X148799324Y-109632467D01*
X148272356Y-109105499D01*
X148244579Y-109050982D01*
X148254150Y-108990550D01*
X148297415Y-108947285D01*
X148334766Y-108936787D01*
X148791800Y-108901631D01*
X149590366Y-108840203D01*
X149590367Y-108840203D01*
X149606000Y-108839000D01*
X149606000Y-95758000D01*
X149017895Y-95758000D01*
X148959704Y-95739093D01*
X148930620Y-95700636D01*
X148928695Y-95701592D01*
X148861676Y-95566583D01*
X148846531Y-95536074D01*
X148843172Y-95531897D01*
X148843170Y-95531893D01*
X148734104Y-95396244D01*
X148730740Y-95392060D01*
X148689210Y-95358669D01*
X148590907Y-95279630D01*
X148590903Y-95279628D01*
X148586726Y-95276269D01*
X148482932Y-95224745D01*
X148426017Y-95196492D01*
X148426015Y-95196491D01*
X148421208Y-95194105D01*
X148416001Y-95192807D01*
X148415999Y-95192806D01*
X148251292Y-95151740D01*
X148241907Y-95149400D01*
X148237559Y-95149104D01*
X148237555Y-95149103D01*
X148219649Y-95147883D01*
X148199366Y-95146500D01*
X147402234Y-95146500D01*
X147359693Y-95149400D01*
X147355461Y-95150455D01*
X147351144Y-95151135D01*
X147351085Y-95150761D01*
X147324895Y-95153032D01*
X147324506Y-95153004D01*
X147321000Y-95152500D01*
X146684000Y-95152500D01*
X146555295Y-95166337D01*
X146552725Y-95166896D01*
X146552719Y-95166897D01*
X146525999Y-95172710D01*
X146502953Y-95177723D01*
X146367089Y-95224745D01*
X146361917Y-95228157D01*
X146361916Y-95228157D01*
X146238995Y-95309237D01*
X146235141Y-95311779D01*
X146232695Y-95313899D01*
X146232693Y-95313900D01*
X146196068Y-95345636D01*
X146181485Y-95358272D01*
X146160158Y-95377659D01*
X146157751Y-95380646D01*
X146157750Y-95380647D01*
X146151264Y-95388696D01*
X146060976Y-95500737D01*
X146058353Y-95506666D01*
X146058352Y-95506668D01*
X146047193Y-95531893D01*
X145997029Y-95645291D01*
X145977027Y-95713412D01*
X145952500Y-95884000D01*
X145952500Y-98736500D01*
X145933593Y-98794691D01*
X145884093Y-98830655D01*
X145853500Y-98835500D01*
X145727567Y-98835500D01*
X145683548Y-98825175D01*
X145544408Y-98756105D01*
X145539201Y-98754807D01*
X145539199Y-98754806D01*
X145415276Y-98723909D01*
X145365107Y-98711400D01*
X145360759Y-98711104D01*
X145360755Y-98711103D01*
X145342849Y-98709883D01*
X145322566Y-98708500D01*
X143600434Y-98708500D01*
X143580151Y-98709883D01*
X143562245Y-98711103D01*
X143562241Y-98711104D01*
X143557893Y-98711400D01*
X143507724Y-98723909D01*
X143383801Y-98754806D01*
X143383799Y-98754807D01*
X143378592Y-98756105D01*
X143213074Y-98838269D01*
X143208897Y-98841628D01*
X143208893Y-98841630D01*
X143178234Y-98866281D01*
X143069060Y-98954060D01*
X143065696Y-98958244D01*
X142956630Y-99093893D01*
X142956628Y-99093897D01*
X142953269Y-99098074D01*
X142928244Y-99148487D01*
X142893535Y-99218408D01*
X142871105Y-99263592D01*
X142869807Y-99268799D01*
X142869806Y-99268801D01*
X142850649Y-99345636D01*
X142826400Y-99442893D01*
X142823500Y-99485434D01*
X142823500Y-101682566D01*
X142826400Y-101725107D01*
X142832339Y-101748926D01*
X142868246Y-101892940D01*
X142871105Y-101904408D01*
X142953269Y-102069926D01*
X142956628Y-102074103D01*
X142956630Y-102074107D01*
X143008404Y-102138500D01*
X143069060Y-102213940D01*
X143073244Y-102217304D01*
X143208893Y-102326370D01*
X143208897Y-102326372D01*
X143213074Y-102329731D01*
X143378592Y-102411895D01*
X143383799Y-102413193D01*
X143383801Y-102413194D01*
X143476924Y-102436412D01*
X143557893Y-102456600D01*
X143562241Y-102456896D01*
X143562245Y-102456897D01*
X143580151Y-102458117D01*
X143600434Y-102459500D01*
X144847180Y-102459500D01*
X144898698Y-102473964D01*
X144903737Y-102478024D01*
X145048291Y-102541971D01*
X145051400Y-102542884D01*
X145051403Y-102542885D01*
X145077875Y-102550658D01*
X145116412Y-102561973D01*
X145287000Y-102586500D01*
X145853500Y-102586500D01*
X145911691Y-102605407D01*
X145947655Y-102654907D01*
X145952500Y-102685500D01*
X145952500Y-105581435D01*
X145933593Y-105639626D01*
X145884093Y-105675590D01*
X145822907Y-105675590D01*
X145783496Y-105651439D01*
X138229561Y-98097504D01*
X138201784Y-98042987D01*
X138211355Y-97982555D01*
X138254620Y-97939290D01*
X138299565Y-97928500D01*
X138756036Y-97928500D01*
X138814227Y-97947407D01*
X138826040Y-97957496D01*
X139870877Y-99002334D01*
X139875476Y-99007258D01*
X139913631Y-99050996D01*
X139918513Y-99054427D01*
X139918514Y-99054428D01*
X139965852Y-99087697D01*
X139970005Y-99090782D01*
X139979306Y-99098074D01*
X140015558Y-99126500D01*
X140015561Y-99126502D01*
X140020257Y-99130184D01*
X140025700Y-99132642D01*
X140025701Y-99132642D01*
X140028635Y-99133967D01*
X140044828Y-99143202D01*
X140052347Y-99148487D01*
X140057906Y-99150654D01*
X140057909Y-99150656D01*
X140111827Y-99171678D01*
X140116603Y-99173686D01*
X140144880Y-99186453D01*
X140174784Y-99199955D01*
X140183513Y-99201573D01*
X140183826Y-99201631D01*
X140201738Y-99206733D01*
X140210313Y-99210076D01*
X140273619Y-99218410D01*
X140278714Y-99219216D01*
X140310887Y-99225180D01*
X140335620Y-99229764D01*
X140335623Y-99229764D01*
X140341492Y-99230852D01*
X140403725Y-99227264D01*
X140409422Y-99227100D01*
X141729671Y-99227100D01*
X141736405Y-99227329D01*
X141794330Y-99231278D01*
X141800201Y-99230253D01*
X141800206Y-99230253D01*
X141857220Y-99220302D01*
X141862347Y-99219545D01*
X141919796Y-99212593D01*
X141919797Y-99212593D01*
X141925720Y-99211876D01*
X141934332Y-99208622D01*
X141952295Y-99203708D01*
X141961354Y-99202127D01*
X141985942Y-99191334D01*
X142019804Y-99176470D01*
X142024602Y-99174512D01*
X142076197Y-99155016D01*
X142084323Y-99151945D01*
X142089238Y-99148567D01*
X142089246Y-99148563D01*
X142091905Y-99146735D01*
X142108178Y-99137677D01*
X142111139Y-99136377D01*
X142116602Y-99133979D01*
X142121334Y-99130348D01*
X142121339Y-99130345D01*
X142167254Y-99095113D01*
X142171446Y-99092067D01*
X142219132Y-99059293D01*
X142219133Y-99059292D01*
X142224051Y-99055912D01*
X142228018Y-99051459D01*
X142228022Y-99051456D01*
X142265515Y-99009374D01*
X142269428Y-99005228D01*
X145418135Y-95856522D01*
X145423059Y-95851923D01*
X145462299Y-95817692D01*
X145466796Y-95813769D01*
X145503500Y-95761544D01*
X145506590Y-95757384D01*
X145542298Y-95711843D01*
X145542299Y-95711842D01*
X145545983Y-95707143D01*
X145549769Y-95698758D01*
X145558996Y-95682582D01*
X145564287Y-95675053D01*
X145587491Y-95615538D01*
X145589471Y-95610827D01*
X145615755Y-95552616D01*
X145617431Y-95543574D01*
X145622534Y-95525658D01*
X145625876Y-95517087D01*
X145634210Y-95453781D01*
X145635019Y-95448670D01*
X145637308Y-95436324D01*
X145642061Y-95410679D01*
X145645564Y-95391780D01*
X145645564Y-95391777D01*
X145646652Y-95385908D01*
X145643064Y-95323675D01*
X145642900Y-95317978D01*
X145642900Y-90233129D01*
X145643129Y-90226395D01*
X145644308Y-90209105D01*
X145647078Y-90168470D01*
X145646053Y-90162599D01*
X145646053Y-90162594D01*
X145636102Y-90105580D01*
X145635345Y-90100453D01*
X145628393Y-90043004D01*
X145628393Y-90043003D01*
X145627676Y-90037080D01*
X145624422Y-90028468D01*
X145619508Y-90010504D01*
X145617927Y-90001446D01*
X145605751Y-89973707D01*
X145592270Y-89942996D01*
X145590312Y-89938198D01*
X145569855Y-89884061D01*
X145567745Y-89878477D01*
X145564367Y-89873562D01*
X145564363Y-89873554D01*
X145562535Y-89870895D01*
X145553477Y-89854622D01*
X145552177Y-89851661D01*
X145549779Y-89846198D01*
X145546148Y-89841466D01*
X145546145Y-89841461D01*
X145510913Y-89795546D01*
X145507867Y-89791354D01*
X145475093Y-89743668D01*
X145475092Y-89743667D01*
X145471712Y-89738749D01*
X145467259Y-89734782D01*
X145467256Y-89734778D01*
X145425174Y-89697285D01*
X145421028Y-89693372D01*
X144533096Y-88805439D01*
X144505319Y-88750922D01*
X144504100Y-88735435D01*
X144504099Y-87530482D01*
X144504099Y-87527240D01*
X144499791Y-87494510D01*
X144489491Y-87416273D01*
X144488644Y-87409838D01*
X144486162Y-87403846D01*
X144486161Y-87403842D01*
X144438762Y-87289412D01*
X144428136Y-87263759D01*
X144331882Y-87138318D01*
X144206441Y-87042064D01*
X144060362Y-86981556D01*
X143942961Y-86966100D01*
X143103730Y-86966100D01*
X142264240Y-86966101D01*
X142261029Y-86966524D01*
X142261024Y-86966524D01*
X142179271Y-86977286D01*
X142146838Y-86981556D01*
X142140846Y-86984038D01*
X142140842Y-86984039D01*
X142049422Y-87021907D01*
X142000759Y-87042064D01*
X141875318Y-87138318D01*
X141779064Y-87263759D01*
X141718556Y-87409838D01*
X141703100Y-87527239D01*
X141703101Y-89205960D01*
X141703524Y-89209171D01*
X141703524Y-89209176D01*
X141710417Y-89261538D01*
X141718556Y-89323362D01*
X141721038Y-89329354D01*
X141721039Y-89329358D01*
X141746120Y-89389907D01*
X141779064Y-89469441D01*
X141875318Y-89594882D01*
X142000759Y-89691136D01*
X142061409Y-89716258D01*
X142101523Y-89732874D01*
X142148048Y-89772611D01*
X142162332Y-89832106D01*
X142135211Y-89892735D01*
X142011477Y-90022216D01*
X142009185Y-90025576D01*
X141883989Y-90209105D01*
X141883986Y-90209111D01*
X141881699Y-90212463D01*
X141784736Y-90421352D01*
X141749283Y-90549192D01*
X141730189Y-90618044D01*
X141723192Y-90643273D01*
X141698719Y-90872265D01*
X141711976Y-91102180D01*
X141723915Y-91155157D01*
X141760397Y-91317038D01*
X141762606Y-91326842D01*
X141764135Y-91330606D01*
X141764136Y-91330611D01*
X141847718Y-91536448D01*
X141849249Y-91540218D01*
X141851373Y-91543684D01*
X141851375Y-91543688D01*
X141899436Y-91622116D01*
X141969579Y-91736578D01*
X141972238Y-91739648D01*
X141972239Y-91739649D01*
X141986921Y-91756598D01*
X142120363Y-91910648D01*
X142297553Y-92057754D01*
X142496390Y-92173945D01*
X142711534Y-92256101D01*
X142715509Y-92256910D01*
X142715510Y-92256910D01*
X142933224Y-92301204D01*
X142933228Y-92301204D01*
X142937207Y-92302014D01*
X142941267Y-92302163D01*
X142941268Y-92302163D01*
X143145928Y-92309668D01*
X143203387Y-92330696D01*
X143237512Y-92381480D01*
X143241300Y-92408602D01*
X143241300Y-95268229D01*
X143222393Y-95326420D01*
X143212304Y-95338233D01*
X141679910Y-96870627D01*
X141625393Y-96898404D01*
X141564961Y-96888833D01*
X141535836Y-96863955D01*
X141534859Y-96864835D01*
X141418702Y-96735830D01*
X141415230Y-96731974D01*
X141270593Y-96626888D01*
X141177456Y-96585421D01*
X141112005Y-96556280D01*
X141112001Y-96556279D01*
X141107267Y-96554171D01*
X141025544Y-96536800D01*
X140976124Y-96509967D01*
X138834022Y-94367865D01*
X138829423Y-94362941D01*
X138795192Y-94323701D01*
X138791269Y-94319204D01*
X138739039Y-94282497D01*
X138734886Y-94279412D01*
X138730923Y-94276304D01*
X138715968Y-94264578D01*
X138689342Y-94243700D01*
X138689339Y-94243698D01*
X138684643Y-94240016D01*
X138679199Y-94237558D01*
X138676265Y-94236233D01*
X138660072Y-94226998D01*
X138652553Y-94221713D01*
X138646994Y-94219546D01*
X138646991Y-94219544D01*
X138593073Y-94198522D01*
X138588297Y-94196514D01*
X138560020Y-94183747D01*
X138530116Y-94170245D01*
X138521075Y-94168569D01*
X138503162Y-94163467D01*
X138494587Y-94160124D01*
X138431281Y-94151790D01*
X138426186Y-94150984D01*
X138394013Y-94145020D01*
X138369280Y-94140436D01*
X138369277Y-94140436D01*
X138363408Y-94139348D01*
X138301176Y-94142936D01*
X138295478Y-94143100D01*
X136362694Y-94143100D01*
X136304503Y-94124193D01*
X136268539Y-94074693D01*
X136226867Y-93946440D01*
X136226866Y-93946439D01*
X136225265Y-93941510D01*
X136176195Y-93856517D01*
X136163474Y-93796670D01*
X136165096Y-93786434D01*
X136166096Y-93781732D01*
X136167697Y-93776803D01*
X136170057Y-93754355D01*
X136185843Y-93604157D01*
X136186385Y-93599000D01*
X136167697Y-93421197D01*
X136166096Y-93416270D01*
X136166095Y-93416265D01*
X136114052Y-93256095D01*
X136114051Y-93256094D01*
X136112450Y-93251165D01*
X136099365Y-93228500D01*
X136025652Y-93100826D01*
X136025651Y-93100825D01*
X136023059Y-93096335D01*
X135903430Y-92963474D01*
X135872977Y-92941348D01*
X135865911Y-92936215D01*
X135758793Y-92858388D01*
X135677130Y-92822030D01*
X135600205Y-92787780D01*
X135600201Y-92787779D01*
X135595467Y-92785671D01*
X135590397Y-92784593D01*
X135590396Y-92784593D01*
X135556472Y-92777382D01*
X135420591Y-92748500D01*
X135241809Y-92748500D01*
X135105928Y-92777382D01*
X135072004Y-92784593D01*
X135072003Y-92784593D01*
X135066933Y-92785671D01*
X135048488Y-92793883D01*
X134987640Y-92800279D01*
X134934651Y-92769687D01*
X134909764Y-92713791D01*
X134922485Y-92653943D01*
X134938218Y-92633438D01*
X135259760Y-92311896D01*
X135314277Y-92284119D01*
X135329764Y-92282900D01*
X135639566Y-92282900D01*
X135659849Y-92281517D01*
X135677755Y-92280297D01*
X135677759Y-92280296D01*
X135682107Y-92280000D01*
X135732276Y-92267491D01*
X135856199Y-92236594D01*
X135856201Y-92236593D01*
X135861408Y-92235295D01*
X135932409Y-92200050D01*
X135942326Y-92195127D01*
X136026926Y-92153131D01*
X136031103Y-92149772D01*
X136031107Y-92149770D01*
X136166756Y-92040704D01*
X136170940Y-92037340D01*
X136211905Y-91986390D01*
X136283370Y-91897507D01*
X136283372Y-91897503D01*
X136286731Y-91893326D01*
X136353739Y-91758340D01*
X136366508Y-91732617D01*
X136366509Y-91732615D01*
X136368895Y-91727808D01*
X136413600Y-91548507D01*
X136416500Y-91505966D01*
X136416500Y-91196165D01*
X136435407Y-91137974D01*
X136445496Y-91126161D01*
X136619734Y-90951923D01*
X136624658Y-90947324D01*
X136663899Y-90913092D01*
X136668396Y-90909169D01*
X136705100Y-90856944D01*
X136708190Y-90852784D01*
X136743898Y-90807243D01*
X136743899Y-90807242D01*
X136747583Y-90802543D01*
X136751369Y-90794158D01*
X136760596Y-90777982D01*
X136765887Y-90770453D01*
X136789091Y-90710938D01*
X136791071Y-90706227D01*
X136817355Y-90648016D01*
X136819031Y-90638974D01*
X136824134Y-90621058D01*
X136827476Y-90612487D01*
X136835810Y-90549181D01*
X136836619Y-90544070D01*
X136837644Y-90538544D01*
X136848252Y-90481308D01*
X136844664Y-90419075D01*
X136844500Y-90413378D01*
X136844500Y-86592667D01*
X136863407Y-86534476D01*
X136873496Y-86522663D01*
X139201153Y-84195007D01*
X139255670Y-84167230D01*
X139271157Y-84166011D01*
X142973160Y-84166011D01*
X142979894Y-84166240D01*
X143037819Y-84170189D01*
X143043690Y-84169164D01*
X143043695Y-84169164D01*
X143100709Y-84159213D01*
X143105836Y-84158456D01*
X143163285Y-84151504D01*
X143163286Y-84151504D01*
X143169209Y-84150787D01*
X143177821Y-84147533D01*
X143195784Y-84142619D01*
X143204843Y-84141038D01*
X143229431Y-84130245D01*
X143263293Y-84115381D01*
X143268091Y-84113423D01*
X143322228Y-84092966D01*
X143327812Y-84090856D01*
X143332727Y-84087478D01*
X143332735Y-84087474D01*
X143335394Y-84085646D01*
X143351667Y-84076588D01*
X143354628Y-84075288D01*
X143360091Y-84072890D01*
X143364823Y-84069259D01*
X143364828Y-84069256D01*
X143410743Y-84034024D01*
X143414935Y-84030978D01*
X143462621Y-83998204D01*
X143462622Y-83998203D01*
X143467540Y-83994823D01*
X143471507Y-83990370D01*
X143471511Y-83990367D01*
X143509004Y-83948285D01*
X143512917Y-83944139D01*
X145700524Y-81756533D01*
X145749944Y-81729700D01*
X145754436Y-81728745D01*
X145831667Y-81712329D01*
X145836401Y-81710221D01*
X145836405Y-81710220D01*
X145922533Y-81671873D01*
X145994993Y-81639612D01*
X146139630Y-81534526D01*
X146153287Y-81519359D01*
X146255787Y-81405521D01*
X146259259Y-81401665D01*
X146319304Y-81297664D01*
X146346058Y-81251325D01*
X146346059Y-81251323D01*
X146348650Y-81246835D01*
X146356679Y-81222124D01*
X146402295Y-81081735D01*
X146402296Y-81081730D01*
X146403897Y-81076803D01*
X146422585Y-80899000D01*
X146403897Y-80721197D01*
X146402296Y-80716270D01*
X146402295Y-80716265D01*
X146350252Y-80556095D01*
X146350251Y-80556094D01*
X146348650Y-80551165D01*
X146259259Y-80396335D01*
X146139630Y-80263474D01*
X145994993Y-80158388D01*
X145904738Y-80118204D01*
X145836405Y-80087780D01*
X145836401Y-80087779D01*
X145831667Y-80085671D01*
X145826597Y-80084593D01*
X145826596Y-80084593D01*
X145792672Y-80077382D01*
X145656791Y-80048500D01*
X145478009Y-80048500D01*
X145342128Y-80077382D01*
X145308204Y-80084593D01*
X145308203Y-80084593D01*
X145303133Y-80085671D01*
X145298399Y-80087779D01*
X145298395Y-80087780D01*
X145144542Y-80156280D01*
X145144540Y-80156281D01*
X145139808Y-80158388D01*
X144995170Y-80263474D01*
X144991704Y-80267324D01*
X144991700Y-80267327D01*
X144883436Y-80387567D01*
X144875541Y-80396335D01*
X144786150Y-80551165D01*
X144784549Y-80556094D01*
X144784548Y-80556095D01*
X144732505Y-80716265D01*
X144732504Y-80716270D01*
X144730903Y-80721197D01*
X144730720Y-80722943D01*
X144704489Y-80771255D01*
X142739728Y-82736015D01*
X142685211Y-82763792D01*
X142669724Y-82765011D01*
X140266390Y-82765011D01*
X140208199Y-82746104D01*
X140172235Y-82696604D01*
X140172235Y-82635418D01*
X140208199Y-82585918D01*
X140226123Y-82575570D01*
X140226529Y-82575389D01*
X140331593Y-82528612D01*
X140457185Y-82437363D01*
X140472031Y-82426577D01*
X140472032Y-82426576D01*
X140476230Y-82423526D01*
X140595859Y-82290665D01*
X140636469Y-82220326D01*
X140682658Y-82140325D01*
X140682659Y-82140323D01*
X140685250Y-82135835D01*
X140686852Y-82130905D01*
X140738895Y-81970735D01*
X140738896Y-81970730D01*
X140740497Y-81965803D01*
X140759185Y-81788000D01*
X140753304Y-81732040D01*
X140741039Y-81615355D01*
X140740497Y-81610197D01*
X140738896Y-81605270D01*
X140738895Y-81605265D01*
X140686852Y-81445095D01*
X140686851Y-81445094D01*
X140685250Y-81440165D01*
X140678625Y-81428689D01*
X140598452Y-81289826D01*
X140598451Y-81289825D01*
X140595859Y-81285335D01*
X140476230Y-81152474D01*
X140331593Y-81047388D01*
X140249930Y-81011030D01*
X140173005Y-80976780D01*
X140173001Y-80976779D01*
X140168267Y-80974671D01*
X140163197Y-80973593D01*
X140163196Y-80973593D01*
X140129272Y-80966382D01*
X139993391Y-80937500D01*
X139814609Y-80937500D01*
X139678728Y-80966382D01*
X139644804Y-80973593D01*
X139644803Y-80973593D01*
X139639733Y-80974671D01*
X139634999Y-80976779D01*
X139634995Y-80976780D01*
X139481142Y-81045280D01*
X139481140Y-81045281D01*
X139476408Y-81047388D01*
X139331770Y-81152474D01*
X139328304Y-81156324D01*
X139328300Y-81156327D01*
X139243223Y-81250815D01*
X139212141Y-81285335D01*
X139209549Y-81289825D01*
X139209548Y-81289826D01*
X139129376Y-81428689D01*
X139122750Y-81440165D01*
X139121149Y-81445094D01*
X139121148Y-81445095D01*
X139069105Y-81605265D01*
X139069104Y-81605270D01*
X139067503Y-81610197D01*
X139067320Y-81611943D01*
X139041089Y-81660255D01*
X138514839Y-82186504D01*
X138460322Y-82214281D01*
X138444835Y-82215500D01*
X137761529Y-82215500D01*
X137754795Y-82215271D01*
X137754483Y-82215250D01*
X137696870Y-82211322D01*
X137653760Y-82218846D01*
X137633982Y-82222297D01*
X137628857Y-82223054D01*
X137571402Y-82230007D01*
X137571399Y-82230008D01*
X137565480Y-82230724D01*
X137556879Y-82233974D01*
X137538905Y-82238891D01*
X137535729Y-82239445D01*
X137535726Y-82239446D01*
X137529847Y-82240472D01*
X137524379Y-82242872D01*
X137524380Y-82242872D01*
X137471390Y-82266132D01*
X137466594Y-82268090D01*
X137406877Y-82290655D01*
X137401960Y-82294034D01*
X137401957Y-82294036D01*
X137399301Y-82295862D01*
X137383018Y-82304925D01*
X137380060Y-82306223D01*
X137380058Y-82306224D01*
X137374598Y-82308621D01*
X137369865Y-82312253D01*
X137323950Y-82347484D01*
X137319758Y-82350530D01*
X137293151Y-82368817D01*
X137267149Y-82386688D01*
X137263182Y-82391141D01*
X137263178Y-82391144D01*
X137225693Y-82433217D01*
X137221780Y-82437363D01*
X134779265Y-84879878D01*
X134774341Y-84884477D01*
X134730604Y-84922631D01*
X134727173Y-84927513D01*
X134727172Y-84927514D01*
X134693903Y-84974852D01*
X134690818Y-84979005D01*
X134667416Y-85008851D01*
X134663147Y-85014296D01*
X134612362Y-85048422D01*
X134551218Y-85046179D01*
X134503069Y-85008425D01*
X134491086Y-84983802D01*
X134488452Y-84975695D01*
X134488451Y-84975694D01*
X134486850Y-84970765D01*
X134471642Y-84944423D01*
X134400052Y-84820426D01*
X134400051Y-84820425D01*
X134397459Y-84815935D01*
X134277830Y-84683074D01*
X134133193Y-84577988D01*
X134050413Y-84541132D01*
X134004944Y-84500191D01*
X133994621Y-84474641D01*
X133982594Y-84426400D01*
X133982592Y-84426396D01*
X133981295Y-84421192D01*
X133899131Y-84255674D01*
X133895772Y-84251497D01*
X133895770Y-84251493D01*
X133786704Y-84115844D01*
X133783340Y-84111660D01*
X133735120Y-84072890D01*
X133643507Y-83999230D01*
X133643503Y-83999228D01*
X133639326Y-83995869D01*
X133473808Y-83913705D01*
X133468601Y-83912407D01*
X133468599Y-83912406D01*
X133298742Y-83870056D01*
X133298743Y-83870056D01*
X133294507Y-83869000D01*
X133290159Y-83868704D01*
X133290155Y-83868703D01*
X133272249Y-83867483D01*
X133251966Y-83866100D01*
X132604834Y-83866100D01*
X132584551Y-83867483D01*
X132566645Y-83868703D01*
X132566641Y-83868704D01*
X132562293Y-83869000D01*
X132558057Y-83870056D01*
X132558058Y-83870056D01*
X132388201Y-83912406D01*
X132388199Y-83912407D01*
X132382992Y-83913705D01*
X132217474Y-83995869D01*
X132213297Y-83999228D01*
X132213293Y-83999230D01*
X132121680Y-84072890D01*
X132073460Y-84111660D01*
X132055554Y-84133931D01*
X132004356Y-84167433D01*
X131943243Y-84164443D01*
X131901246Y-84133931D01*
X131883340Y-84111660D01*
X131865866Y-84097611D01*
X131832364Y-84046415D01*
X131828900Y-84020457D01*
X131828900Y-83521754D01*
X131847807Y-83463563D01*
X131867631Y-83443214D01*
X131988482Y-83350482D01*
X132084736Y-83225041D01*
X132145244Y-83078962D01*
X132160700Y-82961561D01*
X132160699Y-81782840D01*
X132154439Y-81735282D01*
X132146091Y-81671873D01*
X132145244Y-81665438D01*
X132142762Y-81659446D01*
X132142761Y-81659442D01*
X132087219Y-81525354D01*
X132084736Y-81519359D01*
X131988482Y-81393918D01*
X131863041Y-81297664D01*
X131716962Y-81237156D01*
X131599561Y-81221700D01*
X131010291Y-81221700D01*
X130420840Y-81221701D01*
X130417629Y-81222124D01*
X130417624Y-81222124D01*
X130335871Y-81232886D01*
X130303438Y-81237156D01*
X130297446Y-81239638D01*
X130297442Y-81239639D01*
X130219380Y-81271974D01*
X130157359Y-81297664D01*
X130031918Y-81393918D01*
X129935664Y-81519359D01*
X129875156Y-81665438D01*
X129859700Y-81782839D01*
X129859701Y-82961560D01*
X129860124Y-82964771D01*
X129860124Y-82964776D01*
X129863231Y-82988378D01*
X129875156Y-83078962D01*
X129877638Y-83084954D01*
X129877639Y-83084958D01*
X129897158Y-83132080D01*
X129935664Y-83225041D01*
X130031918Y-83350482D01*
X130157359Y-83446736D01*
X130163351Y-83449218D01*
X130163358Y-83449222D01*
X130166787Y-83450642D01*
X130168808Y-83452368D01*
X130168974Y-83452464D01*
X130168956Y-83452495D01*
X130213312Y-83490379D01*
X130227900Y-83542105D01*
X130227900Y-84020457D01*
X130208993Y-84078648D01*
X130190936Y-84097609D01*
X130173460Y-84111660D01*
X130170096Y-84115844D01*
X130061030Y-84251493D01*
X130061028Y-84251497D01*
X130057669Y-84255674D01*
X129975505Y-84421192D01*
X129974207Y-84426399D01*
X129974206Y-84426401D01*
X129959828Y-84484070D01*
X129930800Y-84600493D01*
X129930504Y-84604841D01*
X129930503Y-84604845D01*
X129929283Y-84622751D01*
X129927900Y-84643034D01*
X129927900Y-85260435D01*
X129908993Y-85318626D01*
X129898904Y-85330439D01*
X129839093Y-85390250D01*
X129784576Y-85418027D01*
X129724144Y-85408456D01*
X129710898Y-85400338D01*
X129666990Y-85368436D01*
X129666981Y-85368431D01*
X129662793Y-85365388D01*
X129556517Y-85318071D01*
X129504205Y-85294780D01*
X129504201Y-85294779D01*
X129499467Y-85292671D01*
X129494397Y-85291593D01*
X129494396Y-85291593D01*
X129449165Y-85281979D01*
X129324591Y-85255500D01*
X129145809Y-85255500D01*
X129021235Y-85281979D01*
X128976004Y-85291593D01*
X128976003Y-85291593D01*
X128970933Y-85292671D01*
X128966199Y-85294779D01*
X128966195Y-85294780D01*
X128891342Y-85328107D01*
X128830492Y-85334503D01*
X128810816Y-85328110D01*
X128788267Y-85318071D01*
X128783194Y-85316993D01*
X128783192Y-85316992D01*
X128710038Y-85301443D01*
X128613391Y-85280900D01*
X128434609Y-85280900D01*
X128337962Y-85301443D01*
X128264804Y-85316993D01*
X128264803Y-85316993D01*
X128259733Y-85318071D01*
X128254999Y-85320179D01*
X128254995Y-85320180D01*
X128178635Y-85354178D01*
X128096408Y-85390788D01*
X128093397Y-85392975D01*
X128034037Y-85405596D01*
X127978140Y-85380713D01*
X127962789Y-85363208D01*
X127962693Y-85363068D01*
X127962692Y-85363067D01*
X127959312Y-85358149D01*
X127954859Y-85354182D01*
X127954856Y-85354178D01*
X127912765Y-85316677D01*
X127908619Y-85312763D01*
X127464130Y-84868273D01*
X127459531Y-84863350D01*
X127425292Y-84824101D01*
X127421369Y-84819604D01*
X127416178Y-84815956D01*
X127416037Y-84815768D01*
X127412051Y-84812179D01*
X127412755Y-84811397D01*
X127379439Y-84767030D01*
X127374100Y-84734957D01*
X127374100Y-84643034D01*
X127372717Y-84622751D01*
X127371497Y-84604845D01*
X127371496Y-84604841D01*
X127371200Y-84600493D01*
X127342172Y-84484070D01*
X127327794Y-84426401D01*
X127327793Y-84426399D01*
X127326495Y-84421192D01*
X127244331Y-84255674D01*
X127240972Y-84251497D01*
X127240970Y-84251493D01*
X127131904Y-84115844D01*
X127128540Y-84111660D01*
X127111066Y-84097611D01*
X127077564Y-84046415D01*
X127074100Y-84020457D01*
X127074100Y-83570900D01*
X127093007Y-83512709D01*
X127142507Y-83476745D01*
X127173100Y-83471900D01*
X127688935Y-83471899D01*
X127719360Y-83471899D01*
X127722571Y-83471476D01*
X127722576Y-83471476D01*
X127804329Y-83460714D01*
X127836762Y-83456444D01*
X127842754Y-83453962D01*
X127842758Y-83453961D01*
X127942753Y-83412541D01*
X127982841Y-83395936D01*
X128108282Y-83299682D01*
X128204536Y-83174241D01*
X128265044Y-83028162D01*
X128280500Y-82910761D01*
X128280499Y-81732040D01*
X128276794Y-81703891D01*
X128265891Y-81621073D01*
X128265044Y-81614638D01*
X128262562Y-81608646D01*
X128262561Y-81608642D01*
X128207019Y-81474554D01*
X128204536Y-81468559D01*
X128108282Y-81343118D01*
X127982841Y-81246864D01*
X127836762Y-81186356D01*
X127719361Y-81170900D01*
X127130091Y-81170900D01*
X126540640Y-81170901D01*
X126537429Y-81171324D01*
X126537424Y-81171324D01*
X126455671Y-81182086D01*
X126423238Y-81186356D01*
X126417246Y-81188838D01*
X126417242Y-81188839D01*
X126317247Y-81230259D01*
X126277159Y-81246864D01*
X126151718Y-81343118D01*
X126055464Y-81468559D01*
X125994956Y-81614638D01*
X125979500Y-81732039D01*
X125979500Y-81735280D01*
X125979501Y-82298813D01*
X125960594Y-82357004D01*
X125950505Y-82368817D01*
X125713888Y-82605434D01*
X125713151Y-82606163D01*
X125649332Y-82668659D01*
X125646334Y-82673311D01*
X125625375Y-82705833D01*
X125619529Y-82713968D01*
X125596753Y-82742500D01*
X125591936Y-82748534D01*
X125589530Y-82753511D01*
X125589525Y-82753519D01*
X125576797Y-82779848D01*
X125570882Y-82790389D01*
X125552046Y-82819617D01*
X125536912Y-82861196D01*
X125533023Y-82870401D01*
X125513773Y-82910222D01*
X125512528Y-82915615D01*
X125505950Y-82944108D01*
X125502516Y-82955698D01*
X125492517Y-82983169D01*
X125492515Y-82983176D01*
X125490622Y-82988378D01*
X125489928Y-82993874D01*
X125485079Y-83032254D01*
X125483323Y-83042115D01*
X125473374Y-83085211D01*
X125473355Y-83090746D01*
X125473234Y-83125281D01*
X125473201Y-83126281D01*
X125473100Y-83127083D01*
X125473100Y-83163692D01*
X125472747Y-83264800D01*
X125473006Y-83265959D01*
X125473100Y-83267694D01*
X125473100Y-84020457D01*
X125454193Y-84078648D01*
X125436136Y-84097609D01*
X125418660Y-84111660D01*
X125400754Y-84133931D01*
X125349556Y-84167433D01*
X125288443Y-84164443D01*
X125246446Y-84133931D01*
X125228540Y-84111660D01*
X125180320Y-84072890D01*
X125088707Y-83999230D01*
X125088703Y-83999228D01*
X125084526Y-83995869D01*
X124919008Y-83913705D01*
X124913801Y-83912407D01*
X124913799Y-83912406D01*
X124743942Y-83870056D01*
X124743943Y-83870056D01*
X124739707Y-83869000D01*
X124735359Y-83868704D01*
X124735355Y-83868703D01*
X124717449Y-83867483D01*
X124697166Y-83866100D01*
X124050034Y-83866100D01*
X124029751Y-83867483D01*
X124011845Y-83868703D01*
X124011841Y-83868704D01*
X124007493Y-83869000D01*
X124003257Y-83870056D01*
X124003258Y-83870056D01*
X123833401Y-83912406D01*
X123833399Y-83912407D01*
X123828192Y-83913705D01*
X123662674Y-83995869D01*
X123658497Y-83999228D01*
X123658493Y-83999230D01*
X123566880Y-84072890D01*
X123518660Y-84111660D01*
X123515296Y-84115844D01*
X123406230Y-84251493D01*
X123406228Y-84251497D01*
X123402869Y-84255674D01*
X123320705Y-84421192D01*
X123319408Y-84426393D01*
X123317556Y-84431427D01*
X123315259Y-84430582D01*
X123288014Y-84474203D01*
X123244947Y-84495214D01*
X123155151Y-84514300D01*
X123083204Y-84529593D01*
X123083203Y-84529593D01*
X123078133Y-84530671D01*
X123073399Y-84532779D01*
X123073395Y-84532780D01*
X122919542Y-84601280D01*
X122919540Y-84601281D01*
X122914808Y-84603388D01*
X122910617Y-84606433D01*
X122779591Y-84701629D01*
X122721400Y-84720536D01*
X122663209Y-84701629D01*
X122627245Y-84652129D01*
X122622400Y-84621536D01*
X122622400Y-83671829D01*
X122622629Y-83665095D01*
X122626172Y-83613120D01*
X122626578Y-83607170D01*
X122615603Y-83544282D01*
X122614846Y-83539157D01*
X122607893Y-83481702D01*
X122607892Y-83481699D01*
X122607176Y-83475780D01*
X122603926Y-83467179D01*
X122599009Y-83449205D01*
X122598455Y-83446029D01*
X122598454Y-83446026D01*
X122597428Y-83440147D01*
X122571768Y-83381690D01*
X122569810Y-83376893D01*
X122563366Y-83359839D01*
X122547245Y-83317177D01*
X122542038Y-83309600D01*
X122532975Y-83293318D01*
X122531677Y-83290360D01*
X122531676Y-83290358D01*
X122529279Y-83284898D01*
X122490416Y-83234250D01*
X122487370Y-83230058D01*
X122454593Y-83182368D01*
X122454592Y-83182367D01*
X122451212Y-83177449D01*
X122446759Y-83173482D01*
X122446756Y-83173478D01*
X122404683Y-83135993D01*
X122400537Y-83132080D01*
X121106648Y-81838191D01*
X121078871Y-81783674D01*
X121088442Y-81723242D01*
X121101367Y-81703898D01*
X121138910Y-81659941D01*
X121147601Y-81641721D01*
X121205566Y-81520192D01*
X121205567Y-81520189D01*
X121206959Y-81517271D01*
X121225866Y-81459080D01*
X121230009Y-81445095D01*
X121233764Y-81432416D01*
X121234868Y-81428689D01*
X121255500Y-81271974D01*
X121255500Y-79093000D01*
X121248047Y-78998288D01*
X121246379Y-78987755D01*
X121243610Y-78970268D01*
X121243608Y-78970258D01*
X121243202Y-78967695D01*
X121210873Y-78847037D01*
X121207500Y-78821415D01*
X121207500Y-76752434D01*
X121204600Y-76709893D01*
X121159895Y-76530592D01*
X121077731Y-76365074D01*
X121074372Y-76360897D01*
X121074370Y-76360893D01*
X121027930Y-76303134D01*
X121006202Y-76245936D01*
X121022244Y-76186891D01*
X121069928Y-76148552D01*
X121105084Y-76142100D01*
X151232100Y-76142100D01*
X151290291Y-76161007D01*
G37*
%TD.AperFunction*%
%TA.AperFunction,Conductor*%
G36*
X125066733Y-104528977D02*
G01*
X125093938Y-104583782D01*
X125095000Y-104598244D01*
X125095000Y-105282908D01*
X125076093Y-105341099D01*
X125054190Y-105363001D01*
X124971729Y-105422912D01*
X124845067Y-105563584D01*
X124750421Y-105727516D01*
X124748820Y-105732445D01*
X124748819Y-105732446D01*
X124693528Y-105902612D01*
X124693527Y-105902617D01*
X124691926Y-105907544D01*
X124672140Y-106095800D01*
X124691926Y-106284056D01*
X124693527Y-106288983D01*
X124693528Y-106288988D01*
X124714891Y-106354735D01*
X124750421Y-106464084D01*
X124763837Y-106487320D01*
X124777100Y-106536819D01*
X124777100Y-109965014D01*
X124758193Y-110023205D01*
X124748104Y-110035018D01*
X124055818Y-110727304D01*
X124001301Y-110755081D01*
X123985814Y-110756300D01*
X122538637Y-110756300D01*
X122537601Y-110756295D01*
X122448193Y-110755359D01*
X122404961Y-110764706D01*
X122395083Y-110766323D01*
X122356626Y-110770637D01*
X122356624Y-110770638D01*
X122351128Y-110771254D01*
X122345902Y-110773074D01*
X122345901Y-110773074D01*
X122318290Y-110782689D01*
X122306656Y-110785959D01*
X122296592Y-110788135D01*
X122278072Y-110792139D01*
X122278069Y-110792140D01*
X122272658Y-110793310D01*
X122255241Y-110801432D01*
X122232567Y-110812005D01*
X122223285Y-110815774D01*
X122181527Y-110830315D01*
X122152035Y-110848744D01*
X122141422Y-110854507D01*
X122109893Y-110869209D01*
X122105523Y-110872599D01*
X122105521Y-110872600D01*
X122074950Y-110896314D01*
X122066738Y-110902043D01*
X122029225Y-110925484D01*
X122000773Y-110953738D01*
X122000064Y-110954401D01*
X121999424Y-110954898D01*
X121973563Y-110980759D01*
X121973318Y-110981002D01*
X121904201Y-111049638D01*
X121904195Y-111049645D01*
X121901793Y-111052030D01*
X121901158Y-111053031D01*
X121899998Y-111054324D01*
X119538999Y-113415323D01*
X119484482Y-113443100D01*
X119468306Y-113444317D01*
X119467318Y-113444310D01*
X119461824Y-113443655D01*
X119418980Y-113448158D01*
X119408632Y-113448700D01*
X117690028Y-113448700D01*
X117631837Y-113429793D01*
X117595873Y-113380293D01*
X117595873Y-113319107D01*
X117631837Y-113269607D01*
X117664405Y-113254073D01*
X117676598Y-113250806D01*
X117795663Y-113218903D01*
X118009830Y-113119035D01*
X118023501Y-113109463D01*
X118125998Y-113037693D01*
X118203401Y-112983495D01*
X118370495Y-112816401D01*
X118496628Y-112636264D01*
X118503553Y-112626374D01*
X118503554Y-112626372D01*
X118506035Y-112622829D01*
X118605903Y-112408663D01*
X118667063Y-112180408D01*
X118687659Y-111945000D01*
X118667063Y-111709592D01*
X118605903Y-111481337D01*
X118506035Y-111267171D01*
X118370495Y-111073599D01*
X118203401Y-110906505D01*
X118058935Y-110805349D01*
X118013375Y-110773447D01*
X118013373Y-110773446D01*
X118009830Y-110770965D01*
X117910666Y-110724724D01*
X117865918Y-110682996D01*
X117854243Y-110622935D01*
X117880101Y-110567482D01*
X117910666Y-110545276D01*
X117961598Y-110521526D01*
X118009830Y-110499035D01*
X118015369Y-110495157D01*
X118165378Y-110390119D01*
X118203401Y-110363495D01*
X118370495Y-110196401D01*
X118506035Y-110002829D01*
X118605903Y-109788663D01*
X118667063Y-109560408D01*
X118687659Y-109325000D01*
X118667063Y-109089592D01*
X118605903Y-108861337D01*
X118506035Y-108647171D01*
X118497068Y-108634364D01*
X118408342Y-108507651D01*
X118370495Y-108453599D01*
X118203401Y-108286505D01*
X118174716Y-108266420D01*
X118137894Y-108217556D01*
X118132500Y-108185324D01*
X118132500Y-106687586D01*
X118151407Y-106629395D01*
X118161496Y-106617582D01*
X118895182Y-105883896D01*
X118949699Y-105856119D01*
X118965186Y-105854900D01*
X119243829Y-105854900D01*
X119302018Y-105873806D01*
X119333407Y-105896612D01*
X119415070Y-105932970D01*
X119491995Y-105967220D01*
X119491999Y-105967221D01*
X119496733Y-105969329D01*
X119501803Y-105970407D01*
X119501804Y-105970407D01*
X119535728Y-105977618D01*
X119671609Y-106006500D01*
X119850391Y-106006500D01*
X119986272Y-105977618D01*
X120020196Y-105970407D01*
X120020197Y-105970407D01*
X120025267Y-105969329D01*
X120030001Y-105967221D01*
X120030005Y-105967220D01*
X120106930Y-105932970D01*
X120188593Y-105896612D01*
X120333230Y-105791526D01*
X120452859Y-105658665D01*
X120523406Y-105536474D01*
X120539658Y-105508325D01*
X120539659Y-105508323D01*
X120542250Y-105503835D01*
X120559025Y-105452207D01*
X120594989Y-105402707D01*
X120653180Y-105383800D01*
X121478366Y-105383800D01*
X121498649Y-105382417D01*
X121516555Y-105381197D01*
X121516559Y-105381196D01*
X121520907Y-105380900D01*
X121592696Y-105363001D01*
X121694999Y-105337494D01*
X121695001Y-105337493D01*
X121700208Y-105336195D01*
X121705938Y-105333351D01*
X121860921Y-105256416D01*
X121865726Y-105254031D01*
X121869903Y-105250672D01*
X121869907Y-105250670D01*
X122005556Y-105141604D01*
X122009740Y-105138240D01*
X122114243Y-105008265D01*
X122165439Y-104974763D01*
X122191396Y-104971300D01*
X123275271Y-104971300D01*
X123282005Y-104971529D01*
X123339930Y-104975478D01*
X123345801Y-104974453D01*
X123345806Y-104974453D01*
X123402820Y-104964502D01*
X123407947Y-104963745D01*
X123465396Y-104956793D01*
X123465397Y-104956793D01*
X123471320Y-104956076D01*
X123479932Y-104952822D01*
X123497895Y-104947908D01*
X123506954Y-104946327D01*
X123531542Y-104935534D01*
X123565404Y-104920670D01*
X123570202Y-104918712D01*
X123624339Y-104898255D01*
X123629923Y-104896145D01*
X123634838Y-104892767D01*
X123634846Y-104892763D01*
X123637505Y-104890935D01*
X123653778Y-104881877D01*
X123656739Y-104880577D01*
X123662202Y-104878179D01*
X123666934Y-104874548D01*
X123666939Y-104874545D01*
X123712854Y-104839313D01*
X123717046Y-104836267D01*
X123764732Y-104803493D01*
X123764733Y-104803492D01*
X123769651Y-104800112D01*
X123773618Y-104795659D01*
X123773622Y-104795656D01*
X123811115Y-104753574D01*
X123815028Y-104749428D01*
X123914760Y-104649696D01*
X123969277Y-104621919D01*
X123984764Y-104620700D01*
X124602166Y-104620700D01*
X124622449Y-104619317D01*
X124640355Y-104618097D01*
X124640359Y-104618096D01*
X124644707Y-104617800D01*
X124694876Y-104605291D01*
X124818799Y-104574394D01*
X124818801Y-104574393D01*
X124824008Y-104573095D01*
X124951983Y-104509568D01*
X125012510Y-104500630D01*
X125066733Y-104528977D01*
G37*
%TD.AperFunction*%
%TA.AperFunction,Conductor*%
G36*
X126279431Y-94075598D02*
G01*
X126284471Y-94075995D01*
X126284473Y-94075995D01*
X126300839Y-94077283D01*
X126316306Y-94078500D01*
X126547694Y-94078500D01*
X126563161Y-94077283D01*
X126579527Y-94075995D01*
X126579529Y-94075995D01*
X126584569Y-94075598D01*
X126604381Y-94069842D01*
X126659619Y-94069842D01*
X126679431Y-94075598D01*
X126684471Y-94075995D01*
X126684473Y-94075995D01*
X126700839Y-94077283D01*
X126716306Y-94078500D01*
X126947694Y-94078500D01*
X126963161Y-94077283D01*
X126979527Y-94075995D01*
X126979529Y-94075995D01*
X126984569Y-94075598D01*
X127004381Y-94069842D01*
X127059619Y-94069842D01*
X127079431Y-94075598D01*
X127084471Y-94075995D01*
X127084473Y-94075995D01*
X127100839Y-94077283D01*
X127116306Y-94078500D01*
X127347694Y-94078500D01*
X127363161Y-94077283D01*
X127379527Y-94075995D01*
X127379529Y-94075995D01*
X127384569Y-94075598D01*
X127404381Y-94069842D01*
X127459619Y-94069842D01*
X127479431Y-94075598D01*
X127484471Y-94075995D01*
X127484473Y-94075995D01*
X127500839Y-94077283D01*
X127516306Y-94078500D01*
X127747694Y-94078500D01*
X127763161Y-94077283D01*
X127779527Y-94075995D01*
X127779529Y-94075995D01*
X127784569Y-94075598D01*
X127804381Y-94069842D01*
X127859619Y-94069842D01*
X127879431Y-94075598D01*
X127884471Y-94075995D01*
X127884473Y-94075995D01*
X127900839Y-94077283D01*
X127916306Y-94078500D01*
X128147694Y-94078500D01*
X128163161Y-94077283D01*
X128179527Y-94075995D01*
X128179529Y-94075995D01*
X128184569Y-94075598D01*
X128204381Y-94069842D01*
X128259619Y-94069842D01*
X128279431Y-94075598D01*
X128284471Y-94075995D01*
X128284473Y-94075995D01*
X128300839Y-94077283D01*
X128316306Y-94078500D01*
X128547694Y-94078500D01*
X128563161Y-94077283D01*
X128579527Y-94075995D01*
X128579529Y-94075995D01*
X128584569Y-94075598D01*
X128604381Y-94069842D01*
X128659619Y-94069842D01*
X128679431Y-94075598D01*
X128684471Y-94075995D01*
X128684473Y-94075995D01*
X128700839Y-94077283D01*
X128716306Y-94078500D01*
X128947694Y-94078500D01*
X128963161Y-94077283D01*
X128979527Y-94075995D01*
X128979529Y-94075995D01*
X128984569Y-94075598D01*
X129004381Y-94069842D01*
X129059619Y-94069842D01*
X129079431Y-94075598D01*
X129084471Y-94075995D01*
X129084473Y-94075995D01*
X129100839Y-94077283D01*
X129116306Y-94078500D01*
X129347694Y-94078500D01*
X129363161Y-94077283D01*
X129379527Y-94075995D01*
X129379529Y-94075995D01*
X129384569Y-94075598D01*
X129404381Y-94069842D01*
X129459619Y-94069842D01*
X129479431Y-94075598D01*
X129484471Y-94075995D01*
X129484473Y-94075995D01*
X129500839Y-94077283D01*
X129516306Y-94078500D01*
X129747694Y-94078500D01*
X129763161Y-94077283D01*
X129779527Y-94075995D01*
X129779529Y-94075995D01*
X129784569Y-94075598D01*
X129804381Y-94069842D01*
X129859619Y-94069842D01*
X129879431Y-94075598D01*
X129884471Y-94075995D01*
X129884473Y-94075995D01*
X129900839Y-94077283D01*
X129916306Y-94078500D01*
X130147694Y-94078500D01*
X130163161Y-94077283D01*
X130179527Y-94075995D01*
X130179529Y-94075995D01*
X130184569Y-94075598D01*
X130204381Y-94069842D01*
X130259619Y-94069842D01*
X130279431Y-94075598D01*
X130284471Y-94075995D01*
X130284473Y-94075995D01*
X130300839Y-94077283D01*
X130316306Y-94078500D01*
X130547694Y-94078500D01*
X130563161Y-94077283D01*
X130579527Y-94075995D01*
X130579529Y-94075995D01*
X130584569Y-94075598D01*
X130604381Y-94069842D01*
X130659619Y-94069842D01*
X130679431Y-94075598D01*
X130684471Y-94075995D01*
X130684473Y-94075995D01*
X130700839Y-94077283D01*
X130716306Y-94078500D01*
X130947694Y-94078500D01*
X130963161Y-94077283D01*
X130979527Y-94075995D01*
X130979529Y-94075995D01*
X130984569Y-94075598D01*
X131004381Y-94069842D01*
X131059619Y-94069842D01*
X131079431Y-94075598D01*
X131084471Y-94075995D01*
X131084473Y-94075995D01*
X131100839Y-94077283D01*
X131116306Y-94078500D01*
X131347694Y-94078500D01*
X131363161Y-94077283D01*
X131379527Y-94075995D01*
X131379529Y-94075995D01*
X131384569Y-94075598D01*
X131404381Y-94069842D01*
X131459619Y-94069842D01*
X131479431Y-94075598D01*
X131484471Y-94075995D01*
X131484473Y-94075995D01*
X131500839Y-94077283D01*
X131516306Y-94078500D01*
X131747694Y-94078500D01*
X131763161Y-94077283D01*
X131779527Y-94075995D01*
X131779529Y-94075995D01*
X131784569Y-94075598D01*
X131804381Y-94069842D01*
X131859619Y-94069842D01*
X131879431Y-94075598D01*
X131884471Y-94075995D01*
X131884473Y-94075995D01*
X131916306Y-94078500D01*
X131916247Y-94079252D01*
X131971131Y-94099505D01*
X132005120Y-94150382D01*
X132004903Y-94204866D01*
X131988743Y-94260490D01*
X131984402Y-94275431D01*
X131984005Y-94280471D01*
X131984005Y-94280473D01*
X131982717Y-94296839D01*
X131981500Y-94312306D01*
X131981500Y-94543694D01*
X131984402Y-94580569D01*
X131990158Y-94600381D01*
X131990158Y-94655619D01*
X131984402Y-94675431D01*
X131981500Y-94712306D01*
X131981500Y-94943694D01*
X131984402Y-94980569D01*
X131990158Y-95000381D01*
X131990158Y-95055619D01*
X131984402Y-95075431D01*
X131981500Y-95112306D01*
X131981500Y-95343694D01*
X131984402Y-95380569D01*
X131990158Y-95400381D01*
X131990158Y-95455619D01*
X131984402Y-95475431D01*
X131984005Y-95480471D01*
X131984005Y-95480473D01*
X131982808Y-95495688D01*
X131981500Y-95512306D01*
X131981500Y-95743694D01*
X131984402Y-95780569D01*
X131990158Y-95800381D01*
X131990158Y-95855619D01*
X131984402Y-95875431D01*
X131984005Y-95880471D01*
X131984005Y-95880473D01*
X131983449Y-95887543D01*
X131981500Y-95912306D01*
X131981500Y-96143694D01*
X131984402Y-96180569D01*
X131990158Y-96200381D01*
X131990158Y-96255619D01*
X131984402Y-96275431D01*
X131981500Y-96312306D01*
X131981500Y-96543694D01*
X131984402Y-96580569D01*
X131990158Y-96600381D01*
X131990158Y-96655619D01*
X131984402Y-96675431D01*
X131981500Y-96712306D01*
X131981500Y-96943694D01*
X131984402Y-96980569D01*
X131990158Y-97000381D01*
X131990158Y-97055619D01*
X131984402Y-97075431D01*
X131981500Y-97112306D01*
X131981500Y-97343694D01*
X131984402Y-97380569D01*
X131990158Y-97400381D01*
X131990158Y-97455619D01*
X131984402Y-97475431D01*
X131981500Y-97512306D01*
X131981500Y-97743694D01*
X131984402Y-97780569D01*
X131990158Y-97800381D01*
X131990158Y-97855619D01*
X131984402Y-97875431D01*
X131981500Y-97912306D01*
X131981500Y-98143694D01*
X131984402Y-98180569D01*
X131990158Y-98200381D01*
X131990158Y-98255619D01*
X131984402Y-98275431D01*
X131984005Y-98280471D01*
X131984005Y-98280473D01*
X131982717Y-98296839D01*
X131981500Y-98312306D01*
X131981500Y-98543694D01*
X131984402Y-98580569D01*
X131990158Y-98600381D01*
X131990158Y-98655619D01*
X131984402Y-98675431D01*
X131981500Y-98712306D01*
X131981500Y-98943694D01*
X131984402Y-98980569D01*
X131990158Y-99000381D01*
X131990158Y-99055619D01*
X131984402Y-99075431D01*
X131981500Y-99112306D01*
X131981500Y-99343694D01*
X131984402Y-99380569D01*
X131990158Y-99400381D01*
X131990158Y-99455619D01*
X131984402Y-99475431D01*
X131981500Y-99512306D01*
X131981500Y-99743694D01*
X131981653Y-99745636D01*
X131983849Y-99773536D01*
X131984402Y-99780569D01*
X131990158Y-99800381D01*
X131990158Y-99855619D01*
X131984402Y-99875431D01*
X131984005Y-99880469D01*
X131984005Y-99880472D01*
X131983377Y-99888453D01*
X131959960Y-99944980D01*
X131907790Y-99976947D01*
X131892453Y-99979377D01*
X131884472Y-99980005D01*
X131884469Y-99980005D01*
X131879431Y-99980402D01*
X131859619Y-99986158D01*
X131804381Y-99986158D01*
X131784569Y-99980402D01*
X131779529Y-99980005D01*
X131779527Y-99980005D01*
X131763161Y-99978717D01*
X131747694Y-99977500D01*
X131516306Y-99977500D01*
X131500839Y-99978717D01*
X131484473Y-99980005D01*
X131484471Y-99980005D01*
X131479431Y-99980402D01*
X131459619Y-99986158D01*
X131404381Y-99986158D01*
X131384569Y-99980402D01*
X131379529Y-99980005D01*
X131379527Y-99980005D01*
X131363161Y-99978717D01*
X131347694Y-99977500D01*
X131116306Y-99977500D01*
X131100839Y-99978717D01*
X131084473Y-99980005D01*
X131084471Y-99980005D01*
X131079431Y-99980402D01*
X131059619Y-99986158D01*
X131004381Y-99986158D01*
X130984569Y-99980402D01*
X130979529Y-99980005D01*
X130979527Y-99980005D01*
X130963161Y-99978717D01*
X130947694Y-99977500D01*
X130716306Y-99977500D01*
X130700839Y-99978717D01*
X130684473Y-99980005D01*
X130684471Y-99980005D01*
X130679431Y-99980402D01*
X130659619Y-99986158D01*
X130604381Y-99986158D01*
X130584569Y-99980402D01*
X130579529Y-99980005D01*
X130579527Y-99980005D01*
X130563161Y-99978717D01*
X130547694Y-99977500D01*
X130316306Y-99977500D01*
X130300839Y-99978717D01*
X130284473Y-99980005D01*
X130284471Y-99980005D01*
X130279431Y-99980402D01*
X130259619Y-99986158D01*
X130204381Y-99986158D01*
X130184569Y-99980402D01*
X130179529Y-99980005D01*
X130179527Y-99980005D01*
X130163161Y-99978717D01*
X130147694Y-99977500D01*
X129916306Y-99977500D01*
X129900839Y-99978717D01*
X129884473Y-99980005D01*
X129884471Y-99980005D01*
X129879431Y-99980402D01*
X129859619Y-99986158D01*
X129804381Y-99986158D01*
X129784569Y-99980402D01*
X129779529Y-99980005D01*
X129779527Y-99980005D01*
X129763161Y-99978717D01*
X129747694Y-99977500D01*
X129516306Y-99977500D01*
X129500839Y-99978717D01*
X129484473Y-99980005D01*
X129484471Y-99980005D01*
X129479431Y-99980402D01*
X129459619Y-99986158D01*
X129404381Y-99986158D01*
X129384569Y-99980402D01*
X129379529Y-99980005D01*
X129379527Y-99980005D01*
X129363161Y-99978717D01*
X129347694Y-99977500D01*
X129116306Y-99977500D01*
X129100839Y-99978717D01*
X129084473Y-99980005D01*
X129084471Y-99980005D01*
X129079431Y-99980402D01*
X129059619Y-99986158D01*
X129004381Y-99986158D01*
X128984569Y-99980402D01*
X128979529Y-99980005D01*
X128979527Y-99980005D01*
X128963161Y-99978717D01*
X128947694Y-99977500D01*
X128716306Y-99977500D01*
X128700839Y-99978717D01*
X128684473Y-99980005D01*
X128684471Y-99980005D01*
X128679431Y-99980402D01*
X128659619Y-99986158D01*
X128604381Y-99986158D01*
X128584569Y-99980402D01*
X128579529Y-99980005D01*
X128579527Y-99980005D01*
X128563161Y-99978717D01*
X128547694Y-99977500D01*
X128316306Y-99977500D01*
X128300839Y-99978717D01*
X128284473Y-99980005D01*
X128284471Y-99980005D01*
X128279431Y-99980402D01*
X128259619Y-99986158D01*
X128204381Y-99986158D01*
X128184569Y-99980402D01*
X128179529Y-99980005D01*
X128179527Y-99980005D01*
X128163161Y-99978717D01*
X128147694Y-99977500D01*
X127916306Y-99977500D01*
X127900839Y-99978717D01*
X127884473Y-99980005D01*
X127884471Y-99980005D01*
X127879431Y-99980402D01*
X127859619Y-99986158D01*
X127804381Y-99986158D01*
X127784569Y-99980402D01*
X127779529Y-99980005D01*
X127779527Y-99980005D01*
X127763161Y-99978717D01*
X127747694Y-99977500D01*
X127516306Y-99977500D01*
X127500839Y-99978717D01*
X127484473Y-99980005D01*
X127484471Y-99980005D01*
X127479431Y-99980402D01*
X127459619Y-99986158D01*
X127404381Y-99986158D01*
X127384569Y-99980402D01*
X127379529Y-99980005D01*
X127379527Y-99980005D01*
X127363161Y-99978717D01*
X127347694Y-99977500D01*
X127116306Y-99977500D01*
X127100839Y-99978717D01*
X127084473Y-99980005D01*
X127084471Y-99980005D01*
X127079431Y-99980402D01*
X127059619Y-99986158D01*
X127004381Y-99986158D01*
X126984569Y-99980402D01*
X126979529Y-99980005D01*
X126979527Y-99980005D01*
X126963161Y-99978717D01*
X126947694Y-99977500D01*
X126716306Y-99977500D01*
X126700839Y-99978717D01*
X126684473Y-99980005D01*
X126684471Y-99980005D01*
X126679431Y-99980402D01*
X126659619Y-99986158D01*
X126604381Y-99986158D01*
X126584569Y-99980402D01*
X126579529Y-99980005D01*
X126579527Y-99980005D01*
X126563161Y-99978717D01*
X126547694Y-99977500D01*
X126316306Y-99977500D01*
X126300839Y-99978717D01*
X126284473Y-99980005D01*
X126284471Y-99980005D01*
X126279431Y-99980402D01*
X126259619Y-99986158D01*
X126204381Y-99986158D01*
X126184569Y-99980402D01*
X126179531Y-99980005D01*
X126179528Y-99980005D01*
X126171547Y-99979377D01*
X126115020Y-99955960D01*
X126083053Y-99903790D01*
X126080623Y-99888453D01*
X126079995Y-99880472D01*
X126079995Y-99880469D01*
X126079598Y-99875431D01*
X126073842Y-99855619D01*
X126073842Y-99800381D01*
X126079598Y-99780569D01*
X126080152Y-99773536D01*
X126082347Y-99745636D01*
X126082500Y-99743694D01*
X126082500Y-99512306D01*
X126079598Y-99475431D01*
X126073842Y-99455619D01*
X126073842Y-99400381D01*
X126079598Y-99380569D01*
X126082500Y-99343694D01*
X126082500Y-99112306D01*
X126079598Y-99075431D01*
X126073842Y-99055619D01*
X126073842Y-99000381D01*
X126079598Y-98980569D01*
X126082500Y-98943694D01*
X126082500Y-98712306D01*
X126079598Y-98675431D01*
X126073842Y-98655619D01*
X126073842Y-98600381D01*
X126079598Y-98580569D01*
X126082500Y-98543694D01*
X126082500Y-98312306D01*
X126081283Y-98296839D01*
X126079995Y-98280473D01*
X126079995Y-98280471D01*
X126079598Y-98275431D01*
X126073842Y-98255619D01*
X126073842Y-98200381D01*
X126079598Y-98180569D01*
X126082500Y-98143694D01*
X126082500Y-97912306D01*
X126079598Y-97875431D01*
X126073842Y-97855619D01*
X126073842Y-97800381D01*
X126079598Y-97780569D01*
X126082500Y-97743694D01*
X126082500Y-97512306D01*
X126079598Y-97475431D01*
X126073842Y-97455619D01*
X126073842Y-97400381D01*
X126079598Y-97380569D01*
X126082500Y-97343694D01*
X126082500Y-97112306D01*
X126079598Y-97075431D01*
X126073842Y-97055619D01*
X126073842Y-97000381D01*
X126079598Y-96980569D01*
X126082500Y-96943694D01*
X126082500Y-96712306D01*
X126079598Y-96675431D01*
X126073842Y-96655619D01*
X126073842Y-96600381D01*
X126079598Y-96580569D01*
X126082500Y-96543694D01*
X126082500Y-96312306D01*
X126079598Y-96275431D01*
X126073842Y-96255619D01*
X126073842Y-96200381D01*
X126079598Y-96180569D01*
X126082500Y-96143694D01*
X126082500Y-95912306D01*
X126080551Y-95887543D01*
X126079995Y-95880473D01*
X126079995Y-95880471D01*
X126079598Y-95875431D01*
X126073842Y-95855619D01*
X126073842Y-95800381D01*
X126079598Y-95780569D01*
X126082500Y-95743694D01*
X126082500Y-95512306D01*
X126081192Y-95495688D01*
X126079995Y-95480473D01*
X126079995Y-95480471D01*
X126079598Y-95475431D01*
X126073842Y-95455619D01*
X126073842Y-95400381D01*
X126079598Y-95380569D01*
X126082500Y-95343694D01*
X126082500Y-95112306D01*
X126079598Y-95075431D01*
X126068064Y-95035729D01*
X126035483Y-94923587D01*
X126035482Y-94923586D01*
X126033744Y-94917602D01*
X126030573Y-94912240D01*
X126030570Y-94912233D01*
X126010558Y-94878395D01*
X125997210Y-94818683D01*
X126010558Y-94777605D01*
X126030570Y-94743767D01*
X126030573Y-94743760D01*
X126033744Y-94738398D01*
X126040758Y-94714256D01*
X126078187Y-94585427D01*
X126078188Y-94585421D01*
X126079598Y-94580569D01*
X126082500Y-94543694D01*
X126082500Y-94312306D01*
X126081283Y-94296839D01*
X126079995Y-94280473D01*
X126079995Y-94280471D01*
X126079598Y-94275431D01*
X126073842Y-94255619D01*
X126073842Y-94200381D01*
X126079598Y-94180569D01*
X126080265Y-94172102D01*
X126080623Y-94167547D01*
X126104040Y-94111020D01*
X126156210Y-94079053D01*
X126171547Y-94076623D01*
X126179528Y-94075995D01*
X126179531Y-94075995D01*
X126184569Y-94075598D01*
X126204381Y-94069842D01*
X126259619Y-94069842D01*
X126279431Y-94075598D01*
G37*
%TD.AperFunction*%
%TA.AperFunction,Conductor*%
G36*
X116555520Y-89924207D02*
G01*
X116591484Y-89973707D01*
X116593388Y-90028249D01*
X116566200Y-90137293D01*
X116565904Y-90141641D01*
X116565903Y-90141645D01*
X116564916Y-90156123D01*
X116563300Y-90179834D01*
X116563300Y-91226966D01*
X116564683Y-91247249D01*
X116565274Y-91255916D01*
X116566200Y-91269507D01*
X116567256Y-91273742D01*
X116598890Y-91400617D01*
X116610905Y-91448808D01*
X116613291Y-91453615D01*
X116613292Y-91453617D01*
X116639943Y-91507304D01*
X116693069Y-91614326D01*
X116696428Y-91618503D01*
X116696430Y-91618507D01*
X116780123Y-91722599D01*
X116808860Y-91758340D01*
X116813044Y-91761704D01*
X116948788Y-91870846D01*
X116982291Y-91922044D01*
X116979302Y-91983156D01*
X116948788Y-92025154D01*
X116808860Y-92137660D01*
X116805496Y-92141844D01*
X116696430Y-92277493D01*
X116696428Y-92277497D01*
X116693069Y-92281674D01*
X116668734Y-92330696D01*
X116628364Y-92412022D01*
X116610905Y-92447192D01*
X116609607Y-92452399D01*
X116609606Y-92452401D01*
X116594921Y-92511300D01*
X116566200Y-92626493D01*
X116565904Y-92630841D01*
X116565903Y-92630845D01*
X116564757Y-92647658D01*
X116563300Y-92669034D01*
X116563300Y-93716166D01*
X116563415Y-93717848D01*
X116565032Y-93741566D01*
X116566200Y-93758707D01*
X116567256Y-93762942D01*
X116595006Y-93874239D01*
X116610905Y-93938008D01*
X116613291Y-93942815D01*
X116613292Y-93942817D01*
X116620928Y-93958199D01*
X116693069Y-94103526D01*
X116696428Y-94107703D01*
X116696430Y-94107707D01*
X116774549Y-94204866D01*
X116808860Y-94247540D01*
X116938835Y-94352043D01*
X116972337Y-94403239D01*
X116975800Y-94429196D01*
X116975800Y-94534571D01*
X116975571Y-94541305D01*
X116971622Y-94599230D01*
X116972647Y-94605101D01*
X116972647Y-94605106D01*
X116982598Y-94662120D01*
X116983355Y-94667247D01*
X116988573Y-94710364D01*
X116991024Y-94730620D01*
X116993133Y-94736201D01*
X116994278Y-94739232D01*
X116999192Y-94757195D01*
X117000773Y-94766254D01*
X117005756Y-94777605D01*
X117026430Y-94824704D01*
X117028388Y-94829502D01*
X117042536Y-94866943D01*
X117050955Y-94889223D01*
X117054333Y-94894138D01*
X117054337Y-94894146D01*
X117056165Y-94896805D01*
X117065223Y-94913078D01*
X117068921Y-94921502D01*
X117082036Y-94938593D01*
X117107783Y-94972147D01*
X117110830Y-94976341D01*
X117146988Y-95028951D01*
X117157056Y-95037921D01*
X117157178Y-95038030D01*
X117188048Y-95090857D01*
X117181971Y-95151740D01*
X117153355Y-95189100D01*
X117062860Y-95261860D01*
X117059496Y-95266044D01*
X116950430Y-95401693D01*
X116950428Y-95401697D01*
X116947069Y-95405874D01*
X116925825Y-95448670D01*
X116871526Y-95558055D01*
X116864905Y-95571392D01*
X116863607Y-95576599D01*
X116863606Y-95576601D01*
X116839059Y-95675053D01*
X116820200Y-95750693D01*
X116819904Y-95755041D01*
X116819903Y-95755045D01*
X116819460Y-95761544D01*
X116817300Y-95793234D01*
X116817300Y-96840366D01*
X116817415Y-96842048D01*
X116819299Y-96869683D01*
X116820200Y-96882907D01*
X116821256Y-96887142D01*
X116849185Y-96999157D01*
X116864905Y-97062208D01*
X116947069Y-97227726D01*
X116950428Y-97231903D01*
X116950430Y-97231907D01*
X116965894Y-97251140D01*
X117062860Y-97371740D01*
X117067044Y-97375104D01*
X117202693Y-97484170D01*
X117202697Y-97484172D01*
X117206874Y-97487531D01*
X117372392Y-97569695D01*
X117377599Y-97570993D01*
X117377601Y-97570994D01*
X117501524Y-97601891D01*
X117551693Y-97614400D01*
X117556041Y-97614696D01*
X117556045Y-97614697D01*
X117573951Y-97615917D01*
X117594234Y-97617300D01*
X118199136Y-97617300D01*
X118257327Y-97636207D01*
X118269140Y-97646296D01*
X118761571Y-98138727D01*
X118766170Y-98143651D01*
X118804331Y-98187396D01*
X118809210Y-98190825D01*
X118856571Y-98224111D01*
X118860725Y-98227197D01*
X118910957Y-98266583D01*
X118919342Y-98270369D01*
X118935518Y-98279596D01*
X118943047Y-98284887D01*
X119002562Y-98308091D01*
X119007273Y-98310071D01*
X119065484Y-98336355D01*
X119073890Y-98337913D01*
X119074526Y-98338031D01*
X119092438Y-98343133D01*
X119101013Y-98346476D01*
X119164319Y-98354810D01*
X119169414Y-98355616D01*
X119195422Y-98360437D01*
X119226319Y-98366164D01*
X119226323Y-98366164D01*
X119232192Y-98367252D01*
X119294418Y-98363664D01*
X119300118Y-98363500D01*
X122927522Y-98363500D01*
X122985713Y-98382407D01*
X123021677Y-98431907D01*
X123021677Y-98493093D01*
X122997526Y-98532504D01*
X122691526Y-98838504D01*
X122637009Y-98866281D01*
X122621522Y-98867500D01*
X117679164Y-98867500D01*
X117620973Y-98848593D01*
X117609160Y-98838504D01*
X115835416Y-97064759D01*
X115807639Y-97010242D01*
X115806420Y-96994755D01*
X115806420Y-95626449D01*
X115806649Y-95619715D01*
X115809943Y-95571392D01*
X115810598Y-95561790D01*
X115809573Y-95555919D01*
X115809573Y-95555914D01*
X115799622Y-95498900D01*
X115798865Y-95493773D01*
X115791913Y-95436324D01*
X115791913Y-95436323D01*
X115791196Y-95430400D01*
X115787942Y-95421788D01*
X115783028Y-95403824D01*
X115782473Y-95400644D01*
X115781447Y-95394766D01*
X115778783Y-95388696D01*
X115755788Y-95336313D01*
X115753830Y-95331514D01*
X115733375Y-95277381D01*
X115731265Y-95271797D01*
X115726056Y-95264218D01*
X115716995Y-95247940D01*
X115713298Y-95239517D01*
X115674428Y-95188861D01*
X115671382Y-95184668D01*
X115666609Y-95177723D01*
X115635232Y-95132069D01*
X115588694Y-95090605D01*
X115584548Y-95086692D01*
X114784907Y-94287051D01*
X114757130Y-94232534D01*
X114766701Y-94172102D01*
X114777756Y-94155014D01*
X114795370Y-94133106D01*
X114798731Y-94128926D01*
X114880895Y-93963408D01*
X114887475Y-93937020D01*
X114924544Y-93788342D01*
X114925600Y-93784107D01*
X114928500Y-93741566D01*
X114928500Y-92694434D01*
X114926884Y-92670723D01*
X114925897Y-92656245D01*
X114925896Y-92656241D01*
X114925600Y-92651893D01*
X114880895Y-92472592D01*
X114857144Y-92424745D01*
X114841077Y-92392379D01*
X114798731Y-92307074D01*
X114795372Y-92302897D01*
X114795370Y-92302893D01*
X114686304Y-92167244D01*
X114682940Y-92163060D01*
X114638295Y-92127164D01*
X114543107Y-92050630D01*
X114543103Y-92050628D01*
X114538926Y-92047269D01*
X114517583Y-92036674D01*
X114473869Y-91993866D01*
X114463666Y-91933537D01*
X114490872Y-91878733D01*
X114517583Y-91859326D01*
X114538926Y-91848731D01*
X114543103Y-91845372D01*
X114543107Y-91845370D01*
X114678756Y-91736304D01*
X114682940Y-91732940D01*
X114764991Y-91630890D01*
X114795370Y-91593107D01*
X114795372Y-91593103D01*
X114798731Y-91588926D01*
X114844162Y-91497407D01*
X114878508Y-91428217D01*
X114878509Y-91428215D01*
X114880895Y-91423408D01*
X114886578Y-91400617D01*
X114920352Y-91265155D01*
X114925600Y-91244107D01*
X114926769Y-91226966D01*
X114927117Y-91221849D01*
X114928500Y-91201566D01*
X114928500Y-90154434D01*
X114925600Y-90111893D01*
X114904745Y-90028249D01*
X114909013Y-89967214D01*
X114948342Y-89920344D01*
X115000804Y-89905300D01*
X116497329Y-89905300D01*
X116555520Y-89924207D01*
G37*
%TD.AperFunction*%
%TA.AperFunction,Conductor*%
G36*
X119676100Y-89924207D02*
G01*
X119687913Y-89934296D01*
X120171281Y-90417665D01*
X120653350Y-90899734D01*
X120657949Y-90904658D01*
X120696104Y-90948396D01*
X120744913Y-90982699D01*
X120748329Y-90985100D01*
X120752489Y-90988190D01*
X120798030Y-91023898D01*
X120802730Y-91027583D01*
X120811115Y-91031369D01*
X120827291Y-91040596D01*
X120834820Y-91045887D01*
X120894335Y-91069091D01*
X120899046Y-91071071D01*
X120957257Y-91097355D01*
X120962125Y-91098257D01*
X121011676Y-91133471D01*
X121028257Y-91168547D01*
X121034705Y-91194408D01*
X121037088Y-91199209D01*
X121037089Y-91199211D01*
X121069824Y-91265155D01*
X121116869Y-91359926D01*
X121120228Y-91364103D01*
X121120230Y-91364107D01*
X121184144Y-91443599D01*
X121232660Y-91503940D01*
X121236844Y-91507304D01*
X121372493Y-91616370D01*
X121372497Y-91616372D01*
X121376674Y-91619731D01*
X121381479Y-91622116D01*
X121515843Y-91688815D01*
X121542192Y-91701895D01*
X121547399Y-91703193D01*
X121547401Y-91703194D01*
X121657088Y-91730542D01*
X121703142Y-91756598D01*
X121925830Y-91979287D01*
X122141670Y-92195127D01*
X122146269Y-92200050D01*
X122184431Y-92243796D01*
X122235945Y-92280000D01*
X122236652Y-92280497D01*
X122240805Y-92283582D01*
X122291057Y-92322984D01*
X122299446Y-92326772D01*
X122315622Y-92335998D01*
X122323147Y-92341287D01*
X122382613Y-92364472D01*
X122387387Y-92366479D01*
X122397046Y-92370841D01*
X122442298Y-92412022D01*
X122455300Y-92461067D01*
X122455300Y-93487166D01*
X122458200Y-93529707D01*
X122495758Y-93680343D01*
X122491490Y-93741378D01*
X122452161Y-93788249D01*
X122427493Y-93798216D01*
X122427744Y-93798988D01*
X122422803Y-93800593D01*
X122417733Y-93801671D01*
X122412999Y-93803779D01*
X122412995Y-93803780D01*
X122259142Y-93872280D01*
X122259140Y-93872281D01*
X122254408Y-93874388D01*
X122109770Y-93979474D01*
X122106302Y-93983326D01*
X122102442Y-93986801D01*
X122100951Y-93985145D01*
X122055699Y-94011277D01*
X121994848Y-94004886D01*
X121965103Y-93984446D01*
X121215722Y-93235065D01*
X121211123Y-93230141D01*
X121176892Y-93190901D01*
X121172969Y-93186404D01*
X121120739Y-93149697D01*
X121116586Y-93146612D01*
X121074922Y-93113943D01*
X121047334Y-93080056D01*
X121007531Y-92999874D01*
X121004172Y-92995697D01*
X121004170Y-92995693D01*
X120895104Y-92860044D01*
X120891740Y-92855860D01*
X120814657Y-92793883D01*
X120751907Y-92743430D01*
X120751903Y-92743428D01*
X120747726Y-92740069D01*
X120608030Y-92670723D01*
X120587017Y-92660292D01*
X120587015Y-92660291D01*
X120582208Y-92657905D01*
X120577001Y-92656607D01*
X120576999Y-92656606D01*
X120407142Y-92614256D01*
X120407143Y-92614256D01*
X120402907Y-92613200D01*
X120398559Y-92612904D01*
X120398555Y-92612903D01*
X120380649Y-92611683D01*
X120360366Y-92610300D01*
X119440220Y-92610300D01*
X119382029Y-92591393D01*
X119346065Y-92541893D01*
X119341220Y-92511300D01*
X119341220Y-91695549D01*
X119341449Y-91688815D01*
X119341470Y-91688503D01*
X119345398Y-91630890D01*
X119344373Y-91625019D01*
X119344373Y-91625014D01*
X119334421Y-91567993D01*
X119333664Y-91562866D01*
X119326712Y-91505421D01*
X119325996Y-91499500D01*
X119323889Y-91493924D01*
X119323888Y-91493920D01*
X119322746Y-91490899D01*
X119317829Y-91472925D01*
X119317274Y-91469746D01*
X119316248Y-91463866D01*
X119307352Y-91443599D01*
X119290590Y-91405416D01*
X119288631Y-91400617D01*
X119268175Y-91346481D01*
X119266065Y-91340897D01*
X119260858Y-91333320D01*
X119251795Y-91317038D01*
X119250497Y-91314082D01*
X119248099Y-91308618D01*
X119244468Y-91303886D01*
X119244465Y-91303881D01*
X119209233Y-91257966D01*
X119206187Y-91253774D01*
X119173413Y-91206088D01*
X119173412Y-91206087D01*
X119170032Y-91201169D01*
X119165579Y-91197202D01*
X119165576Y-91197198D01*
X119123494Y-91159705D01*
X119119348Y-91155792D01*
X118818296Y-90854740D01*
X118790519Y-90800223D01*
X118789300Y-90784736D01*
X118789300Y-90179834D01*
X118787684Y-90156123D01*
X118786697Y-90141645D01*
X118786696Y-90141641D01*
X118786400Y-90137293D01*
X118759212Y-90028249D01*
X118763480Y-89967214D01*
X118802809Y-89920343D01*
X118855271Y-89905300D01*
X119617909Y-89905300D01*
X119676100Y-89924207D01*
G37*
%TD.AperFunction*%
%TA.AperFunction,Conductor*%
G36*
X117134964Y-82139690D02*
G01*
X117207570Y-82220326D01*
X117211768Y-82223376D01*
X117211769Y-82223377D01*
X117221881Y-82230724D01*
X117352207Y-82325412D01*
X117423164Y-82357004D01*
X117510795Y-82396020D01*
X117510799Y-82396021D01*
X117515533Y-82398129D01*
X117597257Y-82415500D01*
X117646677Y-82442333D01*
X117722071Y-82517727D01*
X117726670Y-82522651D01*
X117764831Y-82566396D01*
X117769710Y-82569825D01*
X117817071Y-82603111D01*
X117821225Y-82606197D01*
X117871457Y-82645583D01*
X117876894Y-82648038D01*
X117876896Y-82648039D01*
X117878057Y-82648563D01*
X117879835Y-82649366D01*
X117896024Y-82658599D01*
X117903547Y-82663887D01*
X117963044Y-82687084D01*
X117967812Y-82689089D01*
X118025983Y-82715355D01*
X118035028Y-82717031D01*
X118052941Y-82722134D01*
X118061513Y-82725476D01*
X118067432Y-82726255D01*
X118067435Y-82726256D01*
X118124811Y-82733809D01*
X118129930Y-82734620D01*
X118151825Y-82738678D01*
X118192692Y-82746252D01*
X118254918Y-82742664D01*
X118260618Y-82742500D01*
X119988636Y-82742500D01*
X120046827Y-82761407D01*
X120058640Y-82771496D01*
X121192404Y-83905261D01*
X121220181Y-83959778D01*
X121221400Y-83975265D01*
X121221400Y-87194895D01*
X121199554Y-87256929D01*
X121141869Y-87328674D01*
X121139484Y-87333479D01*
X121074544Y-87464300D01*
X121059705Y-87494192D01*
X121058407Y-87499399D01*
X121058406Y-87499401D01*
X121051576Y-87526794D01*
X121015000Y-87673493D01*
X121014704Y-87677841D01*
X121014703Y-87677845D01*
X121013483Y-87695751D01*
X121012100Y-87716034D01*
X121012100Y-88194220D01*
X120993193Y-88252411D01*
X120943693Y-88288375D01*
X120889185Y-88288374D01*
X120888867Y-88289871D01*
X120821115Y-88275470D01*
X120771694Y-88248637D01*
X119899322Y-87376265D01*
X119894723Y-87371341D01*
X119860492Y-87332101D01*
X119856569Y-87327604D01*
X119806695Y-87292552D01*
X119793616Y-87281559D01*
X119349652Y-86837595D01*
X119321875Y-86783078D01*
X119328192Y-86729708D01*
X119340844Y-86699162D01*
X119342065Y-86689893D01*
X119355877Y-86584974D01*
X119356300Y-86581761D01*
X119356299Y-85503040D01*
X119355426Y-85496403D01*
X119341691Y-85392073D01*
X119340844Y-85385638D01*
X119338362Y-85379645D01*
X119338360Y-85379639D01*
X119297206Y-85280285D01*
X119292405Y-85219289D01*
X119297206Y-85204515D01*
X119338359Y-85105162D01*
X119338360Y-85105160D01*
X119340844Y-85099162D01*
X119356300Y-84981761D01*
X119356299Y-83903040D01*
X119351452Y-83866215D01*
X119341691Y-83792073D01*
X119340844Y-83785638D01*
X119338362Y-83779646D01*
X119338361Y-83779642D01*
X119282819Y-83645554D01*
X119280336Y-83639559D01*
X119184082Y-83514118D01*
X119058641Y-83417864D01*
X118912562Y-83357356D01*
X118795161Y-83341900D01*
X118305876Y-83341900D01*
X117816440Y-83341901D01*
X117813229Y-83342324D01*
X117813224Y-83342324D01*
X117751255Y-83350482D01*
X117699038Y-83357356D01*
X117693046Y-83359838D01*
X117693042Y-83359839D01*
X117615436Y-83391985D01*
X117552959Y-83417864D01*
X117427518Y-83514118D01*
X117331264Y-83639559D01*
X117328782Y-83645550D01*
X117328779Y-83645556D01*
X117324541Y-83655788D01*
X117284803Y-83702313D01*
X117233078Y-83716900D01*
X115278522Y-83716900D01*
X115220331Y-83697993D01*
X115187059Y-83655788D01*
X115182821Y-83645556D01*
X115182818Y-83645550D01*
X115180336Y-83639559D01*
X115084082Y-83514118D01*
X114958641Y-83417864D01*
X114812562Y-83357356D01*
X114695161Y-83341900D01*
X114205876Y-83341900D01*
X113716440Y-83341901D01*
X113713229Y-83342324D01*
X113713224Y-83342324D01*
X113651255Y-83350482D01*
X113599038Y-83357356D01*
X113593046Y-83359838D01*
X113593042Y-83359839D01*
X113515436Y-83391985D01*
X113452959Y-83417864D01*
X113327518Y-83514118D01*
X113231264Y-83639559D01*
X113170756Y-83785638D01*
X113155300Y-83903039D01*
X113155301Y-84170189D01*
X113155301Y-84425879D01*
X113136394Y-84484070D01*
X113126305Y-84495883D01*
X112687497Y-84934691D01*
X112676172Y-84944423D01*
X112658140Y-84957693D01*
X112654417Y-84962075D01*
X112654415Y-84962077D01*
X112624859Y-84996867D01*
X112619415Y-85002773D01*
X112613337Y-85008851D01*
X112611554Y-85011105D01*
X112596242Y-85030458D01*
X112594051Y-85033130D01*
X112552330Y-85082238D01*
X112552328Y-85082241D01*
X112548606Y-85086622D01*
X112545991Y-85091743D01*
X112542798Y-85096531D01*
X112542658Y-85096437D01*
X112541280Y-85098583D01*
X112541424Y-85098672D01*
X112538403Y-85103563D01*
X112534832Y-85108077D01*
X112532394Y-85113293D01*
X112532375Y-85113324D01*
X112510182Y-85138453D01*
X112452898Y-85184511D01*
X112449790Y-85188215D01*
X112329887Y-85331110D01*
X112329884Y-85331114D01*
X112326778Y-85334816D01*
X112232254Y-85506754D01*
X112172926Y-85693778D01*
X112151055Y-85888763D01*
X112151460Y-85893583D01*
X112165977Y-86066463D01*
X112167473Y-86084283D01*
X112168806Y-86088931D01*
X112168806Y-86088932D01*
X112216141Y-86254006D01*
X112221556Y-86272891D01*
X112223771Y-86277201D01*
X112309029Y-86443096D01*
X112309032Y-86443100D01*
X112311242Y-86447401D01*
X112433116Y-86601169D01*
X112436803Y-86604307D01*
X112436805Y-86604309D01*
X112578848Y-86725197D01*
X112578853Y-86725200D01*
X112582536Y-86728335D01*
X112586758Y-86730695D01*
X112586763Y-86730698D01*
X112653329Y-86767900D01*
X112753811Y-86824057D01*
X112834855Y-86850390D01*
X112935811Y-86883193D01*
X112935814Y-86883194D01*
X112940416Y-86884689D01*
X113135244Y-86907921D01*
X113140066Y-86907550D01*
X113140068Y-86907550D01*
X113167737Y-86905421D01*
X113217843Y-86901565D01*
X113277312Y-86915952D01*
X113303976Y-86940001D01*
X113327518Y-86970682D01*
X113332671Y-86974636D01*
X113337255Y-86979220D01*
X113336159Y-86980316D01*
X113366444Y-87024386D01*
X113364840Y-87085551D01*
X113327591Y-87134091D01*
X113271520Y-87151500D01*
X111393158Y-87151500D01*
X111334967Y-87132593D01*
X111299003Y-87083093D01*
X111294387Y-87059235D01*
X111293297Y-87043244D01*
X111293296Y-87043240D01*
X111293000Y-87038893D01*
X111254695Y-86885262D01*
X111249594Y-86864801D01*
X111249593Y-86864799D01*
X111248295Y-86859592D01*
X111166131Y-86694074D01*
X111162772Y-86689897D01*
X111162770Y-86689893D01*
X111053704Y-86554244D01*
X111050340Y-86550060D01*
X111009203Y-86516985D01*
X110910507Y-86437630D01*
X110910503Y-86437628D01*
X110906326Y-86434269D01*
X110740808Y-86352105D01*
X110735601Y-86350807D01*
X110735599Y-86350806D01*
X110565742Y-86308456D01*
X110565743Y-86308456D01*
X110561507Y-86307400D01*
X110557159Y-86307104D01*
X110557155Y-86307103D01*
X110539249Y-86305883D01*
X110518966Y-86304500D01*
X109871834Y-86304500D01*
X109851551Y-86305883D01*
X109833645Y-86307103D01*
X109833641Y-86307104D01*
X109829293Y-86307400D01*
X109825057Y-86308456D01*
X109825058Y-86308456D01*
X109655201Y-86350806D01*
X109655199Y-86350807D01*
X109649992Y-86352105D01*
X109484474Y-86434269D01*
X109480297Y-86437628D01*
X109480293Y-86437630D01*
X109381597Y-86516985D01*
X109340460Y-86550060D01*
X109322554Y-86572331D01*
X109271356Y-86605833D01*
X109210243Y-86602843D01*
X109168246Y-86572331D01*
X109150340Y-86550060D01*
X109109203Y-86516985D01*
X109010507Y-86437630D01*
X109010503Y-86437628D01*
X109006326Y-86434269D01*
X108840808Y-86352105D01*
X108835601Y-86350807D01*
X108835599Y-86350806D01*
X108665742Y-86308456D01*
X108665743Y-86308456D01*
X108661507Y-86307400D01*
X108657159Y-86307104D01*
X108657155Y-86307103D01*
X108639249Y-86305883D01*
X108618966Y-86304500D01*
X107971834Y-86304500D01*
X107951551Y-86305883D01*
X107933645Y-86307103D01*
X107933641Y-86307104D01*
X107929293Y-86307400D01*
X107806649Y-86337979D01*
X107745613Y-86333711D01*
X107724513Y-86322015D01*
X107666393Y-86279788D01*
X107579152Y-86240946D01*
X107507805Y-86209180D01*
X107507801Y-86209179D01*
X107503067Y-86207071D01*
X107497997Y-86205993D01*
X107497996Y-86205993D01*
X107351418Y-86174837D01*
X107298430Y-86144244D01*
X107273543Y-86088348D01*
X107286264Y-86028500D01*
X107331734Y-85987559D01*
X107372001Y-85979000D01*
X111048800Y-85979000D01*
X111048800Y-85242400D01*
X110722396Y-85267508D01*
X110714803Y-85267800D01*
X110357925Y-85267800D01*
X110299734Y-85248893D01*
X110263770Y-85199393D01*
X110263770Y-85138207D01*
X110276487Y-85112507D01*
X111082715Y-83946148D01*
X112302013Y-82182206D01*
X112350653Y-82145090D01*
X112383450Y-82139500D01*
X116840814Y-82139500D01*
X116892538Y-82136790D01*
X116902781Y-82136253D01*
X116902785Y-82136253D01*
X116904096Y-82136184D01*
X116916158Y-82134916D01*
X116922740Y-82134225D01*
X116922746Y-82134224D01*
X116924679Y-82134021D01*
X116926592Y-82133666D01*
X116926602Y-82133665D01*
X117013008Y-82117651D01*
X117013012Y-82117650D01*
X117018115Y-82116704D01*
X117022909Y-82114718D01*
X117022913Y-82114717D01*
X117023506Y-82114471D01*
X117023828Y-82114446D01*
X117027885Y-82113244D01*
X117028140Y-82114106D01*
X117084503Y-82109669D01*
X117134964Y-82139690D01*
G37*
%TD.AperFunction*%
%TA.AperFunction,Conductor*%
G36*
X118092107Y-76161007D02*
G01*
X118128071Y-76210507D01*
X118128071Y-76271693D01*
X118111070Y-76303134D01*
X118064630Y-76360893D01*
X118064628Y-76360897D01*
X118061269Y-76365074D01*
X117979105Y-76530592D01*
X117934400Y-76709893D01*
X117931500Y-76752434D01*
X117931500Y-78949566D01*
X117934400Y-78992107D01*
X117979105Y-79171408D01*
X117981487Y-79176206D01*
X117981490Y-79176215D01*
X118002175Y-79217884D01*
X118012500Y-79261903D01*
X118012500Y-79556571D01*
X117993593Y-79614762D01*
X117944093Y-79650726D01*
X117913092Y-79655570D01*
X112499353Y-79633106D01*
X112496842Y-79633101D01*
X112008999Y-79633100D01*
X112006747Y-79633100D01*
X111952147Y-79638062D01*
X111899819Y-79642817D01*
X111899808Y-79642819D01*
X111897591Y-79643020D01*
X111895389Y-79643424D01*
X111895386Y-79643424D01*
X111884454Y-79645428D01*
X111862480Y-79649455D01*
X111860318Y-79650058D01*
X111860317Y-79650058D01*
X111839070Y-79655982D01*
X111756892Y-79678894D01*
X111754804Y-79679686D01*
X111754801Y-79679687D01*
X110598711Y-80118204D01*
X110537597Y-80121163D01*
X110486416Y-80087635D01*
X110464600Y-80025639D01*
X110464600Y-79908400D01*
X106774500Y-79908400D01*
X106716309Y-79889493D01*
X106680345Y-79839993D01*
X106675500Y-79809400D01*
X106675500Y-76241100D01*
X106694407Y-76182909D01*
X106743907Y-76146945D01*
X106774500Y-76142100D01*
X118033916Y-76142100D01*
X118092107Y-76161007D01*
G37*
%TD.AperFunction*%
%TD*%
%TA.AperFunction,Conductor*%
%TO.N,+BATT*%
G36*
X120609191Y-79012907D02*
G01*
X120645155Y-79062407D01*
X120650000Y-79093000D01*
X120650000Y-81271974D01*
X120631093Y-81330165D01*
X120581593Y-81366129D01*
X120531234Y-81366392D01*
X120530816Y-81368645D01*
X120521774Y-81366969D01*
X120503862Y-81361867D01*
X120495287Y-81358524D01*
X120431981Y-81350190D01*
X120426886Y-81349384D01*
X120394713Y-81343420D01*
X120369980Y-81338836D01*
X120369977Y-81338836D01*
X120364108Y-81337748D01*
X120301876Y-81341336D01*
X120296178Y-81341500D01*
X118666943Y-81341500D01*
X118608752Y-81322593D01*
X118572789Y-81273093D01*
X118562655Y-81241904D01*
X118562654Y-81241902D01*
X118561050Y-81236965D01*
X118471659Y-81082135D01*
X118352030Y-80949274D01*
X118207393Y-80844188D01*
X118125730Y-80807830D01*
X118048805Y-80773580D01*
X118048801Y-80773579D01*
X118044067Y-80771471D01*
X118038997Y-80770393D01*
X118038996Y-80770393D01*
X118005072Y-80763182D01*
X117869191Y-80734300D01*
X117690409Y-80734300D01*
X117554528Y-80763182D01*
X117520604Y-80770393D01*
X117520603Y-80770393D01*
X117515533Y-80771471D01*
X117510799Y-80773579D01*
X117510795Y-80773580D01*
X117356942Y-80842080D01*
X117356940Y-80842081D01*
X117352208Y-80844188D01*
X117207570Y-80949274D01*
X117204104Y-80953124D01*
X117204100Y-80953127D01*
X117095836Y-81073367D01*
X117087941Y-81082135D01*
X116998550Y-81236965D01*
X116943303Y-81406997D01*
X116940803Y-81430780D01*
X116939272Y-81445348D01*
X116914385Y-81501244D01*
X116861397Y-81531837D01*
X116840814Y-81534000D01*
X112014000Y-81534000D01*
X112009237Y-81540891D01*
X109707618Y-84870611D01*
X109658977Y-84907728D01*
X109626129Y-84913318D01*
X107490587Y-84912224D01*
X107432406Y-84893287D01*
X107413172Y-84874868D01*
X106697034Y-83974925D01*
X106675500Y-83913281D01*
X106675500Y-81955835D01*
X106694407Y-81897644D01*
X106701343Y-81889133D01*
X107412552Y-81109098D01*
X107465730Y-81078837D01*
X107485709Y-81076800D01*
X109778800Y-81076800D01*
X111971635Y-80245035D01*
X112006746Y-80238600D01*
X112496430Y-80238600D01*
X112496841Y-80238601D01*
X118602318Y-80263935D01*
X118618000Y-80264000D01*
X118618000Y-79093000D01*
X118636907Y-79034809D01*
X118686407Y-78998845D01*
X118717000Y-78994000D01*
X120551000Y-78994000D01*
X120609191Y-79012907D01*
G37*
%TD.AperFunction*%
%TD*%
M02*
