%TF.GenerationSoftware,KiCad,Pcbnew,(6.0.5)*%
%TF.CreationDate,2022-06-14T13:50:17+08:00*%
%TF.ProjectId,V4.0,56342e30-2e6b-4696-9361-645f70636258,rev?*%
%TF.SameCoordinates,Original*%
%TF.FileFunction,Legend,Top*%
%TF.FilePolarity,Positive*%
%FSLAX46Y46*%
G04 Gerber Fmt 4.6, Leading zero omitted, Abs format (unit mm)*
G04 Created by KiCad (PCBNEW (6.0.5)) date 2022-06-14 13:50:17*
%MOMM*%
%LPD*%
G01*
G04 APERTURE LIST*
%ADD10C,0.150000*%
%ADD11C,0.120000*%
%ADD12C,0.100000*%
G04 APERTURE END LIST*
D10*
%TO.C,RNTC1*%
X123057180Y-106754728D02*
X122580990Y-107088061D01*
X123057180Y-107326157D02*
X122057180Y-107326157D01*
X122057180Y-106945204D01*
X122104800Y-106849966D01*
X122152419Y-106802347D01*
X122247657Y-106754728D01*
X122390514Y-106754728D01*
X122485752Y-106802347D01*
X122533371Y-106849966D01*
X122580990Y-106945204D01*
X122580990Y-107326157D01*
X123057180Y-106326157D02*
X122057180Y-106326157D01*
X123057180Y-105754728D01*
X122057180Y-105754728D01*
X122057180Y-105421395D02*
X122057180Y-104849966D01*
X123057180Y-105135680D02*
X122057180Y-105135680D01*
X122961942Y-103945204D02*
X123009561Y-103992823D01*
X123057180Y-104135680D01*
X123057180Y-104230919D01*
X123009561Y-104373776D01*
X122914323Y-104469014D01*
X122819085Y-104516633D01*
X122628609Y-104564252D01*
X122485752Y-104564252D01*
X122295276Y-104516633D01*
X122200038Y-104469014D01*
X122104800Y-104373776D01*
X122057180Y-104230919D01*
X122057180Y-104135680D01*
X122104800Y-103992823D01*
X122152419Y-103945204D01*
X123057180Y-102992823D02*
X123057180Y-103564252D01*
X123057180Y-103278538D02*
X122057180Y-103278538D01*
X122200038Y-103373776D01*
X122295276Y-103469014D01*
X122342895Y-103564252D01*
%TO.C,RPMAX1*%
X119116742Y-100909380D02*
X118783409Y-100433190D01*
X118545314Y-100909380D02*
X118545314Y-99909380D01*
X118926266Y-99909380D01*
X119021504Y-99957000D01*
X119069123Y-100004619D01*
X119116742Y-100099857D01*
X119116742Y-100242714D01*
X119069123Y-100337952D01*
X119021504Y-100385571D01*
X118926266Y-100433190D01*
X118545314Y-100433190D01*
X119545314Y-100909380D02*
X119545314Y-99909380D01*
X119926266Y-99909380D01*
X120021504Y-99957000D01*
X120069123Y-100004619D01*
X120116742Y-100099857D01*
X120116742Y-100242714D01*
X120069123Y-100337952D01*
X120021504Y-100385571D01*
X119926266Y-100433190D01*
X119545314Y-100433190D01*
X120545314Y-100909380D02*
X120545314Y-99909380D01*
X120878647Y-100623666D01*
X121211980Y-99909380D01*
X121211980Y-100909380D01*
X121640552Y-100623666D02*
X122116742Y-100623666D01*
X121545314Y-100909380D02*
X121878647Y-99909380D01*
X122211980Y-100909380D01*
X122450076Y-99909380D02*
X123116742Y-100909380D01*
X123116742Y-99909380D02*
X122450076Y-100909380D01*
X124021504Y-100909380D02*
X123450076Y-100909380D01*
X123735790Y-100909380D02*
X123735790Y-99909380D01*
X123640552Y-100052238D01*
X123545314Y-100147476D01*
X123450076Y-100195095D01*
%TO.C,R18*%
X107462580Y-96908857D02*
X106986390Y-97242190D01*
X107462580Y-97480285D02*
X106462580Y-97480285D01*
X106462580Y-97099333D01*
X106510200Y-97004095D01*
X106557819Y-96956476D01*
X106653057Y-96908857D01*
X106795914Y-96908857D01*
X106891152Y-96956476D01*
X106938771Y-97004095D01*
X106986390Y-97099333D01*
X106986390Y-97480285D01*
X107462580Y-95956476D02*
X107462580Y-96527904D01*
X107462580Y-96242190D02*
X106462580Y-96242190D01*
X106605438Y-96337428D01*
X106700676Y-96432666D01*
X106748295Y-96527904D01*
X106891152Y-95385047D02*
X106843533Y-95480285D01*
X106795914Y-95527904D01*
X106700676Y-95575523D01*
X106653057Y-95575523D01*
X106557819Y-95527904D01*
X106510200Y-95480285D01*
X106462580Y-95385047D01*
X106462580Y-95194571D01*
X106510200Y-95099333D01*
X106557819Y-95051714D01*
X106653057Y-95004095D01*
X106700676Y-95004095D01*
X106795914Y-95051714D01*
X106843533Y-95099333D01*
X106891152Y-95194571D01*
X106891152Y-95385047D01*
X106938771Y-95480285D01*
X106986390Y-95527904D01*
X107081628Y-95575523D01*
X107272104Y-95575523D01*
X107367342Y-95527904D01*
X107414961Y-95480285D01*
X107462580Y-95385047D01*
X107462580Y-95194571D01*
X107414961Y-95099333D01*
X107367342Y-95051714D01*
X107272104Y-95004095D01*
X107081628Y-95004095D01*
X106986390Y-95051714D01*
X106938771Y-95099333D01*
X106891152Y-95194571D01*
%TO.C,C5*%
X145121333Y-96978742D02*
X145073714Y-97026361D01*
X144930857Y-97073980D01*
X144835619Y-97073980D01*
X144692761Y-97026361D01*
X144597523Y-96931123D01*
X144549904Y-96835885D01*
X144502285Y-96645409D01*
X144502285Y-96502552D01*
X144549904Y-96312076D01*
X144597523Y-96216838D01*
X144692761Y-96121600D01*
X144835619Y-96073980D01*
X144930857Y-96073980D01*
X145073714Y-96121600D01*
X145121333Y-96169219D01*
X146026095Y-96073980D02*
X145549904Y-96073980D01*
X145502285Y-96550171D01*
X145549904Y-96502552D01*
X145645142Y-96454933D01*
X145883238Y-96454933D01*
X145978476Y-96502552D01*
X146026095Y-96550171D01*
X146073714Y-96645409D01*
X146073714Y-96883504D01*
X146026095Y-96978742D01*
X145978476Y-97026361D01*
X145883238Y-97073980D01*
X145645142Y-97073980D01*
X145549904Y-97026361D01*
X145502285Y-96978742D01*
%TO.C,C7*%
X145121333Y-107418142D02*
X145073714Y-107465761D01*
X144930857Y-107513380D01*
X144835619Y-107513380D01*
X144692761Y-107465761D01*
X144597523Y-107370523D01*
X144549904Y-107275285D01*
X144502285Y-107084809D01*
X144502285Y-106941952D01*
X144549904Y-106751476D01*
X144597523Y-106656238D01*
X144692761Y-106561000D01*
X144835619Y-106513380D01*
X144930857Y-106513380D01*
X145073714Y-106561000D01*
X145121333Y-106608619D01*
X145454666Y-106513380D02*
X146121333Y-106513380D01*
X145692761Y-107513380D01*
%TO.C,R8*%
X125690333Y-88666580D02*
X125357000Y-88190390D01*
X125118904Y-88666580D02*
X125118904Y-87666580D01*
X125499857Y-87666580D01*
X125595095Y-87714200D01*
X125642714Y-87761819D01*
X125690333Y-87857057D01*
X125690333Y-87999914D01*
X125642714Y-88095152D01*
X125595095Y-88142771D01*
X125499857Y-88190390D01*
X125118904Y-88190390D01*
X126261761Y-88095152D02*
X126166523Y-88047533D01*
X126118904Y-87999914D01*
X126071285Y-87904676D01*
X126071285Y-87857057D01*
X126118904Y-87761819D01*
X126166523Y-87714200D01*
X126261761Y-87666580D01*
X126452238Y-87666580D01*
X126547476Y-87714200D01*
X126595095Y-87761819D01*
X126642714Y-87857057D01*
X126642714Y-87904676D01*
X126595095Y-87999914D01*
X126547476Y-88047533D01*
X126452238Y-88095152D01*
X126261761Y-88095152D01*
X126166523Y-88142771D01*
X126118904Y-88190390D01*
X126071285Y-88285628D01*
X126071285Y-88476104D01*
X126118904Y-88571342D01*
X126166523Y-88618961D01*
X126261761Y-88666580D01*
X126452238Y-88666580D01*
X126547476Y-88618961D01*
X126595095Y-88571342D01*
X126642714Y-88476104D01*
X126642714Y-88285628D01*
X126595095Y-88190390D01*
X126547476Y-88142771D01*
X126452238Y-88095152D01*
%TO.C,R12*%
X115892342Y-88844380D02*
X115559009Y-88368190D01*
X115320914Y-88844380D02*
X115320914Y-87844380D01*
X115701866Y-87844380D01*
X115797104Y-87892000D01*
X115844723Y-87939619D01*
X115892342Y-88034857D01*
X115892342Y-88177714D01*
X115844723Y-88272952D01*
X115797104Y-88320571D01*
X115701866Y-88368190D01*
X115320914Y-88368190D01*
X116844723Y-88844380D02*
X116273295Y-88844380D01*
X116559009Y-88844380D02*
X116559009Y-87844380D01*
X116463771Y-87987238D01*
X116368533Y-88082476D01*
X116273295Y-88130095D01*
X117225676Y-87939619D02*
X117273295Y-87892000D01*
X117368533Y-87844380D01*
X117606628Y-87844380D01*
X117701866Y-87892000D01*
X117749485Y-87939619D01*
X117797104Y-88034857D01*
X117797104Y-88130095D01*
X117749485Y-88272952D01*
X117178057Y-88844380D01*
X117797104Y-88844380D01*
%TO.C,D2*%
X111529904Y-88107780D02*
X111529904Y-87107780D01*
X111768000Y-87107780D01*
X111910857Y-87155400D01*
X112006095Y-87250638D01*
X112053714Y-87345876D01*
X112101333Y-87536352D01*
X112101333Y-87679209D01*
X112053714Y-87869685D01*
X112006095Y-87964923D01*
X111910857Y-88060161D01*
X111768000Y-88107780D01*
X111529904Y-88107780D01*
X112482285Y-87203019D02*
X112529904Y-87155400D01*
X112625142Y-87107780D01*
X112863238Y-87107780D01*
X112958476Y-87155400D01*
X113006095Y-87203019D01*
X113053714Y-87298257D01*
X113053714Y-87393495D01*
X113006095Y-87536352D01*
X112434666Y-88107780D01*
X113053714Y-88107780D01*
%TO.C,R16*%
X107513380Y-102649257D02*
X107037190Y-102982590D01*
X107513380Y-103220685D02*
X106513380Y-103220685D01*
X106513380Y-102839733D01*
X106561000Y-102744495D01*
X106608619Y-102696876D01*
X106703857Y-102649257D01*
X106846714Y-102649257D01*
X106941952Y-102696876D01*
X106989571Y-102744495D01*
X107037190Y-102839733D01*
X107037190Y-103220685D01*
X107513380Y-101696876D02*
X107513380Y-102268304D01*
X107513380Y-101982590D02*
X106513380Y-101982590D01*
X106656238Y-102077828D01*
X106751476Y-102173066D01*
X106799095Y-102268304D01*
X106513380Y-100839733D02*
X106513380Y-101030209D01*
X106561000Y-101125447D01*
X106608619Y-101173066D01*
X106751476Y-101268304D01*
X106941952Y-101315923D01*
X107322904Y-101315923D01*
X107418142Y-101268304D01*
X107465761Y-101220685D01*
X107513380Y-101125447D01*
X107513380Y-100934971D01*
X107465761Y-100839733D01*
X107418142Y-100792114D01*
X107322904Y-100744495D01*
X107084809Y-100744495D01*
X106989571Y-100792114D01*
X106941952Y-100839733D01*
X106894333Y-100934971D01*
X106894333Y-101125447D01*
X106941952Y-101220685D01*
X106989571Y-101268304D01*
X107084809Y-101315923D01*
%TO.C,C18*%
X112590342Y-76760342D02*
X112542723Y-76807961D01*
X112399866Y-76855580D01*
X112304628Y-76855580D01*
X112161771Y-76807961D01*
X112066533Y-76712723D01*
X112018914Y-76617485D01*
X111971295Y-76427009D01*
X111971295Y-76284152D01*
X112018914Y-76093676D01*
X112066533Y-75998438D01*
X112161771Y-75903200D01*
X112304628Y-75855580D01*
X112399866Y-75855580D01*
X112542723Y-75903200D01*
X112590342Y-75950819D01*
X113542723Y-76855580D02*
X112971295Y-76855580D01*
X113257009Y-76855580D02*
X113257009Y-75855580D01*
X113161771Y-75998438D01*
X113066533Y-76093676D01*
X112971295Y-76141295D01*
X114114152Y-76284152D02*
X114018914Y-76236533D01*
X113971295Y-76188914D01*
X113923676Y-76093676D01*
X113923676Y-76046057D01*
X113971295Y-75950819D01*
X114018914Y-75903200D01*
X114114152Y-75855580D01*
X114304628Y-75855580D01*
X114399866Y-75903200D01*
X114447485Y-75950819D01*
X114495104Y-76046057D01*
X114495104Y-76093676D01*
X114447485Y-76188914D01*
X114399866Y-76236533D01*
X114304628Y-76284152D01*
X114114152Y-76284152D01*
X114018914Y-76331771D01*
X113971295Y-76379390D01*
X113923676Y-76474628D01*
X113923676Y-76665104D01*
X113971295Y-76760342D01*
X114018914Y-76807961D01*
X114114152Y-76855580D01*
X114304628Y-76855580D01*
X114399866Y-76807961D01*
X114447485Y-76760342D01*
X114495104Y-76665104D01*
X114495104Y-76474628D01*
X114447485Y-76379390D01*
X114399866Y-76331771D01*
X114304628Y-76284152D01*
%TO.C,R11*%
X116095542Y-95219780D02*
X115762209Y-94743590D01*
X115524114Y-95219780D02*
X115524114Y-94219780D01*
X115905066Y-94219780D01*
X116000304Y-94267400D01*
X116047923Y-94315019D01*
X116095542Y-94410257D01*
X116095542Y-94553114D01*
X116047923Y-94648352D01*
X116000304Y-94695971D01*
X115905066Y-94743590D01*
X115524114Y-94743590D01*
X117047923Y-95219780D02*
X116476495Y-95219780D01*
X116762209Y-95219780D02*
X116762209Y-94219780D01*
X116666971Y-94362638D01*
X116571733Y-94457876D01*
X116476495Y-94505495D01*
X118000304Y-95219780D02*
X117428876Y-95219780D01*
X117714590Y-95219780D02*
X117714590Y-94219780D01*
X117619352Y-94362638D01*
X117524114Y-94457876D01*
X117428876Y-94505495D01*
%TO.C,C12*%
X127881142Y-85548742D02*
X127833523Y-85596361D01*
X127690666Y-85643980D01*
X127595428Y-85643980D01*
X127452571Y-85596361D01*
X127357333Y-85501123D01*
X127309714Y-85405885D01*
X127262095Y-85215409D01*
X127262095Y-85072552D01*
X127309714Y-84882076D01*
X127357333Y-84786838D01*
X127452571Y-84691600D01*
X127595428Y-84643980D01*
X127690666Y-84643980D01*
X127833523Y-84691600D01*
X127881142Y-84739219D01*
X128833523Y-85643980D02*
X128262095Y-85643980D01*
X128547809Y-85643980D02*
X128547809Y-84643980D01*
X128452571Y-84786838D01*
X128357333Y-84882076D01*
X128262095Y-84929695D01*
X129214476Y-84739219D02*
X129262095Y-84691600D01*
X129357333Y-84643980D01*
X129595428Y-84643980D01*
X129690666Y-84691600D01*
X129738285Y-84739219D01*
X129785904Y-84834457D01*
X129785904Y-84929695D01*
X129738285Y-85072552D01*
X129166857Y-85643980D01*
X129785904Y-85643980D01*
%TO.C,C11*%
X134459742Y-85548742D02*
X134412123Y-85596361D01*
X134269266Y-85643980D01*
X134174028Y-85643980D01*
X134031171Y-85596361D01*
X133935933Y-85501123D01*
X133888314Y-85405885D01*
X133840695Y-85215409D01*
X133840695Y-85072552D01*
X133888314Y-84882076D01*
X133935933Y-84786838D01*
X134031171Y-84691600D01*
X134174028Y-84643980D01*
X134269266Y-84643980D01*
X134412123Y-84691600D01*
X134459742Y-84739219D01*
X135412123Y-85643980D02*
X134840695Y-85643980D01*
X135126409Y-85643980D02*
X135126409Y-84643980D01*
X135031171Y-84786838D01*
X134935933Y-84882076D01*
X134840695Y-84929695D01*
X136364504Y-85643980D02*
X135793076Y-85643980D01*
X136078790Y-85643980D02*
X136078790Y-84643980D01*
X135983552Y-84786838D01*
X135888314Y-84882076D01*
X135793076Y-84929695D01*
%TO.C,C4*%
X131583333Y-108257142D02*
X131535714Y-108304761D01*
X131392857Y-108352380D01*
X131297619Y-108352380D01*
X131154761Y-108304761D01*
X131059523Y-108209523D01*
X131011904Y-108114285D01*
X130964285Y-107923809D01*
X130964285Y-107780952D01*
X131011904Y-107590476D01*
X131059523Y-107495238D01*
X131154761Y-107400000D01*
X131297619Y-107352380D01*
X131392857Y-107352380D01*
X131535714Y-107400000D01*
X131583333Y-107447619D01*
X132440476Y-107685714D02*
X132440476Y-108352380D01*
X132202380Y-107304761D02*
X131964285Y-108019047D01*
X132583333Y-108019047D01*
%TO.C,SW1*%
X114922466Y-83197161D02*
X115065323Y-83244780D01*
X115303419Y-83244780D01*
X115398657Y-83197161D01*
X115446276Y-83149542D01*
X115493895Y-83054304D01*
X115493895Y-82959066D01*
X115446276Y-82863828D01*
X115398657Y-82816209D01*
X115303419Y-82768590D01*
X115112942Y-82720971D01*
X115017704Y-82673352D01*
X114970085Y-82625733D01*
X114922466Y-82530495D01*
X114922466Y-82435257D01*
X114970085Y-82340019D01*
X115017704Y-82292400D01*
X115112942Y-82244780D01*
X115351038Y-82244780D01*
X115493895Y-82292400D01*
X115827228Y-82244780D02*
X116065323Y-83244780D01*
X116255800Y-82530495D01*
X116446276Y-83244780D01*
X116684371Y-82244780D01*
X117589133Y-83244780D02*
X117017704Y-83244780D01*
X117303419Y-83244780D02*
X117303419Y-82244780D01*
X117208180Y-82387638D01*
X117112942Y-82482876D01*
X117017704Y-82530495D01*
%TO.C,U1*%
X128270095Y-101780380D02*
X128270095Y-102589904D01*
X128317714Y-102685142D01*
X128365333Y-102732761D01*
X128460571Y-102780380D01*
X128651047Y-102780380D01*
X128746285Y-102732761D01*
X128793904Y-102685142D01*
X128841523Y-102589904D01*
X128841523Y-101780380D01*
X129841523Y-102780380D02*
X129270095Y-102780380D01*
X129555809Y-102780380D02*
X129555809Y-101780380D01*
X129460571Y-101923238D01*
X129365333Y-102018476D01*
X129270095Y-102066095D01*
%TO.C,C6*%
X145172133Y-104801942D02*
X145124514Y-104849561D01*
X144981657Y-104897180D01*
X144886419Y-104897180D01*
X144743561Y-104849561D01*
X144648323Y-104754323D01*
X144600704Y-104659085D01*
X144553085Y-104468609D01*
X144553085Y-104325752D01*
X144600704Y-104135276D01*
X144648323Y-104040038D01*
X144743561Y-103944800D01*
X144886419Y-103897180D01*
X144981657Y-103897180D01*
X145124514Y-103944800D01*
X145172133Y-103992419D01*
X146029276Y-103897180D02*
X145838800Y-103897180D01*
X145743561Y-103944800D01*
X145695942Y-103992419D01*
X145600704Y-104135276D01*
X145553085Y-104325752D01*
X145553085Y-104706704D01*
X145600704Y-104801942D01*
X145648323Y-104849561D01*
X145743561Y-104897180D01*
X145934038Y-104897180D01*
X146029276Y-104849561D01*
X146076895Y-104801942D01*
X146124514Y-104706704D01*
X146124514Y-104468609D01*
X146076895Y-104373371D01*
X146029276Y-104325752D01*
X145934038Y-104278133D01*
X145743561Y-104278133D01*
X145648323Y-104325752D01*
X145600704Y-104373371D01*
X145553085Y-104468609D01*
%TO.C,R19*%
X107538780Y-94013257D02*
X107062590Y-94346590D01*
X107538780Y-94584685D02*
X106538780Y-94584685D01*
X106538780Y-94203733D01*
X106586400Y-94108495D01*
X106634019Y-94060876D01*
X106729257Y-94013257D01*
X106872114Y-94013257D01*
X106967352Y-94060876D01*
X107014971Y-94108495D01*
X107062590Y-94203733D01*
X107062590Y-94584685D01*
X107538780Y-93060876D02*
X107538780Y-93632304D01*
X107538780Y-93346590D02*
X106538780Y-93346590D01*
X106681638Y-93441828D01*
X106776876Y-93537066D01*
X106824495Y-93632304D01*
X107538780Y-92584685D02*
X107538780Y-92394209D01*
X107491161Y-92298971D01*
X107443542Y-92251352D01*
X107300685Y-92156114D01*
X107110209Y-92108495D01*
X106729257Y-92108495D01*
X106634019Y-92156114D01*
X106586400Y-92203733D01*
X106538780Y-92298971D01*
X106538780Y-92489447D01*
X106586400Y-92584685D01*
X106634019Y-92632304D01*
X106729257Y-92679923D01*
X106967352Y-92679923D01*
X107062590Y-92632304D01*
X107110209Y-92584685D01*
X107157828Y-92489447D01*
X107157828Y-92298971D01*
X107110209Y-92203733D01*
X107062590Y-92156114D01*
X106967352Y-92108495D01*
%TO.C,C8*%
X147407333Y-100941142D02*
X147359714Y-100988761D01*
X147216857Y-101036380D01*
X147121619Y-101036380D01*
X146978761Y-100988761D01*
X146883523Y-100893523D01*
X146835904Y-100798285D01*
X146788285Y-100607809D01*
X146788285Y-100464952D01*
X146835904Y-100274476D01*
X146883523Y-100179238D01*
X146978761Y-100084000D01*
X147121619Y-100036380D01*
X147216857Y-100036380D01*
X147359714Y-100084000D01*
X147407333Y-100131619D01*
X147978761Y-100464952D02*
X147883523Y-100417333D01*
X147835904Y-100369714D01*
X147788285Y-100274476D01*
X147788285Y-100226857D01*
X147835904Y-100131619D01*
X147883523Y-100084000D01*
X147978761Y-100036380D01*
X148169238Y-100036380D01*
X148264476Y-100084000D01*
X148312095Y-100131619D01*
X148359714Y-100226857D01*
X148359714Y-100274476D01*
X148312095Y-100369714D01*
X148264476Y-100417333D01*
X148169238Y-100464952D01*
X147978761Y-100464952D01*
X147883523Y-100512571D01*
X147835904Y-100560190D01*
X147788285Y-100655428D01*
X147788285Y-100845904D01*
X147835904Y-100941142D01*
X147883523Y-100988761D01*
X147978761Y-101036380D01*
X148169238Y-101036380D01*
X148264476Y-100988761D01*
X148312095Y-100941142D01*
X148359714Y-100845904D01*
X148359714Y-100655428D01*
X148312095Y-100560190D01*
X148264476Y-100512571D01*
X148169238Y-100464952D01*
%TO.C,D3*%
X127735104Y-80741780D02*
X127735104Y-79741780D01*
X127973200Y-79741780D01*
X128116057Y-79789400D01*
X128211295Y-79884638D01*
X128258914Y-79979876D01*
X128306533Y-80170352D01*
X128306533Y-80313209D01*
X128258914Y-80503685D01*
X128211295Y-80598923D01*
X128116057Y-80694161D01*
X127973200Y-80741780D01*
X127735104Y-80741780D01*
X128639866Y-79741780D02*
X129258914Y-79741780D01*
X128925580Y-80122733D01*
X129068438Y-80122733D01*
X129163676Y-80170352D01*
X129211295Y-80217971D01*
X129258914Y-80313209D01*
X129258914Y-80551304D01*
X129211295Y-80646542D01*
X129163676Y-80694161D01*
X129068438Y-80741780D01*
X128782723Y-80741780D01*
X128687485Y-80694161D01*
X128639866Y-80646542D01*
%TO.C,R17*%
X107538780Y-99855257D02*
X107062590Y-100188590D01*
X107538780Y-100426685D02*
X106538780Y-100426685D01*
X106538780Y-100045733D01*
X106586400Y-99950495D01*
X106634019Y-99902876D01*
X106729257Y-99855257D01*
X106872114Y-99855257D01*
X106967352Y-99902876D01*
X107014971Y-99950495D01*
X107062590Y-100045733D01*
X107062590Y-100426685D01*
X107538780Y-98902876D02*
X107538780Y-99474304D01*
X107538780Y-99188590D02*
X106538780Y-99188590D01*
X106681638Y-99283828D01*
X106776876Y-99379066D01*
X106824495Y-99474304D01*
X106538780Y-98569542D02*
X106538780Y-97902876D01*
X107538780Y-98331447D01*
%TO.C,J4*%
X110229704Y-80987866D02*
X110801133Y-80987866D01*
X110915419Y-81025961D01*
X110991609Y-81102152D01*
X111029704Y-81216438D01*
X111029704Y-81292628D01*
X110496371Y-80264057D02*
X111029704Y-80264057D01*
X110191609Y-80454533D02*
X110763038Y-80645009D01*
X110763038Y-80149771D01*
X106533142Y-78549428D02*
X106533142Y-77406571D01*
X110612228Y-85470952D02*
X110612228Y-84709047D01*
X110993180Y-85090000D02*
X110231276Y-85090000D01*
%TO.C,C16*%
X122039142Y-78208142D02*
X121991523Y-78255761D01*
X121848666Y-78303380D01*
X121753428Y-78303380D01*
X121610571Y-78255761D01*
X121515333Y-78160523D01*
X121467714Y-78065285D01*
X121420095Y-77874809D01*
X121420095Y-77731952D01*
X121467714Y-77541476D01*
X121515333Y-77446238D01*
X121610571Y-77351000D01*
X121753428Y-77303380D01*
X121848666Y-77303380D01*
X121991523Y-77351000D01*
X122039142Y-77398619D01*
X122991523Y-78303380D02*
X122420095Y-78303380D01*
X122705809Y-78303380D02*
X122705809Y-77303380D01*
X122610571Y-77446238D01*
X122515333Y-77541476D01*
X122420095Y-77589095D01*
X123848666Y-77303380D02*
X123658190Y-77303380D01*
X123562952Y-77351000D01*
X123515333Y-77398619D01*
X123420095Y-77541476D01*
X123372476Y-77731952D01*
X123372476Y-78112904D01*
X123420095Y-78208142D01*
X123467714Y-78255761D01*
X123562952Y-78303380D01*
X123753428Y-78303380D01*
X123848666Y-78255761D01*
X123896285Y-78208142D01*
X123943904Y-78112904D01*
X123943904Y-77874809D01*
X123896285Y-77779571D01*
X123848666Y-77731952D01*
X123753428Y-77684333D01*
X123562952Y-77684333D01*
X123467714Y-77731952D01*
X123420095Y-77779571D01*
X123372476Y-77874809D01*
%TO.C,C2*%
X141633333Y-108157142D02*
X141585714Y-108204761D01*
X141442857Y-108252380D01*
X141347619Y-108252380D01*
X141204761Y-108204761D01*
X141109523Y-108109523D01*
X141061904Y-108014285D01*
X141014285Y-107823809D01*
X141014285Y-107680952D01*
X141061904Y-107490476D01*
X141109523Y-107395238D01*
X141204761Y-107300000D01*
X141347619Y-107252380D01*
X141442857Y-107252380D01*
X141585714Y-107300000D01*
X141633333Y-107347619D01*
X142014285Y-107347619D02*
X142061904Y-107300000D01*
X142157142Y-107252380D01*
X142395238Y-107252380D01*
X142490476Y-107300000D01*
X142538095Y-107347619D01*
X142585714Y-107442857D01*
X142585714Y-107538095D01*
X142538095Y-107680952D01*
X141966666Y-108252380D01*
X142585714Y-108252380D01*
%TO.C,C14*%
X122267742Y-94921342D02*
X122220123Y-94968961D01*
X122077266Y-95016580D01*
X121982028Y-95016580D01*
X121839171Y-94968961D01*
X121743933Y-94873723D01*
X121696314Y-94778485D01*
X121648695Y-94588009D01*
X121648695Y-94445152D01*
X121696314Y-94254676D01*
X121743933Y-94159438D01*
X121839171Y-94064200D01*
X121982028Y-94016580D01*
X122077266Y-94016580D01*
X122220123Y-94064200D01*
X122267742Y-94111819D01*
X123220123Y-95016580D02*
X122648695Y-95016580D01*
X122934409Y-95016580D02*
X122934409Y-94016580D01*
X122839171Y-94159438D01*
X122743933Y-94254676D01*
X122648695Y-94302295D01*
X124077266Y-94349914D02*
X124077266Y-95016580D01*
X123839171Y-93968961D02*
X123601076Y-94683247D01*
X124220123Y-94683247D01*
%TO.C,C10*%
X130268742Y-91339942D02*
X130221123Y-91387561D01*
X130078266Y-91435180D01*
X129983028Y-91435180D01*
X129840171Y-91387561D01*
X129744933Y-91292323D01*
X129697314Y-91197085D01*
X129649695Y-91006609D01*
X129649695Y-90863752D01*
X129697314Y-90673276D01*
X129744933Y-90578038D01*
X129840171Y-90482800D01*
X129983028Y-90435180D01*
X130078266Y-90435180D01*
X130221123Y-90482800D01*
X130268742Y-90530419D01*
X131221123Y-91435180D02*
X130649695Y-91435180D01*
X130935409Y-91435180D02*
X130935409Y-90435180D01*
X130840171Y-90578038D01*
X130744933Y-90673276D01*
X130649695Y-90720895D01*
X131840171Y-90435180D02*
X131935409Y-90435180D01*
X132030647Y-90482800D01*
X132078266Y-90530419D01*
X132125885Y-90625657D01*
X132173504Y-90816133D01*
X132173504Y-91054228D01*
X132125885Y-91244704D01*
X132078266Y-91339942D01*
X132030647Y-91387561D01*
X131935409Y-91435180D01*
X131840171Y-91435180D01*
X131744933Y-91387561D01*
X131697314Y-91339942D01*
X131649695Y-91244704D01*
X131602076Y-91054228D01*
X131602076Y-90816133D01*
X131649695Y-90625657D01*
X131697314Y-90530419D01*
X131744933Y-90482800D01*
X131840171Y-90435180D01*
%TO.C,R10*%
X116273342Y-98521780D02*
X115940009Y-98045590D01*
X115701914Y-98521780D02*
X115701914Y-97521780D01*
X116082866Y-97521780D01*
X116178104Y-97569400D01*
X116225723Y-97617019D01*
X116273342Y-97712257D01*
X116273342Y-97855114D01*
X116225723Y-97950352D01*
X116178104Y-97997971D01*
X116082866Y-98045590D01*
X115701914Y-98045590D01*
X117225723Y-98521780D02*
X116654295Y-98521780D01*
X116940009Y-98521780D02*
X116940009Y-97521780D01*
X116844771Y-97664638D01*
X116749533Y-97759876D01*
X116654295Y-97807495D01*
X117844771Y-97521780D02*
X117940009Y-97521780D01*
X118035247Y-97569400D01*
X118082866Y-97617019D01*
X118130485Y-97712257D01*
X118178104Y-97902733D01*
X118178104Y-98140828D01*
X118130485Y-98331304D01*
X118082866Y-98426542D01*
X118035247Y-98474161D01*
X117940009Y-98521780D01*
X117844771Y-98521780D01*
X117749533Y-98474161D01*
X117701914Y-98426542D01*
X117654295Y-98331304D01*
X117606676Y-98140828D01*
X117606676Y-97902733D01*
X117654295Y-97712257D01*
X117701914Y-97617019D01*
X117749533Y-97569400D01*
X117844771Y-97521780D01*
%TO.C,R20*%
X107564180Y-90965257D02*
X107087990Y-91298590D01*
X107564180Y-91536685D02*
X106564180Y-91536685D01*
X106564180Y-91155733D01*
X106611800Y-91060495D01*
X106659419Y-91012876D01*
X106754657Y-90965257D01*
X106897514Y-90965257D01*
X106992752Y-91012876D01*
X107040371Y-91060495D01*
X107087990Y-91155733D01*
X107087990Y-91536685D01*
X106659419Y-90584304D02*
X106611800Y-90536685D01*
X106564180Y-90441447D01*
X106564180Y-90203352D01*
X106611800Y-90108114D01*
X106659419Y-90060495D01*
X106754657Y-90012876D01*
X106849895Y-90012876D01*
X106992752Y-90060495D01*
X107564180Y-90631923D01*
X107564180Y-90012876D01*
X106564180Y-89393828D02*
X106564180Y-89298590D01*
X106611800Y-89203352D01*
X106659419Y-89155733D01*
X106754657Y-89108114D01*
X106945133Y-89060495D01*
X107183228Y-89060495D01*
X107373704Y-89108114D01*
X107468942Y-89155733D01*
X107516561Y-89203352D01*
X107564180Y-89298590D01*
X107564180Y-89393828D01*
X107516561Y-89489066D01*
X107468942Y-89536685D01*
X107373704Y-89584304D01*
X107183228Y-89631923D01*
X106945133Y-89631923D01*
X106754657Y-89584304D01*
X106659419Y-89536685D01*
X106611800Y-89489066D01*
X106564180Y-89393828D01*
%TO.C,C15*%
X126315742Y-105138457D02*
X126363361Y-105186076D01*
X126410980Y-105328933D01*
X126410980Y-105424171D01*
X126363361Y-105567028D01*
X126268123Y-105662266D01*
X126172885Y-105709885D01*
X125982409Y-105757504D01*
X125839552Y-105757504D01*
X125649076Y-105709885D01*
X125553838Y-105662266D01*
X125458600Y-105567028D01*
X125410980Y-105424171D01*
X125410980Y-105328933D01*
X125458600Y-105186076D01*
X125506219Y-105138457D01*
X126410980Y-104186076D02*
X126410980Y-104757504D01*
X126410980Y-104471790D02*
X125410980Y-104471790D01*
X125553838Y-104567028D01*
X125649076Y-104662266D01*
X125696695Y-104757504D01*
X125410980Y-103281314D02*
X125410980Y-103757504D01*
X125887171Y-103805123D01*
X125839552Y-103757504D01*
X125791933Y-103662266D01*
X125791933Y-103424171D01*
X125839552Y-103328933D01*
X125887171Y-103281314D01*
X125982409Y-103233695D01*
X126220504Y-103233695D01*
X126315742Y-103281314D01*
X126363361Y-103328933D01*
X126410980Y-103424171D01*
X126410980Y-103662266D01*
X126363361Y-103757504D01*
X126315742Y-103805123D01*
%TO.C,C17*%
X115409742Y-76811142D02*
X115362123Y-76858761D01*
X115219266Y-76906380D01*
X115124028Y-76906380D01*
X114981171Y-76858761D01*
X114885933Y-76763523D01*
X114838314Y-76668285D01*
X114790695Y-76477809D01*
X114790695Y-76334952D01*
X114838314Y-76144476D01*
X114885933Y-76049238D01*
X114981171Y-75954000D01*
X115124028Y-75906380D01*
X115219266Y-75906380D01*
X115362123Y-75954000D01*
X115409742Y-76001619D01*
X116362123Y-76906380D02*
X115790695Y-76906380D01*
X116076409Y-76906380D02*
X116076409Y-75906380D01*
X115981171Y-76049238D01*
X115885933Y-76144476D01*
X115790695Y-76192095D01*
X116695457Y-75906380D02*
X117362123Y-75906380D01*
X116933552Y-76906380D01*
%TO.C,C13*%
X125569742Y-90781142D02*
X125522123Y-90828761D01*
X125379266Y-90876380D01*
X125284028Y-90876380D01*
X125141171Y-90828761D01*
X125045933Y-90733523D01*
X124998314Y-90638285D01*
X124950695Y-90447809D01*
X124950695Y-90304952D01*
X124998314Y-90114476D01*
X125045933Y-90019238D01*
X125141171Y-89924000D01*
X125284028Y-89876380D01*
X125379266Y-89876380D01*
X125522123Y-89924000D01*
X125569742Y-89971619D01*
X126522123Y-90876380D02*
X125950695Y-90876380D01*
X126236409Y-90876380D02*
X126236409Y-89876380D01*
X126141171Y-90019238D01*
X126045933Y-90114476D01*
X125950695Y-90162095D01*
X126855457Y-89876380D02*
X127474504Y-89876380D01*
X127141171Y-90257333D01*
X127284028Y-90257333D01*
X127379266Y-90304952D01*
X127426885Y-90352571D01*
X127474504Y-90447809D01*
X127474504Y-90685904D01*
X127426885Y-90781142D01*
X127379266Y-90828761D01*
X127284028Y-90876380D01*
X126998314Y-90876380D01*
X126903076Y-90828761D01*
X126855457Y-90781142D01*
%TO.C,SW2*%
X145580266Y-85661361D02*
X145723123Y-85708980D01*
X145961219Y-85708980D01*
X146056457Y-85661361D01*
X146104076Y-85613742D01*
X146151695Y-85518504D01*
X146151695Y-85423266D01*
X146104076Y-85328028D01*
X146056457Y-85280409D01*
X145961219Y-85232790D01*
X145770742Y-85185171D01*
X145675504Y-85137552D01*
X145627885Y-85089933D01*
X145580266Y-84994695D01*
X145580266Y-84899457D01*
X145627885Y-84804219D01*
X145675504Y-84756600D01*
X145770742Y-84708980D01*
X146008838Y-84708980D01*
X146151695Y-84756600D01*
X146485028Y-84708980D02*
X146723123Y-85708980D01*
X146913600Y-84994695D01*
X147104076Y-85708980D01*
X147342171Y-84708980D01*
X147675504Y-84804219D02*
X147723123Y-84756600D01*
X147818361Y-84708980D01*
X148056457Y-84708980D01*
X148151695Y-84756600D01*
X148199314Y-84804219D01*
X148246933Y-84899457D01*
X148246933Y-84994695D01*
X148199314Y-85137552D01*
X147627885Y-85708980D01*
X148246933Y-85708980D01*
%TO.C,J2*%
X143278266Y-115807380D02*
X143278266Y-116521666D01*
X143230647Y-116664523D01*
X143135409Y-116759761D01*
X142992552Y-116807380D01*
X142897314Y-116807380D01*
X143706838Y-115902619D02*
X143754457Y-115855000D01*
X143849695Y-115807380D01*
X144087790Y-115807380D01*
X144183028Y-115855000D01*
X144230647Y-115902619D01*
X144278266Y-115997857D01*
X144278266Y-116093095D01*
X144230647Y-116235952D01*
X143659219Y-116807380D01*
X144278266Y-116807380D01*
%TO.C,R3*%
X131278333Y-89276180D02*
X130945000Y-88799990D01*
X130706904Y-89276180D02*
X130706904Y-88276180D01*
X131087857Y-88276180D01*
X131183095Y-88323800D01*
X131230714Y-88371419D01*
X131278333Y-88466657D01*
X131278333Y-88609514D01*
X131230714Y-88704752D01*
X131183095Y-88752371D01*
X131087857Y-88799990D01*
X130706904Y-88799990D01*
X131611666Y-88276180D02*
X132230714Y-88276180D01*
X131897380Y-88657133D01*
X132040238Y-88657133D01*
X132135476Y-88704752D01*
X132183095Y-88752371D01*
X132230714Y-88847609D01*
X132230714Y-89085704D01*
X132183095Y-89180942D01*
X132135476Y-89228561D01*
X132040238Y-89276180D01*
X131754523Y-89276180D01*
X131659285Y-89228561D01*
X131611666Y-89180942D01*
%TO.C,J5*%
X108886666Y-105160380D02*
X108886666Y-105874666D01*
X108839047Y-106017523D01*
X108743809Y-106112761D01*
X108600952Y-106160380D01*
X108505714Y-106160380D01*
X109839047Y-105160380D02*
X109362857Y-105160380D01*
X109315238Y-105636571D01*
X109362857Y-105588952D01*
X109458095Y-105541333D01*
X109696190Y-105541333D01*
X109791428Y-105588952D01*
X109839047Y-105636571D01*
X109886666Y-105731809D01*
X109886666Y-105969904D01*
X109839047Y-106065142D01*
X109791428Y-106112761D01*
X109696190Y-106160380D01*
X109458095Y-106160380D01*
X109362857Y-106112761D01*
X109315238Y-106065142D01*
%TO.C,J1*%
X116252666Y-114514380D02*
X116252666Y-115228666D01*
X116205047Y-115371523D01*
X116109809Y-115466761D01*
X115966952Y-115514380D01*
X115871714Y-115514380D01*
X117252666Y-115514380D02*
X116681238Y-115514380D01*
X116966952Y-115514380D02*
X116966952Y-114514380D01*
X116871714Y-114657238D01*
X116776476Y-114752476D01*
X116681238Y-114800095D01*
%TO.C,J3*%
X130666666Y-115807380D02*
X130666666Y-116521666D01*
X130619047Y-116664523D01*
X130523809Y-116759761D01*
X130380952Y-116807380D01*
X130285714Y-116807380D01*
X131047619Y-115807380D02*
X131666666Y-115807380D01*
X131333333Y-116188333D01*
X131476190Y-116188333D01*
X131571428Y-116235952D01*
X131619047Y-116283571D01*
X131666666Y-116378809D01*
X131666666Y-116616904D01*
X131619047Y-116712142D01*
X131571428Y-116759761D01*
X131476190Y-116807380D01*
X131190476Y-116807380D01*
X131095238Y-116759761D01*
X131047619Y-116712142D01*
%TO.C,C22*%
X119924485Y-90758914D02*
X119953057Y-90787485D01*
X119981628Y-90873200D01*
X119981628Y-90930342D01*
X119953057Y-91016057D01*
X119895914Y-91073200D01*
X119838771Y-91101771D01*
X119724485Y-91130342D01*
X119638771Y-91130342D01*
X119524485Y-91101771D01*
X119467342Y-91073200D01*
X119410200Y-91016057D01*
X119381628Y-90930342D01*
X119381628Y-90873200D01*
X119410200Y-90787485D01*
X119438771Y-90758914D01*
X119438771Y-90530342D02*
X119410200Y-90501771D01*
X119381628Y-90444628D01*
X119381628Y-90301771D01*
X119410200Y-90244628D01*
X119438771Y-90216057D01*
X119495914Y-90187485D01*
X119553057Y-90187485D01*
X119638771Y-90216057D01*
X119981628Y-90558914D01*
X119981628Y-90187485D01*
X119438771Y-89958914D02*
X119410200Y-89930342D01*
X119381628Y-89873200D01*
X119381628Y-89730342D01*
X119410200Y-89673200D01*
X119438771Y-89644628D01*
X119495914Y-89616057D01*
X119553057Y-89616057D01*
X119638771Y-89644628D01*
X119981628Y-89987485D01*
X119981628Y-89616057D01*
%TO.C,D1*%
X131672104Y-80665580D02*
X131672104Y-79665580D01*
X131910200Y-79665580D01*
X132053057Y-79713200D01*
X132148295Y-79808438D01*
X132195914Y-79903676D01*
X132243533Y-80094152D01*
X132243533Y-80237009D01*
X132195914Y-80427485D01*
X132148295Y-80522723D01*
X132053057Y-80617961D01*
X131910200Y-80665580D01*
X131672104Y-80665580D01*
X133195914Y-80665580D02*
X132624485Y-80665580D01*
X132910200Y-80665580D02*
X132910200Y-79665580D01*
X132814961Y-79808438D01*
X132719723Y-79903676D01*
X132624485Y-79951295D01*
%TO.C,R15*%
X112260142Y-105607380D02*
X111926809Y-105131190D01*
X111688714Y-105607380D02*
X111688714Y-104607380D01*
X112069666Y-104607380D01*
X112164904Y-104655000D01*
X112212523Y-104702619D01*
X112260142Y-104797857D01*
X112260142Y-104940714D01*
X112212523Y-105035952D01*
X112164904Y-105083571D01*
X112069666Y-105131190D01*
X111688714Y-105131190D01*
X113212523Y-105607380D02*
X112641095Y-105607380D01*
X112926809Y-105607380D02*
X112926809Y-104607380D01*
X112831571Y-104750238D01*
X112736333Y-104845476D01*
X112641095Y-104893095D01*
X114117285Y-104607380D02*
X113641095Y-104607380D01*
X113593476Y-105083571D01*
X113641095Y-105035952D01*
X113736333Y-104988333D01*
X113974428Y-104988333D01*
X114069666Y-105035952D01*
X114117285Y-105083571D01*
X114164904Y-105178809D01*
X114164904Y-105416904D01*
X114117285Y-105512142D01*
X114069666Y-105559761D01*
X113974428Y-105607380D01*
X113736333Y-105607380D01*
X113641095Y-105559761D01*
X113593476Y-105512142D01*
D11*
%TO.C,RNTC1*%
X120219800Y-104956236D02*
X120219800Y-105410364D01*
X121689800Y-104956236D02*
X121689800Y-105410364D01*
%TO.C,RPMAX1*%
X121385064Y-103147800D02*
X120930936Y-103147800D01*
X121385064Y-101677800D02*
X120930936Y-101677800D01*
%TO.C,R18*%
X113104664Y-95099200D02*
X112650536Y-95099200D01*
X113104664Y-96569200D02*
X112650536Y-96569200D01*
%TO.C,C5*%
X148564548Y-97557000D02*
X149987052Y-97557000D01*
X148564548Y-95737000D02*
X149987052Y-95737000D01*
%TO.C,C7*%
X148589948Y-106024000D02*
X150012452Y-106024000D01*
X148589948Y-107844000D02*
X150012452Y-107844000D01*
%TO.C,R8*%
X123264664Y-88974600D02*
X122810536Y-88974600D01*
X123264664Y-87504600D02*
X122810536Y-87504600D01*
%TO.C,R12*%
X116990864Y-91438400D02*
X116536736Y-91438400D01*
X116990864Y-89968400D02*
X116536736Y-89968400D01*
%TO.C,D2*%
X108984148Y-86895000D02*
X109506652Y-86895000D01*
X108984148Y-88365000D02*
X109506652Y-88365000D01*
%TO.C,R16*%
X113130064Y-100103000D02*
X112675936Y-100103000D01*
X113130064Y-101573000D02*
X112675936Y-101573000D01*
%TO.C,C18*%
X114219400Y-80137052D02*
X114219400Y-78714548D01*
X112399400Y-80137052D02*
X112399400Y-78714548D01*
%TO.C,R11*%
X116990864Y-92457600D02*
X116536736Y-92457600D01*
X116990864Y-93927600D02*
X116536736Y-93927600D01*
%TO.C,C12*%
X125584852Y-85926600D02*
X125062348Y-85926600D01*
X125584852Y-84456600D02*
X125062348Y-84456600D01*
%TO.C,C11*%
X131717148Y-85926600D02*
X132239652Y-85926600D01*
X131717148Y-84456600D02*
X132239652Y-84456600D01*
%TO.C,C4*%
X127340000Y-113260000D02*
X135400000Y-113260000D01*
X135400000Y-108740000D02*
X127340000Y-108740000D01*
X127340000Y-108740000D02*
X127340000Y-113260000D01*
%TO.C,SW1*%
X114055800Y-86792400D02*
X118455800Y-86792400D01*
X114055800Y-85292400D02*
X114055800Y-85192400D01*
X118455800Y-83692400D02*
X114055800Y-83692400D01*
X118455800Y-85292400D02*
X118455800Y-85192400D01*
%TO.C,U1*%
X125672000Y-92918000D02*
X124922000Y-92918000D01*
X124922000Y-92918000D02*
X124922000Y-93668000D01*
X125672000Y-101138000D02*
X124922000Y-101138000D01*
X133142000Y-92918000D02*
X133142000Y-93668000D01*
X132392000Y-92918000D02*
X133142000Y-92918000D01*
X124922000Y-101138000D02*
X124922000Y-100388000D01*
X132392000Y-101138000D02*
X133142000Y-101138000D01*
%TO.C,C6*%
X148640748Y-105304000D02*
X150063252Y-105304000D01*
X148640748Y-103484000D02*
X150063252Y-103484000D01*
%TO.C,R19*%
X113130064Y-92483000D02*
X112675936Y-92483000D01*
X113130064Y-93953000D02*
X112675936Y-93953000D01*
%TO.C,C8*%
X143164000Y-102844000D02*
X151224000Y-102844000D01*
X151224000Y-98324000D02*
X143164000Y-98324000D01*
X143164000Y-98324000D02*
X143164000Y-102844000D01*
%TO.C,D3*%
X123444000Y-83464400D02*
X123444000Y-81178400D01*
X123444000Y-81178400D02*
X128016000Y-81178400D01*
X128016000Y-81178400D02*
X128016000Y-83464400D01*
X128016000Y-83464400D02*
X123444000Y-83464400D01*
G36*
X127254000Y-81178400D02*
G01*
X126492000Y-81178400D01*
X126492000Y-80924400D01*
X127254000Y-80924400D01*
X127254000Y-81178400D01*
G37*
D12*
X127254000Y-81178400D02*
X126492000Y-81178400D01*
X126492000Y-80924400D01*
X127254000Y-80924400D01*
X127254000Y-81178400D01*
G36*
X127254000Y-83718400D02*
G01*
X126492000Y-83718400D01*
X126492000Y-83464400D01*
X127254000Y-83464400D01*
X127254000Y-83718400D01*
G37*
X127254000Y-83718400D02*
X126492000Y-83718400D01*
X126492000Y-83464400D01*
X127254000Y-83464400D01*
X127254000Y-83718400D01*
D11*
%TO.C,R17*%
X113130064Y-99033000D02*
X112675936Y-99033000D01*
X113130064Y-97563000D02*
X112675936Y-97563000D01*
%TO.C,J4*%
X107124200Y-75282600D02*
X105824200Y-76982600D01*
X105824200Y-76982600D02*
X105824200Y-85702600D01*
X109944200Y-75282600D02*
X111244200Y-76982600D01*
X109944200Y-75282600D02*
X107124200Y-75282600D01*
X111244200Y-76982600D02*
X111244200Y-85702600D01*
X111244200Y-85702600D02*
X105824200Y-85702600D01*
%TO.C,C16*%
X118272000Y-80111000D02*
X126332000Y-80111000D01*
X118272000Y-75591000D02*
X118272000Y-80111000D01*
X126332000Y-75591000D02*
X118272000Y-75591000D01*
%TO.C,C2*%
X145450000Y-108640000D02*
X137390000Y-108640000D01*
X137390000Y-113160000D02*
X145450000Y-113160000D01*
X137390000Y-108640000D02*
X137390000Y-113160000D01*
%TO.C,C14*%
X122867052Y-92203600D02*
X122344548Y-92203600D01*
X122867052Y-93673600D02*
X122344548Y-93673600D01*
%TO.C,C10*%
X134627252Y-91692400D02*
X134104748Y-91692400D01*
X134627252Y-90222400D02*
X134104748Y-90222400D01*
%TO.C,R10*%
X117244864Y-97051800D02*
X116790736Y-97051800D01*
X117244864Y-95581800D02*
X116790736Y-95581800D01*
%TO.C,R20*%
X113130064Y-89943000D02*
X112675936Y-89943000D01*
X113130064Y-91413000D02*
X112675936Y-91413000D01*
%TO.C,C15*%
X123318600Y-104731452D02*
X123318600Y-104208948D01*
X124788600Y-104731452D02*
X124788600Y-104208948D01*
%TO.C,C17*%
X116937200Y-80111652D02*
X116937200Y-78689148D01*
X115117200Y-80111652D02*
X115117200Y-78689148D01*
%TO.C,C13*%
X122776348Y-91159000D02*
X123298852Y-91159000D01*
X122776348Y-89689000D02*
X123298852Y-89689000D01*
%TO.C,SW2*%
X145103600Y-91541600D02*
X148723600Y-91541600D01*
X145103600Y-90871600D02*
X146310267Y-90871600D01*
X146310267Y-90271600D02*
X146310267Y-91541600D01*
X145103600Y-90391600D02*
X146310267Y-90391600D01*
X150324600Y-89356600D02*
X150324600Y-89917600D01*
X143503600Y-86256600D02*
X150324600Y-86256600D01*
X145103600Y-88691600D02*
X146310267Y-88691600D01*
X143503600Y-86256600D02*
X143503600Y-87326600D01*
X145103600Y-90511600D02*
X146310267Y-90511600D01*
X150324600Y-91896600D02*
X150324600Y-93016600D01*
X145103600Y-90631600D02*
X146310267Y-90631600D01*
X145103600Y-87971600D02*
X146310267Y-87971600D01*
X143263600Y-86016600D02*
X143263600Y-87326600D01*
X143503600Y-91896600D02*
X143503600Y-93016600D01*
X145103600Y-88211600D02*
X146310267Y-88211600D01*
X150324600Y-86256600D02*
X150324600Y-87376600D01*
X145103600Y-91231600D02*
X146310267Y-91231600D01*
X145103600Y-87851600D02*
X146310267Y-87851600D01*
X148723600Y-87731600D02*
X145103600Y-87731600D01*
X145103600Y-90991600D02*
X146310267Y-90991600D01*
X145103600Y-91471600D02*
X146310267Y-91471600D01*
X148723600Y-89001600D02*
X148723600Y-87731600D01*
X145103600Y-90271600D02*
X145103600Y-91541600D01*
X145103600Y-87731600D02*
X145103600Y-89001600D01*
X148723600Y-90271600D02*
X145103600Y-90271600D01*
X148723600Y-91541600D02*
X148723600Y-90271600D01*
X145103600Y-91351600D02*
X146310267Y-91351600D01*
X146310267Y-87731600D02*
X146310267Y-89001600D01*
X143503600Y-93016600D02*
X150324600Y-93016600D01*
X145103600Y-88931600D02*
X146310267Y-88931600D01*
X143503600Y-89406600D02*
X143503600Y-89917600D01*
X145103600Y-88091600D02*
X146310267Y-88091600D01*
X145103600Y-88331600D02*
X146310267Y-88331600D01*
X145103600Y-88811600D02*
X146310267Y-88811600D01*
X143263600Y-86016600D02*
X144646600Y-86016600D01*
X145103600Y-91111600D02*
X146310267Y-91111600D01*
X145103600Y-90751600D02*
X146310267Y-90751600D01*
X145103600Y-88571600D02*
X146310267Y-88571600D01*
X145103600Y-89001600D02*
X148723600Y-89001600D01*
X145103600Y-88451600D02*
X146310267Y-88451600D01*
%TO.C,J2*%
X138911600Y-124000000D02*
X138911600Y-125900000D01*
X138911600Y-120100000D02*
X138911600Y-122100000D01*
X138911600Y-125900000D02*
X148311600Y-125900000D01*
X148311600Y-124000000D02*
X148311600Y-125900000D01*
X148311600Y-120100000D02*
X148311600Y-122100000D01*
%TO.C,R3*%
X134567664Y-88088800D02*
X134113536Y-88088800D01*
X134567664Y-89558800D02*
X134113536Y-89558800D01*
%TO.C,J5*%
X110550000Y-102108000D02*
X110550000Y-89348000D01*
X110550000Y-104708000D02*
X109220000Y-104708000D01*
X110550000Y-102108000D02*
X107890000Y-102108000D01*
X110550000Y-103378000D02*
X110550000Y-104708000D01*
X107890000Y-102108000D02*
X107890000Y-89348000D01*
X110550000Y-89348000D02*
X107890000Y-89348000D01*
%TO.C,J1*%
X110022000Y-112905000D02*
X110022000Y-110725000D01*
X110022000Y-124375000D02*
X110022000Y-116405000D01*
X123642000Y-124375000D02*
X123642000Y-124995000D01*
X122642000Y-112905000D02*
X122642000Y-110725000D01*
X123642000Y-124995000D02*
X109022000Y-124995000D01*
X122642000Y-124375000D02*
X123642000Y-124375000D01*
X113232000Y-107725000D02*
X112432000Y-107725000D01*
X111142000Y-107875000D02*
X121522000Y-107875000D01*
X122642000Y-116405000D02*
X122642000Y-124375000D01*
X109022000Y-124375000D02*
X110022000Y-124375000D01*
X109022000Y-124995000D02*
X109022000Y-124375000D01*
%TO.C,J3*%
X135700000Y-124000000D02*
X135700000Y-125900000D01*
X135700000Y-120100000D02*
X135700000Y-122100000D01*
X126300000Y-125900000D02*
X135700000Y-125900000D01*
X126300000Y-120100000D02*
X126300000Y-122100000D01*
X126300000Y-124000000D02*
X126300000Y-125900000D01*
%TO.C,C22*%
X119076800Y-92499548D02*
X119076800Y-93022052D01*
X120546800Y-92499548D02*
X120546800Y-93022052D01*
%TO.C,D1*%
X130124200Y-81229200D02*
X134696200Y-81229200D01*
X134696200Y-83515200D02*
X130124200Y-83515200D01*
X134696200Y-81229200D02*
X134696200Y-83515200D01*
X130124200Y-83515200D02*
X130124200Y-81229200D01*
G36*
X131648200Y-81229200D02*
G01*
X130886200Y-81229200D01*
X130886200Y-80975200D01*
X131648200Y-80975200D01*
X131648200Y-81229200D01*
G37*
D12*
X131648200Y-81229200D02*
X130886200Y-81229200D01*
X130886200Y-80975200D01*
X131648200Y-80975200D01*
X131648200Y-81229200D01*
G36*
X131648200Y-83769200D02*
G01*
X130886200Y-83769200D01*
X130886200Y-83515200D01*
X131648200Y-83515200D01*
X131648200Y-83769200D01*
G37*
X131648200Y-83769200D02*
X130886200Y-83769200D01*
X130886200Y-83515200D01*
X131648200Y-83515200D01*
X131648200Y-83769200D01*
D11*
%TO.C,R15*%
X113130064Y-102770000D02*
X112675936Y-102770000D01*
X113130064Y-104240000D02*
X112675936Y-104240000D01*
%TD*%
M02*
