M48
; DRILL file {KiCad (6.0.5)} date Tue Jun 14 13:50:20 2022
; FORMAT={-:-/ absolute / inch / decimal}
; #@! TF.CreationDate,2022-06-14T13:50:20+08:00
; #@! TF.GenerationSoftware,Kicad,Pcbnew,(6.0.5)
; #@! TF.FileFunction,Plated,1,2,PTH
FMAT,2
INCH
; #@! TA.AperFunction,Plated,PTH,ComponentDrill
T1C0.0079
; #@! TA.AperFunction,Plated,PTH,ViaDrill
T2C0.0118
; #@! TA.AperFunction,Plated,PTH,ViaDrill
T3C0.0157
; #@! TA.AperFunction,Plated,PTH,ComponentDrill
T4C0.0236
; #@! TA.AperFunction,Plated,PTH,ComponentDrill
T5C0.0315
; #@! TA.AperFunction,Plated,PTH,ComponentDrill
T6C0.0362
; #@! TA.AperFunction,Plated,PTH,ComponentDrill
T7C0.0394
; #@! TA.AperFunction,Plated,PTH,ComponentDrill
T8C0.0906
; #@! TA.AperFunction,Plated,PTH,ComponentDrill
T9C0.1063
%
G90
G05
T1
X4.9619Y-3.7019
X4.9619Y-3.7491
X4.9619Y-3.7964
X4.9619Y-3.8436
X4.9619Y-3.8909
X4.9619Y-3.9381
X5.0091Y-3.7019
X5.0091Y-3.7491
X5.0091Y-3.7964
X5.0091Y-3.8436
X5.0091Y-3.8909
X5.0091Y-3.9381
X5.0564Y-3.7019
X5.0564Y-3.7491
X5.0564Y-3.7964
X5.0564Y-3.8436
X5.0564Y-3.8909
X5.0564Y-3.9381
X5.1036Y-3.7019
X5.1036Y-3.7491
X5.1036Y-3.7964
X5.1036Y-3.8436
X5.1036Y-3.8909
X5.1036Y-3.9381
X5.1509Y-3.7019
X5.1509Y-3.7491
X5.1509Y-3.7964
X5.1509Y-3.8436
X5.1509Y-3.8909
X5.1509Y-3.9381
X5.1981Y-3.7019
X5.1981Y-3.7491
X5.1981Y-3.7964
X5.1981Y-3.8436
X5.1981Y-3.8909
X5.1981Y-3.9381
T2
X4.222Y-3.426
X4.391Y-3.381
X4.399Y-3.499
X4.478Y-3.57
X4.571Y-3.747
X4.637Y-3.212
X4.715Y-4.101
X4.715Y-4.14
X4.717Y-3.651
X4.73Y-3.735
X4.735Y-3.383
X4.749Y-3.508
X4.83Y-3.725
X4.856Y-3.36
X4.995Y-3.478
X5.06Y-3.391
X5.0605Y-3.4241
X5.088Y-3.39
X5.089Y-3.424
X5.0957Y-4.1573
X5.1219Y-4.5317
X5.1339Y-4.5977
X5.14Y-4.165
X5.141Y-4.063
X5.1504Y-3.4737
X5.1582Y-4.405
X5.1626Y-4.04
X5.189Y-4.7008
X5.2Y-4.095
X5.2212Y-4.366
X5.2212Y-4.589
X5.235Y-4.255
X5.264Y-3.359
X5.265Y-4.555
X5.278Y-4.012
X5.305Y-4.105
X5.328Y-3.685
X5.3324Y-3.7122
X5.333Y-4.18
X5.335Y-4.229
X5.3599Y-3.7773
X5.3854Y-3.7556
X5.405Y-3.955
X5.424Y-3.381
X5.436Y-3.626
X5.508Y-3.22
X5.545Y-3.8334
X5.5644Y-4.253
X5.6476Y-4.7165
X5.6929Y-4.7008
X5.731Y-3.185
X5.75Y-3.935
X5.75Y-3.99
X5.78Y-3.805
X5.78Y-3.835
X5.78Y-4.055
X5.78Y-4.085
X5.78Y-4.19
X5.78Y-4.225
X5.806Y-3.179
X5.837Y-3.178
X5.853Y-4.35
X5.857Y-4.505
X5.867Y-3.178
X5.91Y-3.75
X5.935Y-3.75
T3
X4.227Y-3.565
X4.455Y-3.382
X4.665Y-4.69
X4.944Y-4.177
T5
X5.634Y-3.479
X5.634Y-3.579
X5.934Y-3.479
X5.934Y-3.579
T6
X4.4422Y-4.3041
X4.4422Y-4.4073
X4.5406Y-4.3041
X4.5406Y-4.4073
X4.6194Y-4.3041
X4.6194Y-4.4073
X4.7178Y-4.3041
X4.7178Y-4.4073
T7
X4.3Y-3.57
X4.3Y-3.67
X4.3Y-3.77
X4.3Y-3.87
X4.3Y-3.97
X4.3Y-4.07
T8
X4.3213Y-4.2904
X4.3213Y-4.514
X4.8387Y-4.2904
X4.8387Y-4.514
T9
X4.273Y-3.0706
X4.273Y-3.2674
T4
G00X4.9874Y-4.6583
M15
G01X4.9874Y-4.7016
M16
G05
G00X4.9874Y-4.8327
M15
G01X4.9874Y-4.8563
M16
G05
G00X5.3276Y-4.6583
M15
G01X5.3276Y-4.7016
M16
G05
G00X5.3276Y-4.8327
M15
G01X5.3276Y-4.8563
M16
G05
G00X5.4839Y-4.6583
M15
G01X5.4839Y-4.7016
M16
G05
G00X5.4839Y-4.8327
M15
G01X5.4839Y-4.8563
M16
G05
G00X5.8241Y-4.6583
M15
G01X5.8241Y-4.7016
M16
G05
G00X5.8241Y-4.8327
M15
G01X5.8241Y-4.8563
M16
G05
T0
M30
