%TF.GenerationSoftware,KiCad,Pcbnew,(6.0.5)*%
%TF.CreationDate,2022-06-14T13:50:17+08:00*%
%TF.ProjectId,V4.0,56342e30-2e6b-4696-9361-645f70636258,rev?*%
%TF.SameCoordinates,Original*%
%TF.FileFunction,Legend,Bot*%
%TF.FilePolarity,Positive*%
%FSLAX46Y46*%
G04 Gerber Fmt 4.6, Leading zero omitted, Abs format (unit mm)*
G04 Created by KiCad (PCBNEW (6.0.5)) date 2022-06-14 13:50:17*
%MOMM*%
%LPD*%
G01*
G04 APERTURE LIST*
%ADD10C,0.150000*%
%ADD11C,0.120000*%
%ADD12C,0.100000*%
%ADD13C,0.300000*%
G04 APERTURE END LIST*
D10*
%TO.C,R13*%
X116530380Y-89527142D02*
X116054190Y-89193809D01*
X116530380Y-88955714D02*
X115530380Y-88955714D01*
X115530380Y-89336666D01*
X115578000Y-89431904D01*
X115625619Y-89479523D01*
X115720857Y-89527142D01*
X115863714Y-89527142D01*
X115958952Y-89479523D01*
X116006571Y-89431904D01*
X116054190Y-89336666D01*
X116054190Y-88955714D01*
X116530380Y-90479523D02*
X116530380Y-89908095D01*
X116530380Y-90193809D02*
X115530380Y-90193809D01*
X115673238Y-90098571D01*
X115768476Y-90003333D01*
X115816095Y-89908095D01*
X115530380Y-90812857D02*
X115530380Y-91431904D01*
X115911333Y-91098571D01*
X115911333Y-91241428D01*
X115958952Y-91336666D01*
X116006571Y-91384285D01*
X116101809Y-91431904D01*
X116339904Y-91431904D01*
X116435142Y-91384285D01*
X116482761Y-91336666D01*
X116530380Y-91241428D01*
X116530380Y-90955714D01*
X116482761Y-90860476D01*
X116435142Y-90812857D01*
%TO.C,Q7*%
X135604238Y-110783619D02*
X135699476Y-110736000D01*
X135794714Y-110640761D01*
X135937571Y-110497904D01*
X136032809Y-110450285D01*
X136128047Y-110450285D01*
X136080428Y-110688380D02*
X136175666Y-110640761D01*
X136270904Y-110545523D01*
X136318523Y-110355047D01*
X136318523Y-110021714D01*
X136270904Y-109831238D01*
X136175666Y-109736000D01*
X136080428Y-109688380D01*
X135889952Y-109688380D01*
X135794714Y-109736000D01*
X135699476Y-109831238D01*
X135651857Y-110021714D01*
X135651857Y-110355047D01*
X135699476Y-110545523D01*
X135794714Y-110640761D01*
X135889952Y-110688380D01*
X136080428Y-110688380D01*
X135318523Y-109688380D02*
X134651857Y-109688380D01*
X135080428Y-110688380D01*
%TO.C,C20*%
X113037857Y-90527142D02*
X113085476Y-90574761D01*
X113228333Y-90622380D01*
X113323571Y-90622380D01*
X113466428Y-90574761D01*
X113561666Y-90479523D01*
X113609285Y-90384285D01*
X113656904Y-90193809D01*
X113656904Y-90050952D01*
X113609285Y-89860476D01*
X113561666Y-89765238D01*
X113466428Y-89670000D01*
X113323571Y-89622380D01*
X113228333Y-89622380D01*
X113085476Y-89670000D01*
X113037857Y-89717619D01*
X112656904Y-89717619D02*
X112609285Y-89670000D01*
X112514047Y-89622380D01*
X112275952Y-89622380D01*
X112180714Y-89670000D01*
X112133095Y-89717619D01*
X112085476Y-89812857D01*
X112085476Y-89908095D01*
X112133095Y-90050952D01*
X112704523Y-90622380D01*
X112085476Y-90622380D01*
X111466428Y-89622380D02*
X111371190Y-89622380D01*
X111275952Y-89670000D01*
X111228333Y-89717619D01*
X111180714Y-89812857D01*
X111133095Y-90003333D01*
X111133095Y-90241428D01*
X111180714Y-90431904D01*
X111228333Y-90527142D01*
X111275952Y-90574761D01*
X111371190Y-90622380D01*
X111466428Y-90622380D01*
X111561666Y-90574761D01*
X111609285Y-90527142D01*
X111656904Y-90431904D01*
X111704523Y-90241428D01*
X111704523Y-90003333D01*
X111656904Y-89812857D01*
X111609285Y-89717619D01*
X111561666Y-89670000D01*
X111466428Y-89622380D01*
%TO.C,D4*%
X132259295Y-123261380D02*
X132259295Y-122261380D01*
X132021200Y-122261380D01*
X131878342Y-122309000D01*
X131783104Y-122404238D01*
X131735485Y-122499476D01*
X131687866Y-122689952D01*
X131687866Y-122832809D01*
X131735485Y-123023285D01*
X131783104Y-123118523D01*
X131878342Y-123213761D01*
X132021200Y-123261380D01*
X132259295Y-123261380D01*
X130830723Y-122594714D02*
X130830723Y-123261380D01*
X131068819Y-122213761D02*
X131306914Y-122928047D01*
X130687866Y-122928047D01*
%TO.C,C3*%
X115609666Y-122583142D02*
X115657285Y-122630761D01*
X115800142Y-122678380D01*
X115895380Y-122678380D01*
X116038238Y-122630761D01*
X116133476Y-122535523D01*
X116181095Y-122440285D01*
X116228714Y-122249809D01*
X116228714Y-122106952D01*
X116181095Y-121916476D01*
X116133476Y-121821238D01*
X116038238Y-121726000D01*
X115895380Y-121678380D01*
X115800142Y-121678380D01*
X115657285Y-121726000D01*
X115609666Y-121773619D01*
X115276333Y-121678380D02*
X114657285Y-121678380D01*
X114990619Y-122059333D01*
X114847761Y-122059333D01*
X114752523Y-122106952D01*
X114704904Y-122154571D01*
X114657285Y-122249809D01*
X114657285Y-122487904D01*
X114704904Y-122583142D01*
X114752523Y-122630761D01*
X114847761Y-122678380D01*
X115133476Y-122678380D01*
X115228714Y-122630761D01*
X115276333Y-122583142D01*
%TO.C,Q8*%
X146399238Y-109513619D02*
X146494476Y-109466000D01*
X146589714Y-109370761D01*
X146732571Y-109227904D01*
X146827809Y-109180285D01*
X146923047Y-109180285D01*
X146875428Y-109418380D02*
X146970666Y-109370761D01*
X147065904Y-109275523D01*
X147113523Y-109085047D01*
X147113523Y-108751714D01*
X147065904Y-108561238D01*
X146970666Y-108466000D01*
X146875428Y-108418380D01*
X146684952Y-108418380D01*
X146589714Y-108466000D01*
X146494476Y-108561238D01*
X146446857Y-108751714D01*
X146446857Y-109085047D01*
X146494476Y-109275523D01*
X146589714Y-109370761D01*
X146684952Y-109418380D01*
X146875428Y-109418380D01*
X145875428Y-108846952D02*
X145970666Y-108799333D01*
X146018285Y-108751714D01*
X146065904Y-108656476D01*
X146065904Y-108608857D01*
X146018285Y-108513619D01*
X145970666Y-108466000D01*
X145875428Y-108418380D01*
X145684952Y-108418380D01*
X145589714Y-108466000D01*
X145542095Y-108513619D01*
X145494476Y-108608857D01*
X145494476Y-108656476D01*
X145542095Y-108751714D01*
X145589714Y-108799333D01*
X145684952Y-108846952D01*
X145875428Y-108846952D01*
X145970666Y-108894571D01*
X146018285Y-108942190D01*
X146065904Y-109037428D01*
X146065904Y-109227904D01*
X146018285Y-109323142D01*
X145970666Y-109370761D01*
X145875428Y-109418380D01*
X145684952Y-109418380D01*
X145589714Y-109370761D01*
X145542095Y-109323142D01*
X145494476Y-109227904D01*
X145494476Y-109037428D01*
X145542095Y-108942190D01*
X145589714Y-108894571D01*
X145684952Y-108846952D01*
%TO.C,Q3*%
X136556761Y-105751380D02*
X136461523Y-105799000D01*
X136366285Y-105894238D01*
X136223428Y-106037095D01*
X136128190Y-106084714D01*
X136032952Y-106084714D01*
X136080571Y-105846619D02*
X135985333Y-105894238D01*
X135890095Y-105989476D01*
X135842476Y-106179952D01*
X135842476Y-106513285D01*
X135890095Y-106703761D01*
X135985333Y-106799000D01*
X136080571Y-106846619D01*
X136271047Y-106846619D01*
X136366285Y-106799000D01*
X136461523Y-106703761D01*
X136509142Y-106513285D01*
X136509142Y-106179952D01*
X136461523Y-105989476D01*
X136366285Y-105894238D01*
X136271047Y-105846619D01*
X136080571Y-105846619D01*
X136842476Y-106846619D02*
X137461523Y-106846619D01*
X137128190Y-106465666D01*
X137271047Y-106465666D01*
X137366285Y-106418047D01*
X137413904Y-106370428D01*
X137461523Y-106275190D01*
X137461523Y-106037095D01*
X137413904Y-105941857D01*
X137366285Y-105894238D01*
X137271047Y-105846619D01*
X136985333Y-105846619D01*
X136890095Y-105894238D01*
X136842476Y-105941857D01*
%TO.C,R2*%
X139390380Y-90765333D02*
X138914190Y-90432000D01*
X139390380Y-90193904D02*
X138390380Y-90193904D01*
X138390380Y-90574857D01*
X138438000Y-90670095D01*
X138485619Y-90717714D01*
X138580857Y-90765333D01*
X138723714Y-90765333D01*
X138818952Y-90717714D01*
X138866571Y-90670095D01*
X138914190Y-90574857D01*
X138914190Y-90193904D01*
X138485619Y-91146285D02*
X138438000Y-91193904D01*
X138390380Y-91289142D01*
X138390380Y-91527238D01*
X138438000Y-91622476D01*
X138485619Y-91670095D01*
X138580857Y-91717714D01*
X138676095Y-91717714D01*
X138818952Y-91670095D01*
X139390380Y-91098666D01*
X139390380Y-91717714D01*
%TO.C,Q6*%
X145891238Y-118149619D02*
X145986476Y-118102000D01*
X146081714Y-118006761D01*
X146224571Y-117863904D01*
X146319809Y-117816285D01*
X146415047Y-117816285D01*
X146367428Y-118054380D02*
X146462666Y-118006761D01*
X146557904Y-117911523D01*
X146605523Y-117721047D01*
X146605523Y-117387714D01*
X146557904Y-117197238D01*
X146462666Y-117102000D01*
X146367428Y-117054380D01*
X146176952Y-117054380D01*
X146081714Y-117102000D01*
X145986476Y-117197238D01*
X145938857Y-117387714D01*
X145938857Y-117721047D01*
X145986476Y-117911523D01*
X146081714Y-118006761D01*
X146176952Y-118054380D01*
X146367428Y-118054380D01*
X145081714Y-117054380D02*
X145272190Y-117054380D01*
X145367428Y-117102000D01*
X145415047Y-117149619D01*
X145510285Y-117292476D01*
X145557904Y-117482952D01*
X145557904Y-117863904D01*
X145510285Y-117959142D01*
X145462666Y-118006761D01*
X145367428Y-118054380D01*
X145176952Y-118054380D01*
X145081714Y-118006761D01*
X145034095Y-117959142D01*
X144986476Y-117863904D01*
X144986476Y-117625809D01*
X145034095Y-117530571D01*
X145081714Y-117482952D01*
X145176952Y-117435333D01*
X145367428Y-117435333D01*
X145462666Y-117482952D01*
X145510285Y-117530571D01*
X145557904Y-117625809D01*
%TO.C,C21*%
X113408657Y-104878142D02*
X113456276Y-104925761D01*
X113599133Y-104973380D01*
X113694371Y-104973380D01*
X113837228Y-104925761D01*
X113932466Y-104830523D01*
X113980085Y-104735285D01*
X114027704Y-104544809D01*
X114027704Y-104401952D01*
X113980085Y-104211476D01*
X113932466Y-104116238D01*
X113837228Y-104021000D01*
X113694371Y-103973380D01*
X113599133Y-103973380D01*
X113456276Y-104021000D01*
X113408657Y-104068619D01*
X113027704Y-104068619D02*
X112980085Y-104021000D01*
X112884847Y-103973380D01*
X112646752Y-103973380D01*
X112551514Y-104021000D01*
X112503895Y-104068619D01*
X112456276Y-104163857D01*
X112456276Y-104259095D01*
X112503895Y-104401952D01*
X113075323Y-104973380D01*
X112456276Y-104973380D01*
X111503895Y-104973380D02*
X112075323Y-104973380D01*
X111789609Y-104973380D02*
X111789609Y-103973380D01*
X111884847Y-104116238D01*
X111980085Y-104211476D01*
X112075323Y-104259095D01*
%TO.C,U2*%
X116230304Y-101259780D02*
X116230304Y-102069304D01*
X116182685Y-102164542D01*
X116135066Y-102212161D01*
X116039828Y-102259780D01*
X115849352Y-102259780D01*
X115754114Y-102212161D01*
X115706495Y-102164542D01*
X115658876Y-102069304D01*
X115658876Y-101259780D01*
X115230304Y-101355019D02*
X115182685Y-101307400D01*
X115087447Y-101259780D01*
X114849352Y-101259780D01*
X114754114Y-101307400D01*
X114706495Y-101355019D01*
X114658876Y-101450257D01*
X114658876Y-101545495D01*
X114706495Y-101688352D01*
X115277923Y-102259780D01*
X114658876Y-102259780D01*
%TO.C,R22*%
X141977642Y-117481914D02*
X141596690Y-117215247D01*
X141977642Y-117024771D02*
X141177642Y-117024771D01*
X141177642Y-117329533D01*
X141215738Y-117405723D01*
X141253833Y-117443819D01*
X141330023Y-117481914D01*
X141444309Y-117481914D01*
X141520499Y-117443819D01*
X141558595Y-117405723D01*
X141596690Y-117329533D01*
X141596690Y-117024771D01*
X141253833Y-117786676D02*
X141215738Y-117824771D01*
X141177642Y-117900961D01*
X141177642Y-118091438D01*
X141215738Y-118167628D01*
X141253833Y-118205723D01*
X141330023Y-118243819D01*
X141406214Y-118243819D01*
X141520499Y-118205723D01*
X141977642Y-117748580D01*
X141977642Y-118243819D01*
X141253833Y-118548580D02*
X141215738Y-118586676D01*
X141177642Y-118662866D01*
X141177642Y-118853342D01*
X141215738Y-118929533D01*
X141253833Y-118967628D01*
X141330023Y-119005723D01*
X141406214Y-119005723D01*
X141520499Y-118967628D01*
X141977642Y-118510485D01*
X141977642Y-119005723D01*
%TO.C,C9*%
X142698742Y-95413533D02*
X142746361Y-95365914D01*
X142793980Y-95223057D01*
X142793980Y-95127819D01*
X142746361Y-94984961D01*
X142651123Y-94889723D01*
X142555885Y-94842104D01*
X142365409Y-94794485D01*
X142222552Y-94794485D01*
X142032076Y-94842104D01*
X141936838Y-94889723D01*
X141841600Y-94984961D01*
X141793980Y-95127819D01*
X141793980Y-95223057D01*
X141841600Y-95365914D01*
X141889219Y-95413533D01*
X142793980Y-95889723D02*
X142793980Y-96080200D01*
X142746361Y-96175438D01*
X142698742Y-96223057D01*
X142555885Y-96318295D01*
X142365409Y-96365914D01*
X141984457Y-96365914D01*
X141889219Y-96318295D01*
X141841600Y-96270676D01*
X141793980Y-96175438D01*
X141793980Y-95984961D01*
X141841600Y-95889723D01*
X141889219Y-95842104D01*
X141984457Y-95794485D01*
X142222552Y-95794485D01*
X142317790Y-95842104D01*
X142365409Y-95889723D01*
X142413028Y-95984961D01*
X142413028Y-96175438D01*
X142365409Y-96270676D01*
X142317790Y-96318295D01*
X142222552Y-96365914D01*
%TO.C,R9*%
X113450666Y-80462380D02*
X113784000Y-79986190D01*
X114022095Y-80462380D02*
X114022095Y-79462380D01*
X113641142Y-79462380D01*
X113545904Y-79510000D01*
X113498285Y-79557619D01*
X113450666Y-79652857D01*
X113450666Y-79795714D01*
X113498285Y-79890952D01*
X113545904Y-79938571D01*
X113641142Y-79986190D01*
X114022095Y-79986190D01*
X112974476Y-80462380D02*
X112784000Y-80462380D01*
X112688761Y-80414761D01*
X112641142Y-80367142D01*
X112545904Y-80224285D01*
X112498285Y-80033809D01*
X112498285Y-79652857D01*
X112545904Y-79557619D01*
X112593523Y-79510000D01*
X112688761Y-79462380D01*
X112879238Y-79462380D01*
X112974476Y-79510000D01*
X113022095Y-79557619D01*
X113069714Y-79652857D01*
X113069714Y-79890952D01*
X113022095Y-79986190D01*
X112974476Y-80033809D01*
X112879238Y-80081428D01*
X112688761Y-80081428D01*
X112593523Y-80033809D01*
X112545904Y-79986190D01*
X112498285Y-79890952D01*
%TO.C,Q1*%
X136302761Y-98766380D02*
X136207523Y-98814000D01*
X136112285Y-98909238D01*
X135969428Y-99052095D01*
X135874190Y-99099714D01*
X135778952Y-99099714D01*
X135826571Y-98861619D02*
X135731333Y-98909238D01*
X135636095Y-99004476D01*
X135588476Y-99194952D01*
X135588476Y-99528285D01*
X135636095Y-99718761D01*
X135731333Y-99814000D01*
X135826571Y-99861619D01*
X136017047Y-99861619D01*
X136112285Y-99814000D01*
X136207523Y-99718761D01*
X136255142Y-99528285D01*
X136255142Y-99194952D01*
X136207523Y-99004476D01*
X136112285Y-98909238D01*
X136017047Y-98861619D01*
X135826571Y-98861619D01*
X137207523Y-98861619D02*
X136636095Y-98861619D01*
X136921809Y-98861619D02*
X136921809Y-99861619D01*
X136826571Y-99718761D01*
X136731333Y-99623523D01*
X136636095Y-99575904D01*
%TO.C,C1*%
X131092142Y-111974333D02*
X131139761Y-111926714D01*
X131187380Y-111783857D01*
X131187380Y-111688619D01*
X131139761Y-111545761D01*
X131044523Y-111450523D01*
X130949285Y-111402904D01*
X130758809Y-111355285D01*
X130615952Y-111355285D01*
X130425476Y-111402904D01*
X130330238Y-111450523D01*
X130235000Y-111545761D01*
X130187380Y-111688619D01*
X130187380Y-111783857D01*
X130235000Y-111926714D01*
X130282619Y-111974333D01*
X131187380Y-112926714D02*
X131187380Y-112355285D01*
X131187380Y-112641000D02*
X130187380Y-112641000D01*
X130330238Y-112545761D01*
X130425476Y-112450523D01*
X130473095Y-112355285D01*
%TO.C,R1*%
X144184666Y-80928380D02*
X144518000Y-80452190D01*
X144756095Y-80928380D02*
X144756095Y-79928380D01*
X144375142Y-79928380D01*
X144279904Y-79976000D01*
X144232285Y-80023619D01*
X144184666Y-80118857D01*
X144184666Y-80261714D01*
X144232285Y-80356952D01*
X144279904Y-80404571D01*
X144375142Y-80452190D01*
X144756095Y-80452190D01*
X143232285Y-80928380D02*
X143803714Y-80928380D01*
X143518000Y-80928380D02*
X143518000Y-79928380D01*
X143613238Y-80071238D01*
X143708476Y-80166476D01*
X143803714Y-80214095D01*
%TO.C,Q2*%
X138136380Y-88233238D02*
X138184000Y-88328476D01*
X138279238Y-88423714D01*
X138422095Y-88566571D01*
X138469714Y-88661809D01*
X138469714Y-88757047D01*
X138231619Y-88709428D02*
X138279238Y-88804666D01*
X138374476Y-88899904D01*
X138564952Y-88947523D01*
X138898285Y-88947523D01*
X139088761Y-88899904D01*
X139184000Y-88804666D01*
X139231619Y-88709428D01*
X139231619Y-88518952D01*
X139184000Y-88423714D01*
X139088761Y-88328476D01*
X138898285Y-88280857D01*
X138564952Y-88280857D01*
X138374476Y-88328476D01*
X138279238Y-88423714D01*
X138231619Y-88518952D01*
X138231619Y-88709428D01*
X139136380Y-87899904D02*
X139184000Y-87852285D01*
X139231619Y-87757047D01*
X139231619Y-87518952D01*
X139184000Y-87423714D01*
X139136380Y-87376095D01*
X139041142Y-87328476D01*
X138945904Y-87328476D01*
X138803047Y-87376095D01*
X138231619Y-87947523D01*
X138231619Y-87328476D01*
%TO.C,L1*%
X129071666Y-86075780D02*
X129547857Y-86075780D01*
X129547857Y-85075780D01*
X128214523Y-86075780D02*
X128785952Y-86075780D01*
X128500238Y-86075780D02*
X128500238Y-85075780D01*
X128595476Y-85218638D01*
X128690714Y-85313876D01*
X128785952Y-85361495D01*
%TO.C,R14*%
X142102380Y-120607142D02*
X141626190Y-120273809D01*
X142102380Y-120035714D02*
X141102380Y-120035714D01*
X141102380Y-120416666D01*
X141150000Y-120511904D01*
X141197619Y-120559523D01*
X141292857Y-120607142D01*
X141435714Y-120607142D01*
X141530952Y-120559523D01*
X141578571Y-120511904D01*
X141626190Y-120416666D01*
X141626190Y-120035714D01*
X142102380Y-121559523D02*
X142102380Y-120988095D01*
X142102380Y-121273809D02*
X141102380Y-121273809D01*
X141245238Y-121178571D01*
X141340476Y-121083333D01*
X141388095Y-120988095D01*
X141435714Y-122416666D02*
X142102380Y-122416666D01*
X141054761Y-122178571D02*
X141769047Y-121940476D01*
X141769047Y-122559523D01*
%TO.C,Q5*%
X137636238Y-118911619D02*
X137731476Y-118864000D01*
X137826714Y-118768761D01*
X137969571Y-118625904D01*
X138064809Y-118578285D01*
X138160047Y-118578285D01*
X138112428Y-118816380D02*
X138207666Y-118768761D01*
X138302904Y-118673523D01*
X138350523Y-118483047D01*
X138350523Y-118149714D01*
X138302904Y-117959238D01*
X138207666Y-117864000D01*
X138112428Y-117816380D01*
X137921952Y-117816380D01*
X137826714Y-117864000D01*
X137731476Y-117959238D01*
X137683857Y-118149714D01*
X137683857Y-118483047D01*
X137731476Y-118673523D01*
X137826714Y-118768761D01*
X137921952Y-118816380D01*
X138112428Y-118816380D01*
X136779095Y-117816380D02*
X137255285Y-117816380D01*
X137302904Y-118292571D01*
X137255285Y-118244952D01*
X137160047Y-118197333D01*
X136921952Y-118197333D01*
X136826714Y-118244952D01*
X136779095Y-118292571D01*
X136731476Y-118387809D01*
X136731476Y-118625904D01*
X136779095Y-118721142D01*
X136826714Y-118768761D01*
X136921952Y-118816380D01*
X137160047Y-118816380D01*
X137255285Y-118768761D01*
X137302904Y-118721142D01*
%TO.C,C19*%
X126042657Y-92330542D02*
X126090276Y-92378161D01*
X126233133Y-92425780D01*
X126328371Y-92425780D01*
X126471228Y-92378161D01*
X126566466Y-92282923D01*
X126614085Y-92187685D01*
X126661704Y-91997209D01*
X126661704Y-91854352D01*
X126614085Y-91663876D01*
X126566466Y-91568638D01*
X126471228Y-91473400D01*
X126328371Y-91425780D01*
X126233133Y-91425780D01*
X126090276Y-91473400D01*
X126042657Y-91521019D01*
X125090276Y-92425780D02*
X125661704Y-92425780D01*
X125375990Y-92425780D02*
X125375990Y-91425780D01*
X125471228Y-91568638D01*
X125566466Y-91663876D01*
X125661704Y-91711495D01*
X124614085Y-92425780D02*
X124423609Y-92425780D01*
X124328371Y-92378161D01*
X124280752Y-92330542D01*
X124185514Y-92187685D01*
X124137895Y-91997209D01*
X124137895Y-91616257D01*
X124185514Y-91521019D01*
X124233133Y-91473400D01*
X124328371Y-91425780D01*
X124518847Y-91425780D01*
X124614085Y-91473400D01*
X124661704Y-91521019D01*
X124709323Y-91616257D01*
X124709323Y-91854352D01*
X124661704Y-91949590D01*
X124614085Y-91997209D01*
X124518847Y-92044828D01*
X124328371Y-92044828D01*
X124233133Y-91997209D01*
X124185514Y-91949590D01*
X124137895Y-91854352D01*
%TO.C,R21*%
X149584942Y-114682542D02*
X149108752Y-114349209D01*
X149584942Y-114111114D02*
X148584942Y-114111114D01*
X148584942Y-114492066D01*
X148632562Y-114587304D01*
X148680181Y-114634923D01*
X148775419Y-114682542D01*
X148918276Y-114682542D01*
X149013514Y-114634923D01*
X149061133Y-114587304D01*
X149108752Y-114492066D01*
X149108752Y-114111114D01*
X148680181Y-115063495D02*
X148632562Y-115111114D01*
X148584942Y-115206352D01*
X148584942Y-115444447D01*
X148632562Y-115539685D01*
X148680181Y-115587304D01*
X148775419Y-115634923D01*
X148870657Y-115634923D01*
X149013514Y-115587304D01*
X149584942Y-115015876D01*
X149584942Y-115634923D01*
X149584942Y-116587304D02*
X149584942Y-116015876D01*
X149584942Y-116301590D02*
X148584942Y-116301590D01*
X148727800Y-116206352D01*
X148823038Y-116111114D01*
X148870657Y-116015876D01*
%TO.C,R4*%
X107843580Y-90841533D02*
X107367390Y-90508200D01*
X107843580Y-90270104D02*
X106843580Y-90270104D01*
X106843580Y-90651057D01*
X106891200Y-90746295D01*
X106938819Y-90793914D01*
X107034057Y-90841533D01*
X107176914Y-90841533D01*
X107272152Y-90793914D01*
X107319771Y-90746295D01*
X107367390Y-90651057D01*
X107367390Y-90270104D01*
X107176914Y-91698676D02*
X107843580Y-91698676D01*
X106795961Y-91460580D02*
X107510247Y-91222485D01*
X107510247Y-91841533D01*
%TO.C,Q4*%
X117816380Y-78835238D02*
X117864000Y-78930476D01*
X117959238Y-79025714D01*
X118102095Y-79168571D01*
X118149714Y-79263809D01*
X118149714Y-79359047D01*
X117911619Y-79311428D02*
X117959238Y-79406666D01*
X118054476Y-79501904D01*
X118244952Y-79549523D01*
X118578285Y-79549523D01*
X118768761Y-79501904D01*
X118864000Y-79406666D01*
X118911619Y-79311428D01*
X118911619Y-79120952D01*
X118864000Y-79025714D01*
X118768761Y-78930476D01*
X118578285Y-78882857D01*
X118244952Y-78882857D01*
X118054476Y-78930476D01*
X117959238Y-79025714D01*
X117911619Y-79120952D01*
X117911619Y-79311428D01*
X118578285Y-78025714D02*
X117911619Y-78025714D01*
X118959238Y-78263809D02*
X118244952Y-78501904D01*
X118244952Y-77882857D01*
%TO.C,R23*%
X149640242Y-110939342D02*
X149164052Y-110606009D01*
X149640242Y-110367914D02*
X148640242Y-110367914D01*
X148640242Y-110748866D01*
X148687862Y-110844104D01*
X148735481Y-110891723D01*
X148830719Y-110939342D01*
X148973576Y-110939342D01*
X149068814Y-110891723D01*
X149116433Y-110844104D01*
X149164052Y-110748866D01*
X149164052Y-110367914D01*
X148735481Y-111320295D02*
X148687862Y-111367914D01*
X148640242Y-111463152D01*
X148640242Y-111701247D01*
X148687862Y-111796485D01*
X148735481Y-111844104D01*
X148830719Y-111891723D01*
X148925957Y-111891723D01*
X149068814Y-111844104D01*
X149640242Y-111272676D01*
X149640242Y-111891723D01*
X148640242Y-112225057D02*
X148640242Y-112844104D01*
X149021195Y-112510771D01*
X149021195Y-112653628D01*
X149068814Y-112748866D01*
X149116433Y-112796485D01*
X149211671Y-112844104D01*
X149449766Y-112844104D01*
X149545004Y-112796485D01*
X149592623Y-112748866D01*
X149640242Y-112653628D01*
X149640242Y-112367914D01*
X149592623Y-112272676D01*
X149545004Y-112225057D01*
%TO.C,R5*%
X112637866Y-84705180D02*
X112971200Y-84228990D01*
X113209295Y-84705180D02*
X113209295Y-83705180D01*
X112828342Y-83705180D01*
X112733104Y-83752800D01*
X112685485Y-83800419D01*
X112637866Y-83895657D01*
X112637866Y-84038514D01*
X112685485Y-84133752D01*
X112733104Y-84181371D01*
X112828342Y-84228990D01*
X113209295Y-84228990D01*
X111733104Y-83705180D02*
X112209295Y-83705180D01*
X112256914Y-84181371D01*
X112209295Y-84133752D01*
X112114057Y-84086133D01*
X111875961Y-84086133D01*
X111780723Y-84133752D01*
X111733104Y-84181371D01*
X111685485Y-84276609D01*
X111685485Y-84514704D01*
X111733104Y-84609942D01*
X111780723Y-84657561D01*
X111875961Y-84705180D01*
X112114057Y-84705180D01*
X112209295Y-84657561D01*
X112256914Y-84609942D01*
D11*
%TO.C,R13*%
X118893000Y-89569936D02*
X118893000Y-91024064D01*
X117073000Y-89569936D02*
X117073000Y-91024064D01*
%TO.C,Q7*%
X140271500Y-109804200D02*
X136525000Y-109804200D01*
X140335000Y-109804200D02*
X140271500Y-109804200D01*
X136525000Y-109804200D02*
X136525000Y-113360200D01*
X140335000Y-113360200D02*
X140335000Y-109804200D01*
X136525000Y-113360200D02*
X140335000Y-113360200D01*
%TO.C,C20*%
X112696852Y-92759200D02*
X112174348Y-92759200D01*
X112696852Y-91289200D02*
X112174348Y-91289200D01*
%TO.C,D4*%
X129959100Y-119761000D02*
X129959100Y-119697500D01*
X133134100Y-119697500D02*
X133134100Y-121602500D01*
X129959100Y-121602500D02*
X129959100Y-119761000D01*
X129959100Y-119697500D02*
X133134100Y-119697500D01*
X133134100Y-121602500D02*
X129959100Y-121602500D01*
G36*
X132499100Y-119697500D02*
G01*
X131800600Y-119697500D01*
X131800600Y-119380000D01*
X132499100Y-119380000D01*
X132499100Y-119697500D01*
G37*
D12*
X132499100Y-119697500D02*
X131800600Y-119697500D01*
X131800600Y-119380000D01*
X132499100Y-119380000D01*
X132499100Y-119697500D01*
G36*
X132499100Y-121920000D02*
G01*
X131800600Y-121920000D01*
X131800600Y-121602500D01*
X132499100Y-121602500D01*
X132499100Y-121920000D01*
G37*
X132499100Y-121920000D02*
X131800600Y-121920000D01*
X131800600Y-121602500D01*
X132499100Y-121602500D01*
X132499100Y-121920000D01*
D11*
%TO.C,C3*%
X111033000Y-116866000D02*
X119093000Y-116866000D01*
X119093000Y-121386000D02*
X111033000Y-121386000D01*
X111033000Y-121386000D02*
X111033000Y-116866000D01*
%TO.C,Q8*%
X144500362Y-110038200D02*
X146175362Y-110038200D01*
X144500362Y-113158200D02*
X145150362Y-113158200D01*
X144500362Y-113158200D02*
X143850362Y-113158200D01*
X144500362Y-110038200D02*
X143850362Y-110038200D01*
%TO.C,Q3*%
X145078000Y-109026000D02*
X145078000Y-109126000D01*
X137878000Y-103726000D02*
X145078000Y-103726000D01*
X145078000Y-109126000D02*
X138378000Y-109126000D01*
X137878000Y-108626000D02*
X137878000Y-103726000D01*
X145078000Y-109026000D02*
X145078000Y-107926000D01*
X145078000Y-103726000D02*
X145078000Y-107926000D01*
D13*
X138041500Y-109026000D02*
G75*
G03*
X138041500Y-109026000I-63500J0D01*
G01*
D11*
%TO.C,R2*%
X141499000Y-91024064D02*
X141499000Y-89569936D01*
X139679000Y-91024064D02*
X139679000Y-89569936D01*
%TO.C,Q6*%
X144489862Y-116876000D02*
X145139862Y-116876000D01*
X144489862Y-113756000D02*
X146164862Y-113756000D01*
X144489862Y-113756000D02*
X143839862Y-113756000D01*
X144489862Y-116876000D02*
X143839862Y-116876000D01*
%TO.C,C21*%
X113027052Y-101652400D02*
X112504548Y-101652400D01*
X113027052Y-103122400D02*
X112504548Y-103122400D01*
%TO.C,U2*%
X117378400Y-93897400D02*
X117378400Y-95157400D01*
X117378400Y-100717400D02*
X117378400Y-99457400D01*
X111368400Y-100717400D02*
X117378400Y-100717400D01*
X113618400Y-93897400D02*
X117378400Y-93897400D01*
%TO.C,R22*%
X142213000Y-111733064D02*
X142213000Y-111278936D01*
X140743000Y-111733064D02*
X140743000Y-111278936D01*
%TO.C,C9*%
X141324000Y-94622252D02*
X141324000Y-94099748D01*
X139854000Y-94622252D02*
X139854000Y-94099748D01*
%TO.C,R9*%
X112556936Y-81386000D02*
X114011064Y-81386000D01*
X112556936Y-83206000D02*
X114011064Y-83206000D01*
%TO.C,Q1*%
X145078000Y-96614000D02*
X145078000Y-100814000D01*
X145078000Y-102014000D02*
X138378000Y-102014000D01*
X145078000Y-101914000D02*
X145078000Y-100814000D01*
X137878000Y-101514000D02*
X137878000Y-96614000D01*
X137878000Y-96614000D02*
X145078000Y-96614000D01*
X145078000Y-101914000D02*
X145078000Y-102014000D01*
D13*
X138041500Y-101914000D02*
G75*
G03*
X138041500Y-101914000I-63500J0D01*
G01*
D11*
%TO.C,C1*%
X129895000Y-108491000D02*
X129895000Y-116551000D01*
X129895000Y-116551000D02*
X125375000Y-116551000D01*
X125375000Y-116551000D02*
X125375000Y-108491000D01*
%TO.C,R1*%
X144745064Y-83206000D02*
X143290936Y-83206000D01*
X144745064Y-81386000D02*
X143290936Y-81386000D01*
%TO.C,Q2*%
X135984000Y-87166000D02*
X135984000Y-79966000D01*
X135984000Y-79966000D02*
X140184000Y-79966000D01*
X140884000Y-87166000D02*
X135984000Y-87166000D01*
X141384000Y-79966000D02*
X141384000Y-86666000D01*
X141284000Y-79966000D02*
X141384000Y-79966000D01*
X141284000Y-79966000D02*
X140184000Y-79966000D01*
D13*
X141347500Y-87066000D02*
G75*
G03*
X141347500Y-87066000I-63500J0D01*
G01*
D11*
%TO.C,L1*%
X134824000Y-90196200D02*
X134824000Y-87196200D01*
X134824000Y-77596200D02*
X122224000Y-77596200D01*
X122224000Y-87196200D02*
X122224000Y-90196200D01*
X122224000Y-90196200D02*
X134824000Y-90196200D01*
X134824000Y-80596200D02*
X134824000Y-77596200D01*
X122224000Y-77596200D02*
X122224000Y-80596200D01*
%TO.C,R14*%
X140743000Y-115543064D02*
X140743000Y-115088936D01*
X142213000Y-115543064D02*
X142213000Y-115088936D01*
%TO.C,Q5*%
X136525000Y-117144800D02*
X140335000Y-117144800D01*
X136525000Y-113588800D02*
X136525000Y-117144800D01*
X140335000Y-113588800D02*
X140271500Y-113588800D01*
X140335000Y-117144800D02*
X140335000Y-113588800D01*
X140271500Y-113588800D02*
X136525000Y-113588800D01*
%TO.C,C19*%
X122282852Y-91162200D02*
X121760348Y-91162200D01*
X122282852Y-92632200D02*
X121760348Y-92632200D01*
%TO.C,R21*%
X148217562Y-115552464D02*
X148217562Y-115098336D01*
X146747562Y-115552464D02*
X146747562Y-115098336D01*
%TO.C,R4*%
X108075400Y-88288864D02*
X108075400Y-87834736D01*
X106605400Y-88288864D02*
X106605400Y-87834736D01*
%TO.C,Q4*%
X120964000Y-79966000D02*
X119864000Y-79966000D01*
X121064000Y-79966000D02*
X121064000Y-86666000D01*
X115664000Y-79966000D02*
X119864000Y-79966000D01*
X115664000Y-87166000D02*
X115664000Y-79966000D01*
X120564000Y-87166000D02*
X115664000Y-87166000D01*
X120964000Y-79966000D02*
X121064000Y-79966000D01*
D13*
X121027500Y-87066000D02*
G75*
G03*
X121027500Y-87066000I-63500J0D01*
G01*
D11*
%TO.C,R23*%
X148272862Y-111809264D02*
X148272862Y-111355136D01*
X146802862Y-111809264D02*
X146802862Y-111355136D01*
%TO.C,R5*%
X112698264Y-85167800D02*
X112244136Y-85167800D01*
X112698264Y-86637800D02*
X112244136Y-86637800D01*
%TD*%
M02*
